<svg xmlns="http://www.w3.org/2000/svg" xmlns:xlink="http://www.w3.org/1999/xlink" viewBox="0 0 1908.57 1082.61"><defs><style>.cls-1,.cls-18{fill:none;}.cls-2{isolation:isolate;}.cls-3{fill:url(#linear-gradient);}.cls-4,.cls-6{fill:#edd4b7;}.cls-5{fill:#a01d2b;}.cls-6{stroke:#c69c6d;stroke-width:3px;}.cls-18,.cls-6{stroke-miterlimit:10;}.cls-7{fill:#c55b71;}.cls-12,.cls-30,.cls-8{fill:#fff;}.cls-29,.cls-9{fill:#e9ddd5;}.cls-10{fill:#3d332f;}.cls-11{fill:#8b1d2b;}.cls-12{font-size:11.44px;font-family:FredokaOne-Regular, FredokaOne Regular;}.cls-13{letter-spacing:-0.01em;}.cls-14{letter-spacing:-0.01em;}.cls-15{letter-spacing:0.03em;}.cls-16{letter-spacing:0em;}.cls-17{fill:#b7d0e4;}.cls-18{stroke:#b7d0e4;stroke-linecap:round;stroke-width:2.08px;stroke-dasharray:5.08 15.24;}.cls-19{mix-blend-mode:multiply;}.cls-20{clip-path:url(#clip-path);}.cls-21{clip-path:url(#clip-path-2);}.cls-22{fill:#f2f8fd;}.cls-23{fill:#edeced;}.cls-24{fill:#d5d3d3;}.cls-25{fill:#814716;}.cls-26{fill:#452714;}.cls-27{clip-path:url(#clip-path-3);}.cls-28{fill:#f5f5f5;}.cls-28,.cls-29,.cls-30{fill-rule:evenodd;}</style><linearGradient id="linear-gradient" y1="540.4" x2="1807.18" y2="540.4" gradientUnits="userSpaceOnUse"><stop offset="0.02" stop-color="#fff"/><stop offset="0.11" stop-color="#fff"/><stop offset="1" stop-color="#bef0ff"/></linearGradient><clipPath id="clip-path"><rect class="cls-1" x="1145.59" y="285" width="135.58" height="98.1" transform="translate(-40.82 438.33) rotate(-20.15)"/></clipPath><clipPath id="clip-path-2"><path class="cls-1" d="M1140.77,329a52.9,52.9,0,0,0,3.66,13.8l0,0a55.14,55.14,0,0,0,17.31,22.86,50.3,50.3,0,0,0,20.51,9.49,3.05,3.05,0,0,0,.67.52c2.51,1.29,34,6.07,45,2,10.46-3.84,32-26,33-31.33,0-.13,0-.28.07-.43a50.23,50.23,0,0,0,9.15-20,55.08,55.08,0,0,0-1.58-28.63v0a52.73,52.73,0,0,0-6.13-12.9c-2.19-3.09-5-5.08-7.62-5.47a6.37,6.37,0,0,0-3.16.32,8.47,8.47,0,0,0-3.9,3.21l0,.05-4.09,8.14a4.78,4.78,0,0,0-3.12-1.46c-10.39-.21-38-.55-43.78,1.59-6.77,2.48-35.46,25.6-38.78,30.36l-7.18-3.06-.07,0a8.52,8.52,0,0,0-5,.08,6.5,6.5,0,0,0-2.62,1.8c-1.77,2-2.6,5.33-2.27,9.1M1268.41,325a48.79,48.79,0,0,1-7.4,17.35c-1-11.79-9.29-37.92-14.76-48.06a18.41,18.41,0,0,0-1.14-1.88l4.09-8.14a1.59,1.59,0,0,1,.13-.22,7.1,7.1,0,0,1,3.17-2.55,5.14,5.14,0,0,1,2.49-.26c2.15.31,4.42,2,6.23,4.52a49.36,49.36,0,0,1,5.69,12l0,.06a52.26,52.26,0,0,1,1.48,27.17M1146,342.07a49.2,49.2,0,0,1-3.42-12.83c-.28-3.13.39-5.85,1.83-7.47a5,5,0,0,1,2.06-1.42,7,7,0,0,1,4.07-.1,1.13,1.13,0,0,1,.24.08l7.24,3.07c2.42,8.73,15.49,38.94,22.15,49.08a48.72,48.72,0,0,1-17.71-8.66A52.25,52.25,0,0,1,1146,342.14l0-.07"/></clipPath><clipPath id="clip-path-3"><rect class="cls-1" x="1324.43" y="544" width="118.63" height="122.15"/></clipPath></defs><g class="cls-2"><g id="Layer_2" data-name="Layer 2"><g id="Layer_1-2" data-name="Layer 1"><path class="cls-3" d="M0,866.56V944l162.06,20.64,21.3,2.72L203.89,970l21,2.68,72.27,9.2,22.46,2.86,163.63,20.84,43.76,5.58,23.05,2.93,74.42,9.48,19.64,2.5,39.08,5,93.18,11.87,39,5,194.42,24.76,57.7,7.35.47.06a.13.13,0,0,0,0-.06h417.91l.85.8.89-.8h143.89a173.51,173.51,0,0,1,34.81-24.35c3.18-1.71,6.28-3.29,9.3-4.79,14.13-7,26.52-12.28,36.38-21.11l.13-.12a57.33,57.33,0,0,0,12.84-16.82c.28-.55.56-1.11.83-1.68a60.72,60.72,0,0,0,4.39-12.18c4.86-20.52-5.48-32.43,10-64,8.88-18.06,24.51-39,16.41-52.59a17.25,17.25,0,0,0-4.76-5.07c-15.82-12-41.12-56.86-39.93-96.88a99.6,99.6,0,0,1,6.39-31.64q1-2.64,2-5.19c14.31-34.36,40.65-58.32,28.86-75.63-4.29-6.29-11.24-8.23-12-16-1.2-12.22,15.07-16.9,21-31.56,0,0,0-.08,0-.13.22-.56.43-1.13.62-1.72.12-.38.23-.74.32-1.1,2.13-8-2-12.66-6.7-23.75a108.75,108.75,0,0,1-6.63-22.32c-5.78-30.12-5.8-47.89-2.79-59.21.36-1.3.75-2.53,1.17-3.67a31.11,31.11,0,0,1,4.06-7.61c.42-.57,2.57-2.61,6.81-6.74l2.66-2.58c.58-.56,1.14-1.1,1.69-1.61,12.51-12,16.51-14.75,21.78-22,5.81-8,10-13.74,8-18-3.8-8.1-25.52-1.3-30-10-2.15-4.16,1.73-7.85,5-17,8.61-24.07-4.2-37.66,5-47,.11-.11.22-.22.33-.31,3.42-3.26,7.23-3.38,11.7-3.9a27.53,27.53,0,0,0,15-5.79c1.21-.93,10.74-8.25,10.94-15.73.29-11-19.5-22.94-50-29.77l-.08,0c-2.14-.47-4.34-.92-6.58-1.35l-2,.88a135.72,135.72,0,0,1-34.7,10,120.44,120.44,0,0,1-38-.41c-10.86-1.87-30.51-5.51-47.77-20.6-15.5-13.55-21.63-29.81-24-36-20.56-53.71-48.26-126-69-152-41.46-51.91-124.23-5.13-315-7-107.09-1-196.24-1.92-298-43C886.81,56.79,833.2,31,742,0H0V866.56Z"/><path class="cls-4" d="M1692.79,983.58l-11,31.89,32.39,15.1q10.41-14.84,20.81-29.66Z"/><path class="cls-4" d="M1500.24,842l-33-7q-5.51,17-11,34l32,17Z"/><path class="cls-4" d="M1610.08,591.4,1532,636.5a34,34,0,0,0-21.73,3.5c-3.41,1.88-10.33,5.69-13,14-2.84,8.83,1.16,16.48,2,18,5.62,10.17,17,12.26,21,13,4.79.88,14.88,2.74,23-4s8.34-17,8.35-18.8l75.33-34.29Z"/><path class="cls-4" d="M1834.24,607c10.72,17.72,21.41,29,27,30a12.3,12.3,0,0,0,8-1,9.29,9.29,0,0,0,3-3,27.44,27.44,0,0,1-8-5c-1-.89-12.73-11.8-9-25,3.41-12.09,16.87-15.72,18-16,12.22-3.09,24.88,3,31,12,5,7.32,4.58,15,4,26a78.23,78.23,0,0,1-8,31,65.41,65.41,0,0,1-19,23,63.24,63.24,0,0,1-28,12c-23.64,3.23-52.44-17.12-68.5-51.5Z"/><path class="cls-5" d="M1747.24,745c7,6.44,69,66,59,155-7.91,70.26-55.4,111.27-66,120l-70-33,36-114-49-32a176.81,176.81,0,0,1-27,69,144.3,144.3,0,0,1-58,13c-49.22.51-83.85-25-95-34l19-58,66-1q4-47,8-94Z"/><path class="cls-6" d="M1797.67,417.69c0,7.68,3.93,39,2.9,47.3-1,8-4.72,15.1-7.88,18.67-13.91,15.68-47.74,8.93-66-5.81a60,60,0,0,1-8.3-8.3c-12.27-14.59-15.15-30.42-16.18-36.51-2.09-12.35-5.76-34.06,7.47-51,15.82-20.29,50-26.43,68.87-12.45C1797.08,383.3,1797.65,414.22,1797.67,417.69Z"/><path class="cls-7" d="M1691.24,459c0-3.17-.13-22.62-15-35-19.93-16.6-47.31-4.68-51-3-22.36,10.16-29.72,32-31,36l-30,93a130.07,130.07,0,0,0-2.73,38.84c1.16,14.21,2.39,31.76,12.22,43.86,14.29,17.61,44.6,21.32,75.51,12.3l6-28a306.15,306.15,0,0,0,53.32,6.72c29,1.06,46.25-2.51,51.68-3.72,7.49-1.67,11.23-2.5,15.5-4.42,17.43-7.81,31.3-25.46,34.92-42.92,8.47-40.87-37.17-73.69-41.42-76.66-34.34-24-72.73-17.77-82-16Q1689.24,469.5,1691.24,459Z"/><path class="cls-8" d="M1682.8,496.6Q1671,546.81,1659.24,597a252.56,252.56,0,0,0,30,5.3c23.11,2.67,35.72,4.17,49.62-1.44,5.15-2.07,23.1-9.31,29.48-26.6,9.31-25.25-13.8-50.89-16.54-53.93C1726.91,492.69,1688.28,496,1682.8,496.6Z"/><path class="cls-9" d="M1842.24,614l-63,41-31-58a77.09,77.09,0,0,1-15,6c-15.82,4.47-29.19,2.69-48,0a279.44,279.44,0,0,1-30-6l27-101a146.26,146.26,0,0,1,37,4C1796,518.51,1833.49,594.89,1842.24,614Z"/><path class="cls-4" d="M1707.24,453l-20,27a113.62,113.62,0,0,1,43,0,112.05,112.05,0,0,1,25,8l1-1a112.44,112.44,0,0,1-49-34Z"/><path class="cls-9" d="M1760.24,620l9,130a64.25,64.25,0,0,1-13.32,2.21c-8.49.49-13.81-.92-22.68-2.21-10.9-1.58-9-.35-24-2-19.7-2.17-20.8-4.06-32-4-10.27,0-9.74,1.65-22,2-10.81.31-19-.71-29-2-20.37-2.63-19-4.52-30-5-18.87-.83-27.13,4.56-31,0-4.36-5.12,2-16.74,6-25,7.35-15.22,15.78-37.67,20-69a99.45,99.45,0,0,0,58,0l6-28a278.85,278.85,0,0,0,105,3Z"/><path class="cls-10" d="M1812.24,328c9.45-2.62,11.38-7.18,15-6,8.83,2.87,10,49.3-9,58-4.68,2.14-13.36,3.21-21.21,2.55-15.11-1.26-16.59-6.77-28-6.87-4,0-22.59-.2-30,12.77-5.79,10.2-1,22.13,0,24.55l-6.38,5.41c-1-1.75-2.51-4.31-4.42-7.37-6.13-9.77-9.26-14.66-12.77-15.23-4.24-.67-9.43,2.62-11.3,6.88-2.45,5.6,3.27,8.81,5.4,20.14,1.62,8.61,0,15.36-2.37,25.17-1.28,5.31-2.66,10.84-5,11s-4.18-4.77-5.89-8.67a146.28,146.28,0,0,0-15.22-26.52,80.86,80.86,0,0,1-11.3-24.56c-2.2-8.26-3.75-14.07-1.47-21.12.25-.79,4.34-12.84,14.73-16.2,6.76-2.19,9.54,1.45,14.24-1,7-3.63,4.67-13.69,9.34-22.59,8.38-16,33-17.73,38.3-18.17,9.64-.8,18.52,1.07,36.27,4.82C1795.55,328,1802.37,330.74,1812.24,328Z"/><path class="cls-10" d="M1451.44,877.34c-16.07,10.49-33.31,8.74-38.77,8L1445,790.5c4.07,1.51,22.47,8.82,29.51,27.38a43.24,43.24,0,0,1,2.62,13.62C1477.69,850.74,1465.67,868.06,1451.44,877.34Z"/><path class="cls-10" d="M1726.79,1080h-7.73q-26.36-12.16-52.71-24.35l-31.1-14.36-.09,0,.1-.17v0c.22-.46.53-1.06.93-1.79,3.28-6,12.43-20.06,29.28-24.51a42.67,42.67,0,0,1,13.81-1.18c1,.07,2,.18,3,.33,11.48,1.63,21.66,7.63,29.4,15.52a3.11,3.11,0,0,1,.31.32,59,59,0,0,1,10.17,14.11C1729.61,1058.31,1728.21,1072.68,1726.79,1080Z"/><ellipse class="cls-5" cx="1170.22" cy="728.06" rx="21.92" ry="20.72" transform="translate(-200.87 588) rotate(-26.06)"/><path class="cls-5" d="M1480.28,1074.73c0,1.75-.07,3.51-.15,5.27H1068a.13.13,0,0,1,0,.06l-.47-.06h-58.23c.14-2.45.31-4.9.53-7.35A231.69,231.69,0,0,1,1043.41,972q1.93-3.16,4-6.28,4.14-6.29,8.69-12.35a244.12,244.12,0,0,1,37.6-39.85A250.18,250.18,0,0,1,1144.8,880l1-.5A252.16,252.16,0,0,1,1190,862.78q9.72-2.67,19.51-4.51a241.3,241.3,0,0,1,110.37,4.7,229.1,229.1,0,0,1,41.17,16c41.33,20.84,76,54.22,97.43,98.1a213.45,213.45,0,0,1,14.58,39,209.55,209.55,0,0,1,4.65,22.06A215.85,215.85,0,0,1,1480.28,1074.73Z"/><polygon class="cls-5" points="1387.95 807.37 1345.71 794.19 1302.78 908.65 1345.02 921.84 1387.95 807.37"/><polygon class="cls-5" points="969.12 903.81 957 922.75 1061.97 982.57 1074.09 963.63 969.12 903.81"/><polygon class="cls-5" points="1394.94 1035.57 1399.86 1057.56 1565.77 1016.26 1560.86 994.27 1394.94 1035.57"/><polygon class="cls-5" points="1181.48 732.55 1162.05 737.39 1201.49 914.08 1220.93 909.25 1181.48 732.55"/><ellipse class="cls-5" cx="1571.5" cy="1003.78" rx="21.92" ry="20.72" transform="translate(-281.19 792.28) rotate(-26.06)"/><ellipse class="cls-5" cx="1381.72" cy="775.97" rx="52.6" ry="49.72" transform="translate(-200.41 685.77) rotate(-26.06)"/><ellipse class="cls-5" cx="960.87" cy="913.01" rx="21.92" ry="20.72" transform="translate(-303.38 514.84) rotate(-26.06)"/><ellipse class="cls-7" cx="945.15" cy="731.46" rx="19.46" ry="20.59" transform="translate(167.29 1638.82) rotate(-87.13)"/><path class="cls-7" d="M699.16,1080H623.64a199.55,199.55,0,0,1-1.32-35.19c.17-3.48.44-6.94.79-10.38q.55-5.48,1.4-10.85,1.25-7.94,3.1-15.65a200.15,200.15,0,0,1,13.16-37.78c18.63-40.16,50.1-73.53,89.29-95.74q9.16-5.2,18.87-9.56a232.9,232.9,0,0,1,107.34-20,236.92,236.92,0,0,1,44,6.35q9.21,2.22,18.09,5.16a226.72,226.72,0,0,1,88.61,54,217.79,217.79,0,0,1,24.58,29c.68,1,1.35,1.92,2,2.89a209.23,209.23,0,0,1,13.86,23.45q2.91,5.73,5.46,11.66a201,201,0,0,1,16.2,89.82q-.33,6.46-1,12.81a.13.13,0,0,1,0,.06l-.47-.06H699.16Z"/><polygon class="cls-7" points="1088.14 895.59 1059.4 865.57 972.09 940.17 1000.83 970.2 1088.14 895.59"/><polygon class="cls-7" points="699.95 784.59 681.38 794.66 740.51 891.53 759.08 881.47 699.95 784.59"/><polygon class="cls-7" points="642.18 1037.48 646.76 1011 530.3 992.36 525.71 1018.85 642.18 1037.48"/><polygon class="cls-7" points="952.37 740.27 934.19 735.42 886.35 898.62 904.53 903.47 952.37 740.27"/><ellipse class="cls-7" cx="1097.28" cy="866.94" rx="46.7" ry="49.41" transform="translate(176.5 1919.45) rotate(-87.13)"/><ellipse class="cls-7" cx="688.99" cy="788.41" rx="19.46" ry="20.59" transform="translate(-132.92 1437.08) rotate(-87.13)"/><ellipse class="cls-7" cx="517.68" cy="1002.6" rx="32.67" ry="34.56" transform="translate(-509.58 1469.44) rotate(-87.13)"/><ellipse class="cls-7" cx="1830.52" cy="1038.54" rx="16.01" ry="16.94" transform="translate(-99.12 1878.7) rotate(-53.1)"/><path class="cls-7" d="M1724.17,1080H1487.65c35.44-32,82.82-46.79,130.43-43,5.76.45,11.53,1.17,17.27,2.18l.84.14a188,188,0,0,1,39.46,11.59,194.11,194.11,0,0,1,42.06,24.07Q1721,1077.4,1724.17,1080Z"/><polygon class="cls-7" points="1638.9 961.86 1621.61 960.17 1617.32 1053.44 1634.61 1055.13 1638.9 961.86"/><polygon class="cls-7" points="1485.91 1080 1453.55 1080 1424.35 1052.64 1423.35 1051.71 1412.27 1041.33 1424.99 1028.09 1427.59 1025.38 1429.33 1027.01 1440.44 1037.42 1448.91 1045.35 1480.28 1074.73 1485.91 1080"/><polygon class="cls-7" points="1831.38 1047.86 1824.6 1053.48 1792.57 1080 1768.31 1080 1814.45 1041.8 1821.23 1036.18 1831.38 1047.86"/><ellipse class="cls-7" cx="1629.67" cy="959.42" rx="16.01" ry="16.94" transform="translate(-116.09 1686.48) rotate(-53.1)"/><ellipse class="cls-7" cx="1414.27" cy="1026.55" rx="26.87" ry="28.43" transform="matrix(0.6, -0.8, 0.8, 0.6, -255.83, 1541.06)"/><path class="cls-11" d="M1657.24,841l29-53q-2,35-4,70Z"/><path class="cls-11" d="M1691.24,459a40.91,40.91,0,0,0-7-20,39,39,0,0,0-13-12c-9.71-5.32-19.09-4.51-25-4-4.28.37-20.41,2-34,15-7.74,7.39-11,15-14,22-3.42,8-5.12,12-4,16,3.07,11.07,24,19.53,39,12,10.84-5.46,14.25-17.17,15-20,0,2.42,0,11.82-7,19-4.47,4.59-9.59,6-13,7a38.08,38.08,0,0,1-23-1c-4.32-1.56-16.87-6.11-19-16-.93-4.33.71-8.22,4-16a78.93,78.93,0,0,1,10-17c5.91-7.93,8.86-11.9,14-16a60,60,0,0,1,29-12c5.33-.69,11.92-1.54,20,1a40.42,40.42,0,0,1,19,13C1691.94,442,1691.46,455.58,1691.24,459Z"/><text class="cls-12" transform="matrix(-0.25, 0.97, 0.97, 0.25, 1675.86, 492.35)">#sammen<tspan class="cls-13" x="46.88" y="0">h</tspan><tspan class="cls-14" x="53.08" y="0">v</tspan><tspan x="58.47" y="0">e</tspan><tspan class="cls-15" x="64.2" y="0">r</tspan><tspan class="cls-13" x="68.28" y="0">f</tspan><tspan class="cls-16" x="71.47" y="0">orsig</tspan></text><path class="cls-8" d="M1268.59,297.32s0,0,0,0a52.73,52.73,0,0,0-6.13-12.9c-2.19-3.09-5-5.08-7.62-5.47a6.37,6.37,0,0,0-3.16.32,8.47,8.47,0,0,0-3.9,3.21l0,.05-4.09,8.14a4.78,4.78,0,0,0-3.12-1.46c-10.39-.21-38-.55-43.78,1.59-6.77,2.48-35.46,25.6-38.78,30.36l-7.18-3.06-.07,0a8.52,8.52,0,0,0-5,.08,6.5,6.5,0,0,0-2.62,1.8c-1.77,2-2.6,5.33-2.27,9.1a52.9,52.9,0,0,0,3.66,13.8.08.08,0,0,1,0,0,55.14,55.14,0,0,0,17.31,22.86,50.3,50.3,0,0,0,20.51,9.49,3.05,3.05,0,0,0,.67.52c2.51,1.29,34,6.07,45,2,10.46-3.84,32-26,33-31.33,0-.13,0-.28.07-.43a50.23,50.23,0,0,0,9.15-20A55.08,55.08,0,0,0,1268.59,297.32Zm-106.14,66.5A52.25,52.25,0,0,1,1146,342.14l0-.07a49.2,49.2,0,0,1-3.42-12.83c-.28-3.13.39-5.85,1.83-7.47a5,5,0,0,1,2.06-1.42,7,7,0,0,1,4.07-.1,1.13,1.13,0,0,1,.24.08l7.24,3.07c2.42,8.73,15.49,38.94,22.15,49.08A48.72,48.72,0,0,1,1162.45,363.82Zm106-38.87a48.79,48.79,0,0,1-7.4,17.35c-1-11.79-9.29-37.92-14.76-48.06a18.41,18.41,0,0,0-1.14-1.88l4.09-8.14a1.59,1.59,0,0,1,.13-.22,7.1,7.1,0,0,1,3.17-2.55,5.14,5.14,0,0,1,2.49-.26c2.15.31,4.42,2,6.23,4.52a49.36,49.36,0,0,1,5.69,12l0,.06A52.26,52.26,0,0,1,1268.41,325Z"/><path class="cls-17" d="M1167.91,331.1c7.74-6.14,20.67-15.79,37-21.32a120.6,120.6,0,0,1,38.75-6.46s-25.37,5.35-37.69,9.88-38,17.9-38,17.9Z"/><path class="cls-17" d="M1174.42,344.74q16.62-5.42,33.81-11.72,21.12-7.77,40.73-16.09s-23.28,12.83-36.12,17.1-38.42,10.71-38.42,10.71Z"/><path class="cls-17" d="M1181.81,359.89a77.83,77.83,0,0,0,40.46-4.09,78.67,78.67,0,0,0,32-23.62s-10,18.22-30.65,25.34-41.76,2.37-41.76,2.37Z"/><path class="cls-18" d="M1235.87,292.71c-10.89-.33-27.06.6-36.21,4-10.48,3.85-25.62,15.88-34.17,24.15"/><g class="cls-19"><g class="cls-20"><g class="cls-21"><polygon class="cls-22" points="1196.06 288.16 1206.98 308.97 1206.66 313 1214.3 330.66 1213.56 333.84 1223.08 355.45 1220.59 358.63 1229.01 380.57 1279.78 343.36 1274.45 313.24 1265.9 280.39 1249.86 273.35 1236.69 276.15 1218.29 282.9 1196.06 288.16"/></g></g></g><path class="cls-23" d="M797.84,686v1.64c0,7,4.64,14,13.87,19.41,18.57,10.79,48.78,10.79,67.48,0,9.41-5.43,14.11-12.56,14.09-19.68v-1.64c0,7.12-4.68,14.25-14.09,19.68-18.69,10.79-48.9,10.79-67.48,0C802.48,700,797.86,693,797.84,686Z"/><path class="cls-8" d="M811.92,666.3c-18.69,10.8-18.79,28.3-.22,39.09s48.79,10.79,67.48,0,18.8-28.29.23-39.09-48.79-10.79-67.49,0Z"/><path class="cls-24" d="M821.09,696.35c10.78,3.41,27.67,2,37.71-3.25s9.43-12.19-1.35-15.6-27.66-2-37.7,3.25-9.44,12.19,1.34,15.6Z"/><polygon class="cls-8" points="817.74 664.91 821.32 662.83 823.53 660.49 819.94 662.58 817.74 664.91 817.74 664.91"/><path class="cls-8" d="M808.31,643.53a10.42,10.42,0,0,0,2.07,5.79l9.56,13.26,3.59-2.09L814,647.24a10.44,10.44,0,0,1-2.07-5.79,3.42,3.42,0,0,1,1.43-3.13l-3.59,2.08a3.43,3.43,0,0,0-1.43,3.13Z"/><polygon class="cls-8" points="818.89 644.02 822.48 641.94 822.49 637.54 818.91 639.63 818.89 644.02 818.89 644.02"/><path class="cls-8" d="M807,635.74c1.58-.91,3.78-.79,6.19.61l5.69,3.28,3.58-2.09-5.68-3.28c-2.42-1.39-4.61-1.52-6.19-.6L807,635.74Z"/><path class="cls-23" d="M813.22,636.35c-4.8-2.77-8.72-.54-8.73,5a18.57,18.57,0,0,0,3.68,10.33l9.57,13.26,2.2-2.33-9.56-13.26a10.42,10.42,0,0,1-2.07-5.79c0-3.09,2.21-4.34,4.9-2.79l5.68,3.28,0-4.39-5.69-3.28Z"/><path class="cls-23" d="M879,650.75c0,18.47-8.69,45-33.44,45s-33.45-26.5-33.45-45Z"/><path class="cls-8" d="M821.91,665c13.06,7.54,34.23,7.54,47.29,0s13.07-19.76,0-27.3-34.23-7.55-47.29,0-13.06,19.76,0,27.3Z"/><path class="cls-23" d="M816.37,655.3l.15.33c1.29,2.91,3.9,5.65,7.83,7.92,11.71,6.76,30.7,6.76,42.41,0a25.23,25.23,0,0,0,2.8-1.87,15.88,15.88,0,0,0,5-6.07c0-.1.09-.2.14-.31,2.3-5.64-.35-11.83-8-16.23-11.71-6.76-30.7-6.76-42.41,0-7.62,4.4-10.28,10.58-8,16.23Z"/><path class="cls-25" d="M816.37,655.3l.15.33c1.29,2.91,3.9,5.65,7.83,7.92,11.71,6.76,30.7,6.76,42.41,0a25.23,25.23,0,0,0,2.8-1.87,15.88,15.88,0,0,0,5-6.07c0-.1.09-.2.14-.31-1.23-3-3.89-5.91-8-8.28-8.88-5.13-22-6.36-32.86-3.71a36.87,36.87,0,0,0-9.53,3.71c-4.09,2.37-6.76,5.25-8,8.28Z"/><path class="cls-26" d="M851,646.26a2.25,2.25,0,0,0,2.05,0,.62.62,0,0,0,0-1.18,2.25,2.25,0,0,0-2.05,0c-.57.33-.57.86,0,1.18Z"/><path class="cls-26" d="M851.34,650.5a5.4,5.4,0,0,0,4.89,0c1.35-.77,1.35-2,0-2.81a5.4,5.4,0,0,0-4.89,0c-1.35.77-1.35,2,0,2.81Z"/><path class="cls-26" d="M858.71,647a.78.78,0,0,0,.7,0c.19-.12.19-.3,0-.41a.78.78,0,0,0-.7,0c-.19.11-.19.29,0,.41Z"/><path class="cls-26" d="M859.08,651.45a1.06,1.06,0,0,0,.92,0,.28.28,0,0,0,0-.53,1,1,0,0,0-.92,0,.28.28,0,0,0,0,.53Z"/><path class="cls-26" d="M861.8,649.57a3.14,3.14,0,0,0,2.83,0,.87.87,0,0,0,0-1.64,3.14,3.14,0,0,0-2.83,0,.87.87,0,0,0,0,1.64Z"/><path class="cls-26" d="M864.48,652a.64.64,0,0,0,.63,0c.18-.1.18-.26,0-.36a.7.7,0,0,0-.63,0c-.18.1-.18.26,0,.36Z"/><path class="cls-26" d="M864.56,656.87a4.3,4.3,0,0,0,3.92,0,1.19,1.19,0,0,0,0-2.26,4.3,4.3,0,0,0-3.92,0,1.19,1.19,0,0,0,0,2.26Z"/><path class="cls-26" d="M859.79,654a1.67,1.67,0,0,0,1.51,0c.42-.24.42-.63,0-.88a1.67,1.67,0,0,0-1.51,0c-.42.25-.42.64,0,.88Z"/><path class="cls-26" d="M852.67,652.76a.47.47,0,0,0,.4,0,.12.12,0,0,0,0-.23.47.47,0,0,0-.4,0,.12.12,0,0,0,0,.23Z"/><path class="cls-26" d="M844.73,644.88a.76.76,0,0,0,.66,0c.18-.11.18-.28,0-.38a.7.7,0,0,0-.66,0c-.18.1-.18.27,0,.38Z"/><path class="cls-26" d="M868.55,652.31a1.89,1.89,0,0,0,1.7,0c.47-.28.47-.72,0-1a1.89,1.89,0,0,0-1.7,0c-.47.27-.47.71,0,1Z"/><path class="cls-26" d="M871.9,656a.72.72,0,0,0,.64,0c.17-.11.17-.27,0-.37a.72.72,0,0,0-.64,0c-.17.1-.17.26,0,.37Z"/><path class="cls-26" d="M868.59,658.93a1.36,1.36,0,0,0,1.18,0,.36.36,0,0,0,0-.68,1.29,1.29,0,0,0-1.18,0c-.33.18-.33.49,0,.68Z"/><path class="cls-10" d="M816.37,655.3l.15.33c1.29,2.91,3.9,5.65,7.83,7.92,11.71,6.76,30.7,6.76,42.41,0a25.23,25.23,0,0,0,2.8-1.87,23.47,23.47,0,0,1-2.81-.95c-1.61-.74-2.18-2.09-3.39-3.05a11.46,11.46,0,0,0-6.06-2.15c-1.38-.11-2.82,0-4.16-.26-4.86-.82-5-5-6.28-7.28-.91-1.72-3.07-3.21-5.85-4l-.56-.16h0a18.14,18.14,0,0,0-6.55-.48,36.87,36.87,0,0,0-9.53,3.71c-4.09,2.37-6.76,5.25-8,8.28Z"/><g class="cls-27"><path class="cls-28" d="M1428.48,647.61h-42.42v-90a4.44,4.44,0,0,1,4.45-4.4h0a4.42,4.42,0,0,1,4.4,4.4v29.68h1.73v-34.6a4.45,4.45,0,0,1,4.41-4.45h0a4.48,4.48,0,0,1,4.44,4.45v34.6h1.74V548.4a4.39,4.39,0,0,1,4.4-4.4h0a4.4,4.4,0,0,1,4.4,4.4v38.86h1.73V555.7a4.47,4.47,0,0,1,4.45-4.44h0a4.43,4.43,0,0,1,4.4,4.44v38.91c2.62-2.86,5.19-5.71,7.82-8.52,5.33-5.39,11.56.56,7.11,6.69-13.53,19.39-14.28,32-13.06,54.83Z"/></g><path class="cls-29" d="M1428.48,647.61h-42.42V641c32.78,6.65,30.39-5.43,48.74-37.13h0c-7,13.86-7.3,25.61-6.32,43.78Z"/><path class="cls-28" d="M1428.53,652.2H1386a2.26,2.26,0,0,1-2.25-2.3h0a2.26,2.26,0,0,1,2.25-2.29h42.51a2.29,2.29,0,0,1,2.24,2.29h0a2.3,2.3,0,0,1-2.24,2.3Z"/><path class="cls-30" d="M1390.93,609.22h0a1.43,1.43,0,0,0-1.4,1.4v25a1.4,1.4,0,0,0,1.4,1.36h0a1.36,1.36,0,0,0,1.36-1.36v-25a1.4,1.4,0,0,0-1.36-1.4Z"/><g class="cls-27"><path class="cls-30" d="M1390.93,606.59h0a1.39,1.39,0,0,1-1.4-1.35v-3.42a1.44,1.44,0,0,1,1.4-1.41h0a1.41,1.41,0,0,1,1.36,1.41v3.42a1.35,1.35,0,0,1-1.36,1.35Z"/><path class="cls-28" d="M1339,661.56h42.42v-90a4.43,4.43,0,0,0-4.45-4.4h0a4.42,4.42,0,0,0-4.4,4.4v29.68h-1.73v-34.6a4.4,4.4,0,0,0-4.4-4.4h0a4.44,4.44,0,0,0-4.45,4.4v34.6h-1.73V562.4a4.44,4.44,0,0,0-4.4-4.45h0a4.43,4.43,0,0,0-4.4,4.45v38.81h-1.74V569.66a4.44,4.44,0,0,0-4.44-4.41h0a4.4,4.4,0,0,0-4.4,4.41v38.9c-2.63-2.81-5.2-5.66-7.82-8.52-5.34-5.38-11.57.56-7.12,6.74,13.53,19.34,14.28,32,13.06,54.78Z"/></g><path class="cls-29" d="M1339,661.56h42.42V655c-32.77,6.6-30.39-5.48-48.74-37.18h0c7,13.86,7.31,25.61,6.32,43.78Z"/><path class="cls-28" d="M1339,666.15h42.51a2.3,2.3,0,0,0,2.29-2.3h0a2.3,2.3,0,0,0-2.29-2.29H1339a2.29,2.29,0,0,0-2.25,2.29h0a2.29,2.29,0,0,0,2.25,2.3Z"/><path class="cls-30" d="M1376.56,623.22h0a1.39,1.39,0,0,1,1.4,1.35v25a1.4,1.4,0,0,1-1.4,1.4h0a1.36,1.36,0,0,1-1.36-1.4v-25a1.35,1.35,0,0,1,1.36-1.35Z"/><path class="cls-30" d="M1376.56,620.59h0a1.43,1.43,0,0,0,1.4-1.4v-3.42a1.4,1.4,0,0,0-1.4-1.36h0a1.36,1.36,0,0,0-1.36,1.36v3.42a1.4,1.4,0,0,0,1.36,1.4Z"/><ellipse class="cls-7" cx="201.56" cy="708.17" rx="19.46" ry="20.59" transform="translate(-515.81 874.03) rotate(-87.13)"/><path class="cls-7" d="M0,866.56V1080H310l9.78,2.61q.31-1.29.63-2.61a201.66,201.66,0,0,0-.72-95.25q-2.41-9.6-5.74-18.88a208.31,208.31,0,0,0-24-46.91,215.26,215.26,0,0,0-26.58-31.86,226.76,226.76,0,0,0-88.61-54q-8.88-2.93-18.09-5.15a237,237,0,0,0-44-6.35,232.9,232.9,0,0,0-107.34,20Q2.66,842.75,0,844Z"/><polygon class="cls-7" points="344.55 872.29 315.81 842.27 228.5 916.88 257.24 946.9 344.55 872.29"/><polygon class="cls-7" points="0 866.56 15.49 858.17 5.34 841.55 0 832.79 0 844.03 0 866.56"/><polygon class="cls-7" points="309.96 1080 241.67 1080 246.62 1063.09 309.96 1080"/><polygon class="cls-7" points="208.78 716.97 190.6 712.12 142.76 875.32 160.94 880.17 208.78 716.97"/><ellipse class="cls-7" cx="353.69" cy="843.64" rx="46.7" ry="49.41" transform="translate(-506.6 1154.66) rotate(-87.13)"/><ellipse class="cls-5" cx="393.09" cy="778.18" rx="21.92" ry="20.72" transform="translate(-301.86 251.75) rotate(-26.06)"/><path class="cls-5" d="M699.16,1080H320.37q-.31,1.32-.63,2.61L310,1080H240.69a234.87,234.87,0,0,1,25.59-57.9q5.87-9.57,12.66-18.63a243.05,243.05,0,0,1,18.25-21.58q7.92-8.34,16.72-16a253.26,253.26,0,0,1,99-53q9.72-2.67,19.51-4.51a241.3,241.3,0,0,1,110.37,4.7,229.1,229.1,0,0,1,41.17,16,219.49,219.49,0,0,1,56.81,41.06,213.6,213.6,0,0,1,40.62,57c.63,1.29,1.24,2.58,1.84,3.87A212.76,212.76,0,0,1,696,1066.22Q697.82,1073.07,699.16,1080Z"/><polygon class="cls-5" points="610.82 857.48 568.58 844.3 525.65 958.77 567.89 971.95 610.82 857.48"/><polygon class="cls-5" points="191.99 953.92 179.87 972.86 284.84 1032.68 296.96 1013.74 191.99 953.92"/><polygon class="cls-5" points="733.88 1080 778.53 1068.88 778.54 1068.88 788.64 1066.37 783.73 1044.38 774.35 1046.71 695.97 1066.22 640.63 1080 699.16 1080 733.88 1080"/><polygon class="cls-5" points="404.35 782.66 384.92 787.5 424.36 964.19 443.8 959.36 404.35 782.66"/><ellipse class="cls-5" cx="794.37" cy="1053.89" rx="21.92" ry="20.72" transform="translate(-382.18 456.03) rotate(-26.06)"/><ellipse class="cls-5" cx="604.59" cy="826.08" rx="52.6" ry="49.72" transform="translate(-301.4 349.51) rotate(-26.06)"/><ellipse class="cls-5" cx="183.74" cy="963.12" rx="21.92" ry="20.72" transform="translate(-404.37 178.59) rotate(-26.06)"/></g></g></g></svg>