<svg xmlns="http://www.w3.org/2000/svg" xmlns:xlink="http://www.w3.org/1999/xlink" viewBox="0 0 1920 1080.8"><defs><style>.cls-1,.cls-8{fill:none;}.cls-2{isolation:isolate;}.cls-3{fill:url(#linear-gradient);}.cls-21,.cls-4{fill:#fff;}.cls-5{fill:#a01d2b;}.cls-6{fill:#c55b71;}.cls-7{fill:#b7d0e4;}.cls-8{stroke:#b7d0e4;stroke-linecap:round;stroke-miterlimit:10;stroke-width:2.08px;stroke-dasharray:5.08 15.24;}.cls-9{mix-blend-mode:multiply;}.cls-10{clip-path:url(#clip-path);}.cls-11{clip-path:url(#clip-path-2);}.cls-12{fill:#f2f8fd;}.cls-13{fill:#edeced;}.cls-14{fill:#d5d3d3;}.cls-15{fill:#814716;}.cls-16{fill:#452714;}.cls-17{fill:#3d332f;}.cls-18{clip-path:url(#clip-path-3);}.cls-19{fill:#f5f5f5;}.cls-19,.cls-20,.cls-21{fill-rule:evenodd;}.cls-20{fill:#e9ddd5;}.cls-22{fill:#ddbeae;}.cls-23{fill:#c45b71;}.cls-24{fill:#e8dbd3;}.cls-25{fill:#8a1d2c;}.cls-26{fill:#163963;}.cls-27{fill:#2b5699;}.cls-28{fill:#486bb0;}.cls-29{fill:#493d38;}.cls-30{fill:#594c47;}.cls-31{fill:#c68d86;}.cls-32{fill:#c8908b;}.cls-33{fill:#ded3cb;}.cls-34{fill:#d2b3a7;}</style><linearGradient id="linear-gradient" y1="540.4" x2="1807.18" y2="540.4" gradientUnits="userSpaceOnUse"><stop offset="0.02" stop-color="#fff"/><stop offset="0.11" stop-color="#fff"/><stop offset="1" stop-color="#bef0ff"/></linearGradient><clipPath id="clip-path"><rect class="cls-1" x="1145.59" y="285" width="135.58" height="98.1" transform="translate(-40.82 438.33) rotate(-20.15)"/></clipPath><clipPath id="clip-path-2"><path class="cls-1" d="M1140.77,329a52.9,52.9,0,0,0,3.66,13.8l0,0a55.14,55.14,0,0,0,17.31,22.86,50.3,50.3,0,0,0,20.51,9.49,3.05,3.05,0,0,0,.67.52c2.51,1.29,34,6.07,45,2,10.46-3.84,32-26,33-31.33,0-.13,0-.28.07-.43a50.23,50.23,0,0,0,9.15-20,55.08,55.08,0,0,0-1.58-28.63v0a52.73,52.73,0,0,0-6.13-12.9c-2.19-3.09-5-5.08-7.62-5.47a6.37,6.37,0,0,0-3.16.32,8.47,8.47,0,0,0-3.9,3.21l0,.05-4.09,8.14a4.78,4.78,0,0,0-3.12-1.46c-10.39-.21-38-.55-43.78,1.59-6.77,2.48-35.46,25.6-38.78,30.36l-7.18-3.06-.07,0a8.52,8.52,0,0,0-5,.08,6.5,6.5,0,0,0-2.62,1.8c-1.77,2-2.6,5.33-2.27,9.1M1268.41,325a48.79,48.79,0,0,1-7.4,17.35c-1-11.79-9.29-37.92-14.76-48.06a18.41,18.41,0,0,0-1.14-1.88l4.09-8.14a1.59,1.59,0,0,1,.13-.22,7.1,7.1,0,0,1,3.17-2.55,5.14,5.14,0,0,1,2.49-.26c2.15.31,4.42,2,6.23,4.52a49.36,49.36,0,0,1,5.69,12l0,.06a52.26,52.26,0,0,1,1.48,27.17M1146,342.07a49.2,49.2,0,0,1-3.42-12.83c-.28-3.13.39-5.85,1.83-7.47a5,5,0,0,1,2.06-1.42,7,7,0,0,1,4.07-.1,1.13,1.13,0,0,1,.24.08l7.24,3.07c2.42,8.73,15.49,38.94,22.15,49.08a48.72,48.72,0,0,1-17.71-8.66A52.25,52.25,0,0,1,1146,342.14l0-.07"/></clipPath><clipPath id="clip-path-3"><rect class="cls-1" x="1324.43" y="544" width="118.63" height="122.15"/></clipPath></defs><g class="cls-2"><g id="Layer_2" data-name="Layer 2"><g id="Layer_1-2" data-name="Layer 1"><path class="cls-3" d="M0,866.56V944l162.06,20.64,21.3,2.72L203.89,970l21,2.68,72.27,9.2,22.46,2.86,163.63,20.84,43.76,5.58,23.05,2.93,74.42,9.48,19.64,2.5,39.08,5,93.18,11.87,39,5,194.42,24.76,57.7,7.35.47.06a.13.13,0,0,0,0-.06h417.91l.85.8.89-.8h143.89a173.51,173.51,0,0,1,34.81-24.35c3.18-1.71,6.28-3.29,9.3-4.79,14.13-7,26.52-12.28,36.38-21.11l.13-.12a57.33,57.33,0,0,0,12.84-16.82c.28-.55.56-1.11.83-1.68a60.72,60.72,0,0,0,4.39-12.18c4.86-20.52-5.48-32.43,10-64,8.88-18.06,24.51-39,16.41-52.59a17.25,17.25,0,0,0-4.76-5.07c-15.82-12-41.12-56.86-39.93-96.88a99.6,99.6,0,0,1,6.39-31.64q1-2.64,2-5.19c14.31-34.36,40.65-58.32,28.86-75.63-4.29-6.29-11.24-8.23-12-16-1.2-12.22,15.07-16.9,21-31.56,0,0,0-.08,0-.13.22-.56.43-1.13.62-1.72.12-.38.23-.74.32-1.1,2.13-8-2-12.66-6.7-23.75a108.75,108.75,0,0,1-6.63-22.32c-5.78-30.12-5.8-47.89-2.79-59.21.36-1.3.75-2.53,1.17-3.67a31.11,31.11,0,0,1,4.06-7.61c.42-.57,2.57-2.61,6.81-6.74l2.66-2.58c.58-.56,1.14-1.1,1.69-1.61,12.51-12,16.51-14.75,21.78-22,5.81-8,10-13.74,8-18-3.8-8.1-25.52-1.3-30-10-2.15-4.16,1.73-7.85,5-17,8.61-24.07-4.2-37.66,5-47,.11-.11.22-.22.33-.31,3.42-3.26,7.23-3.38,11.7-3.9a27.53,27.53,0,0,0,15-5.79c1.21-.93,10.74-8.25,10.94-15.73.29-11-19.5-22.94-50-29.77l-.08,0c-2.14-.47-4.34-.92-6.58-1.35l-2,.88a135.72,135.72,0,0,1-34.7,10,120.44,120.44,0,0,1-38-.41c-10.86-1.87-30.51-5.51-47.77-20.6-15.5-13.55-21.63-29.81-24-36-20.56-53.71-48.26-126-69-152-41.46-51.91-124.23-5.13-315-7-107.09-1-196.24-1.92-298-43C886.81,56.79,833.2,31,742,0H0V866.56Z"/><path class="cls-4" d="M1682.8,496.6Q1671,546.81,1659.24,597a252.56,252.56,0,0,0,30,5.3c23.11,2.67,35.72,4.17,49.62-1.44,5.15-2.07,23.1-9.31,29.48-26.6,9.31-25.25-13.8-50.89-16.54-53.93C1726.91,492.69,1688.28,496,1682.8,496.6Z"/><ellipse class="cls-5" cx="1170.22" cy="728.06" rx="21.92" ry="20.72" transform="translate(-200.87 588) rotate(-26.06)"/><path class="cls-5" d="M1480.28,1074.73c0,1.75-.07,3.51-.15,5.27H1068a.13.13,0,0,1,0,.06l-.47-.06h-58.23c.14-2.45.31-4.9.53-7.35A231.69,231.69,0,0,1,1043.41,972q1.93-3.16,4-6.28,4.14-6.29,8.69-12.35a244.12,244.12,0,0,1,37.6-39.85A250.18,250.18,0,0,1,1144.8,880l1-.5A252.16,252.16,0,0,1,1190,862.78q9.72-2.67,19.51-4.51a241.3,241.3,0,0,1,110.37,4.7,229.1,229.1,0,0,1,41.17,16c41.33,20.84,76,54.22,97.43,98.1a213.45,213.45,0,0,1,14.58,39,209.55,209.55,0,0,1,4.65,22.06A215.85,215.85,0,0,1,1480.28,1074.73Z"/><polygon class="cls-5" points="1387.95 807.37 1345.71 794.19 1302.78 908.65 1345.02 921.84 1387.95 807.37"/><polygon class="cls-5" points="969.12 903.81 957 922.75 1061.97 982.57 1074.09 963.63 969.12 903.81"/><polygon class="cls-5" points="1394.94 1035.57 1399.86 1057.56 1565.77 1016.26 1560.86 994.27 1394.94 1035.57"/><polygon class="cls-5" points="1181.48 732.55 1162.05 737.39 1201.49 914.08 1220.93 909.25 1181.48 732.55"/><ellipse class="cls-5" cx="1571.5" cy="1003.78" rx="21.92" ry="20.72" transform="translate(-281.19 792.28) rotate(-26.06)"/><ellipse class="cls-5" cx="1381.72" cy="775.97" rx="52.6" ry="49.72" transform="translate(-200.41 685.77) rotate(-26.06)"/><ellipse class="cls-5" cx="960.87" cy="913.01" rx="21.92" ry="20.72" transform="translate(-303.38 514.84) rotate(-26.06)"/><ellipse class="cls-6" cx="945.15" cy="731.46" rx="19.46" ry="20.59" transform="translate(167.29 1638.82) rotate(-87.13)"/><path class="cls-6" d="M699.16,1080H623.64a199.55,199.55,0,0,1-1.32-35.19c.17-3.48.44-6.94.79-10.38q.55-5.48,1.4-10.85,1.25-7.94,3.1-15.65a200.15,200.15,0,0,1,13.16-37.78c18.63-40.16,50.1-73.53,89.29-95.74q9.16-5.2,18.87-9.56a232.9,232.9,0,0,1,107.34-20,236.92,236.92,0,0,1,44,6.35q9.21,2.22,18.09,5.16a226.72,226.72,0,0,1,88.61,54,217.79,217.79,0,0,1,24.58,29c.68,1,1.35,1.92,2,2.89a209.23,209.23,0,0,1,13.86,23.45q2.91,5.73,5.46,11.66a201,201,0,0,1,16.2,89.82q-.33,6.46-1,12.81a.13.13,0,0,1,0,.06l-.47-.06H699.16Z"/><polygon class="cls-6" points="1088.14 895.59 1059.4 865.57 972.09 940.17 1000.83 970.2 1088.14 895.59"/><polygon class="cls-6" points="699.95 784.59 681.38 794.66 740.51 891.53 759.08 881.47 699.95 784.59"/><polygon class="cls-6" points="642.18 1037.48 646.76 1011 530.3 992.36 525.71 1018.85 642.18 1037.48"/><polygon class="cls-6" points="952.37 740.27 934.19 735.42 886.35 898.62 904.53 903.47 952.37 740.27"/><ellipse class="cls-6" cx="1097.28" cy="866.94" rx="46.7" ry="49.41" transform="translate(176.5 1919.45) rotate(-87.13)"/><ellipse class="cls-6" cx="688.99" cy="788.41" rx="19.46" ry="20.59" transform="translate(-132.92 1437.08) rotate(-87.13)"/><ellipse class="cls-6" cx="517.68" cy="1002.6" rx="32.67" ry="34.56" transform="translate(-509.58 1469.44) rotate(-87.13)"/><ellipse class="cls-6" cx="1830.52" cy="1038.54" rx="16.01" ry="16.94" transform="translate(-99.12 1878.7) rotate(-53.1)"/><path class="cls-6" d="M1724.17,1080H1487.65c35.44-32,82.82-46.79,130.43-43,5.76.45,11.53,1.17,17.27,2.18l.84.14a188,188,0,0,1,39.46,11.59,194.11,194.11,0,0,1,42.06,24.07Q1721,1077.4,1724.17,1080Z"/><polygon class="cls-6" points="1638.9 961.86 1621.61 960.17 1617.32 1053.44 1634.61 1055.13 1638.9 961.86"/><polygon class="cls-6" points="1485.91 1080 1453.55 1080 1424.35 1052.64 1423.35 1051.71 1412.27 1041.33 1424.99 1028.09 1427.59 1025.38 1429.33 1027.01 1440.44 1037.42 1448.91 1045.35 1480.28 1074.73 1485.91 1080"/><polygon class="cls-6" points="1831.38 1047.86 1824.6 1053.48 1792.57 1080 1768.31 1080 1814.45 1041.8 1821.23 1036.18 1831.38 1047.86"/><ellipse class="cls-6" cx="1629.67" cy="959.42" rx="16.01" ry="16.94" transform="translate(-116.09 1686.48) rotate(-53.1)"/><ellipse class="cls-6" cx="1414.27" cy="1026.55" rx="26.87" ry="28.43" transform="matrix(0.6, -0.8, 0.8, 0.6, -255.83, 1541.06)"/><path class="cls-4" d="M1268.59,297.32s0,0,0,0a52.73,52.73,0,0,0-6.13-12.9c-2.19-3.09-5-5.08-7.62-5.47a6.37,6.37,0,0,0-3.16.32,8.47,8.47,0,0,0-3.9,3.21l0,.05-4.09,8.14a4.78,4.78,0,0,0-3.12-1.46c-10.39-.21-38-.55-43.78,1.59-6.77,2.48-35.46,25.6-38.78,30.36l-7.18-3.06-.07,0a8.52,8.52,0,0,0-5,.08,6.5,6.5,0,0,0-2.62,1.8c-1.77,2-2.6,5.33-2.27,9.1a52.9,52.9,0,0,0,3.66,13.8.08.08,0,0,1,0,0,55.14,55.14,0,0,0,17.31,22.86,50.3,50.3,0,0,0,20.51,9.49,3.05,3.05,0,0,0,.67.52c2.51,1.29,34,6.07,45,2,10.46-3.84,32-26,33-31.33,0-.13,0-.28.07-.43a50.23,50.23,0,0,0,9.15-20A55.08,55.08,0,0,0,1268.59,297.32Zm-106.14,66.5A52.25,52.25,0,0,1,1146,342.14l0-.07a49.2,49.2,0,0,1-3.42-12.83c-.28-3.13.39-5.85,1.83-7.47a5,5,0,0,1,2.06-1.42,7,7,0,0,1,4.07-.1,1.13,1.13,0,0,1,.24.08l7.24,3.07c2.42,8.73,15.49,38.94,22.15,49.08A48.72,48.72,0,0,1,1162.45,363.82Zm106-38.87a48.79,48.79,0,0,1-7.4,17.35c-1-11.79-9.29-37.92-14.76-48.06a18.41,18.41,0,0,0-1.14-1.88l4.09-8.14a1.59,1.59,0,0,1,.13-.22,7.1,7.1,0,0,1,3.17-2.55,5.14,5.14,0,0,1,2.49-.26c2.15.31,4.42,2,6.23,4.52a49.36,49.36,0,0,1,5.69,12l0,.06A52.26,52.26,0,0,1,1268.41,325Z"/><path class="cls-7" d="M1167.91,331.1c7.74-6.14,20.67-15.79,37-21.32a120.6,120.6,0,0,1,38.75-6.46s-25.37,5.35-37.69,9.88-38,17.9-38,17.9Z"/><path class="cls-7" d="M1174.42,344.74q16.62-5.42,33.81-11.72,21.12-7.77,40.73-16.09s-23.28,12.83-36.12,17.1-38.42,10.71-38.42,10.71Z"/><path class="cls-7" d="M1181.81,359.89a77.83,77.83,0,0,0,40.46-4.09,78.67,78.67,0,0,0,32-23.62s-10,18.22-30.65,25.34-41.76,2.37-41.76,2.37Z"/><path class="cls-8" d="M1235.87,292.71c-10.89-.33-27.06.6-36.21,4-10.48,3.85-25.62,15.88-34.17,24.15"/><g class="cls-9"><g class="cls-10"><g class="cls-11"><polygon class="cls-12" points="1196.06 288.16 1206.98 308.97 1206.66 313 1214.3 330.66 1213.56 333.84 1223.08 355.45 1220.59 358.63 1229.01 380.57 1279.78 343.36 1274.45 313.24 1265.9 280.39 1249.86 273.35 1236.69 276.15 1218.29 282.9 1196.06 288.16"/></g></g></g><path class="cls-13" d="M797.84,686v1.64c0,7,4.64,14,13.87,19.41,18.57,10.79,48.78,10.79,67.48,0,9.41-5.43,14.11-12.56,14.09-19.68v-1.64c0,7.12-4.68,14.25-14.09,19.68-18.69,10.79-48.9,10.79-67.48,0C802.48,700,797.86,693,797.84,686Z"/><path class="cls-4" d="M811.92,666.3c-18.69,10.8-18.79,28.3-.22,39.09s48.79,10.79,67.48,0,18.8-28.29.23-39.09-48.79-10.79-67.49,0Z"/><path class="cls-14" d="M821.09,696.35c10.78,3.41,27.67,2,37.71-3.25s9.43-12.19-1.35-15.6-27.66-2-37.7,3.25-9.44,12.19,1.34,15.6Z"/><polygon class="cls-4" points="817.74 664.91 821.32 662.83 823.53 660.49 819.94 662.58 817.74 664.91 817.74 664.91"/><path class="cls-4" d="M808.31,643.53a10.42,10.42,0,0,0,2.07,5.79l9.56,13.26,3.59-2.09L814,647.24a10.44,10.44,0,0,1-2.07-5.79,3.42,3.42,0,0,1,1.43-3.13l-3.59,2.08a3.43,3.43,0,0,0-1.43,3.13Z"/><polygon class="cls-4" points="818.89 644.02 822.48 641.94 822.49 637.54 818.91 639.63 818.89 644.02 818.89 644.02"/><path class="cls-4" d="M807,635.74c1.58-.91,3.78-.79,6.19.61l5.69,3.28,3.58-2.09-5.68-3.28c-2.42-1.39-4.61-1.52-6.19-.6L807,635.74Z"/><path class="cls-13" d="M813.22,636.35c-4.8-2.77-8.72-.54-8.73,5a18.57,18.57,0,0,0,3.68,10.33l9.57,13.26,2.2-2.33-9.56-13.26a10.42,10.42,0,0,1-2.07-5.79c0-3.09,2.21-4.34,4.9-2.79l5.68,3.28,0-4.39-5.69-3.28Z"/><path class="cls-13" d="M879,650.75c0,18.47-8.69,45-33.44,45s-33.45-26.5-33.45-45Z"/><path class="cls-4" d="M821.91,665c13.06,7.54,34.23,7.54,47.29,0s13.07-19.76,0-27.3-34.23-7.55-47.29,0-13.06,19.76,0,27.3Z"/><path class="cls-13" d="M816.37,655.3l.15.33c1.29,2.91,3.9,5.65,7.83,7.92,11.71,6.76,30.7,6.76,42.41,0a25.23,25.23,0,0,0,2.8-1.87,15.88,15.88,0,0,0,5-6.07c0-.1.09-.2.14-.31,2.3-5.64-.35-11.83-8-16.23-11.71-6.76-30.7-6.76-42.41,0-7.62,4.4-10.28,10.58-8,16.23Z"/><path class="cls-15" d="M816.37,655.3l.15.33c1.29,2.91,3.9,5.65,7.83,7.92,11.71,6.76,30.7,6.76,42.41,0a25.23,25.23,0,0,0,2.8-1.87,15.88,15.88,0,0,0,5-6.07c0-.1.09-.2.14-.31-1.23-3-3.89-5.91-8-8.28-8.88-5.13-22-6.36-32.86-3.71a36.87,36.87,0,0,0-9.53,3.71c-4.09,2.37-6.76,5.25-8,8.28Z"/><path class="cls-16" d="M851,646.26a2.25,2.25,0,0,0,2.05,0,.62.62,0,0,0,0-1.18,2.25,2.25,0,0,0-2.05,0c-.57.33-.57.86,0,1.18Z"/><path class="cls-16" d="M851.34,650.5a5.4,5.4,0,0,0,4.89,0c1.35-.77,1.35-2,0-2.81a5.4,5.4,0,0,0-4.89,0c-1.35.77-1.35,2,0,2.81Z"/><path class="cls-16" d="M858.71,647a.78.78,0,0,0,.7,0c.19-.12.19-.3,0-.41a.78.78,0,0,0-.7,0c-.19.11-.19.29,0,.41Z"/><path class="cls-16" d="M859.08,651.45a1.06,1.06,0,0,0,.92,0,.28.28,0,0,0,0-.53,1,1,0,0,0-.92,0,.28.28,0,0,0,0,.53Z"/><path class="cls-16" d="M861.8,649.57a3.14,3.14,0,0,0,2.83,0,.87.87,0,0,0,0-1.64,3.14,3.14,0,0,0-2.83,0,.87.87,0,0,0,0,1.64Z"/><path class="cls-16" d="M864.48,652a.64.64,0,0,0,.63,0c.18-.1.18-.26,0-.36a.7.7,0,0,0-.63,0c-.18.1-.18.26,0,.36Z"/><path class="cls-16" d="M864.56,656.87a4.3,4.3,0,0,0,3.92,0,1.19,1.19,0,0,0,0-2.26,4.3,4.3,0,0,0-3.92,0,1.19,1.19,0,0,0,0,2.26Z"/><path class="cls-16" d="M859.79,654a1.67,1.67,0,0,0,1.51,0c.42-.24.42-.63,0-.88a1.67,1.67,0,0,0-1.51,0c-.42.25-.42.64,0,.88Z"/><path class="cls-16" d="M852.67,652.76a.47.47,0,0,0,.4,0,.12.12,0,0,0,0-.23.47.47,0,0,0-.4,0,.12.12,0,0,0,0,.23Z"/><path class="cls-16" d="M844.73,644.88a.76.76,0,0,0,.66,0c.18-.11.18-.28,0-.38a.7.7,0,0,0-.66,0c-.18.1-.18.27,0,.38Z"/><path class="cls-16" d="M868.55,652.31a1.89,1.89,0,0,0,1.7,0c.47-.28.47-.72,0-1a1.89,1.89,0,0,0-1.7,0c-.47.27-.47.71,0,1Z"/><path class="cls-16" d="M871.9,656a.72.72,0,0,0,.64,0c.17-.11.17-.27,0-.37a.72.72,0,0,0-.64,0c-.17.1-.17.26,0,.37Z"/><path class="cls-16" d="M868.59,658.93a1.36,1.36,0,0,0,1.18,0,.36.36,0,0,0,0-.68,1.29,1.29,0,0,0-1.18,0c-.33.18-.33.49,0,.68Z"/><path class="cls-17" d="M816.37,655.3l.15.33c1.29,2.91,3.9,5.65,7.83,7.92,11.71,6.76,30.7,6.76,42.41,0a25.23,25.23,0,0,0,2.8-1.87,23.47,23.47,0,0,1-2.81-.95c-1.61-.74-2.18-2.09-3.39-3.05a11.46,11.46,0,0,0-6.06-2.15c-1.38-.11-2.82,0-4.16-.26-4.86-.82-5-5-6.28-7.28-.91-1.72-3.07-3.21-5.85-4l-.56-.16h0a18.14,18.14,0,0,0-6.55-.48,36.87,36.87,0,0,0-9.53,3.71c-4.09,2.37-6.76,5.25-8,8.28Z"/><g class="cls-18"><path class="cls-19" d="M1428.48,647.61h-42.42v-90a4.44,4.44,0,0,1,4.45-4.4h0a4.42,4.42,0,0,1,4.4,4.4v29.68h1.73v-34.6a4.45,4.45,0,0,1,4.41-4.45h0a4.48,4.48,0,0,1,4.44,4.45v34.6h1.74V548.4a4.39,4.39,0,0,1,4.4-4.4h0a4.4,4.4,0,0,1,4.4,4.4v38.86h1.73V555.7a4.47,4.47,0,0,1,4.45-4.44h0a4.43,4.43,0,0,1,4.4,4.44v38.91c2.62-2.86,5.19-5.71,7.82-8.52,5.33-5.39,11.56.56,7.11,6.69-13.53,19.39-14.28,32-13.06,54.83Z"/></g><path class="cls-20" d="M1428.48,647.61h-42.42V641c32.78,6.65,30.39-5.43,48.74-37.13h0c-7,13.86-7.3,25.61-6.32,43.78Z"/><path class="cls-19" d="M1428.53,652.2H1386a2.26,2.26,0,0,1-2.25-2.3h0a2.26,2.26,0,0,1,2.25-2.29h42.51a2.29,2.29,0,0,1,2.24,2.29h0a2.3,2.3,0,0,1-2.24,2.3Z"/><path class="cls-21" d="M1390.93,609.22h0a1.43,1.43,0,0,0-1.4,1.4v25a1.4,1.4,0,0,0,1.4,1.36h0a1.36,1.36,0,0,0,1.36-1.36v-25a1.4,1.4,0,0,0-1.36-1.4Z"/><g class="cls-18"><path class="cls-21" d="M1390.93,606.59h0a1.39,1.39,0,0,1-1.4-1.35v-3.42a1.44,1.44,0,0,1,1.4-1.41h0a1.41,1.41,0,0,1,1.36,1.41v3.42a1.35,1.35,0,0,1-1.36,1.35Z"/><path class="cls-19" d="M1339,661.56h42.42v-90a4.43,4.43,0,0,0-4.45-4.4h0a4.42,4.42,0,0,0-4.4,4.4v29.68h-1.73v-34.6a4.4,4.4,0,0,0-4.4-4.4h0a4.44,4.44,0,0,0-4.45,4.4v34.6h-1.73V562.4a4.44,4.44,0,0,0-4.4-4.45h0a4.43,4.43,0,0,0-4.4,4.45v38.81h-1.74V569.66a4.44,4.44,0,0,0-4.44-4.41h0a4.4,4.4,0,0,0-4.4,4.41v38.9c-2.63-2.81-5.2-5.66-7.82-8.52-5.34-5.38-11.57.56-7.12,6.74,13.53,19.34,14.28,32,13.06,54.78Z"/></g><path class="cls-20" d="M1339,661.56h42.42V655c-32.77,6.6-30.39-5.48-48.74-37.18h0c7,13.86,7.31,25.61,6.32,43.78Z"/><path class="cls-19" d="M1339,666.15h42.51a2.3,2.3,0,0,0,2.29-2.3h0a2.3,2.3,0,0,0-2.29-2.29H1339a2.29,2.29,0,0,0-2.25,2.29h0a2.29,2.29,0,0,0,2.25,2.3Z"/><path class="cls-21" d="M1376.56,623.22h0a1.39,1.39,0,0,1,1.4,1.35v25a1.4,1.4,0,0,1-1.4,1.4h0a1.36,1.36,0,0,1-1.36-1.4v-25a1.35,1.35,0,0,1,1.36-1.35Z"/><path class="cls-21" d="M1376.56,620.59h0a1.43,1.43,0,0,0,1.4-1.4v-3.42a1.4,1.4,0,0,0-1.4-1.36h0a1.36,1.36,0,0,0-1.36,1.36v3.42a1.4,1.4,0,0,0,1.36,1.4Z"/><ellipse class="cls-6" cx="201.56" cy="708.17" rx="19.46" ry="20.59" transform="translate(-515.81 874.03) rotate(-87.13)"/><path class="cls-6" d="M325.47,1043.9a201.16,201.16,0,0,1-5.1,36.1H0V844q2.66-1.28,5.34-2.48a232.9,232.9,0,0,1,107.34-20,237,237,0,0,1,44,6.35q9.21,2.22,18.09,5.15a226.76,226.76,0,0,1,88.61,54A215.26,215.26,0,0,1,289.93,919a208.31,208.31,0,0,1,24,46.91q3.31,9.27,5.74,18.88A200.52,200.52,0,0,1,325.47,1043.9Z"/><polygon class="cls-6" points="344.55 872.29 315.81 842.27 228.5 916.88 257.24 946.9 344.55 872.29"/><polygon class="cls-6" points="15.49 858.17 0 866.56 0 832.79 5.34 841.55 15.49 858.17"/><polygon class="cls-6" points="309.96 1080 241.67 1080 246.62 1063.09 309.96 1080"/><polygon class="cls-6" points="208.78 716.97 190.6 712.12 142.76 875.32 160.94 880.17 208.78 716.97"/><ellipse class="cls-6" cx="353.69" cy="843.64" rx="46.7" ry="49.41" transform="translate(-506.6 1154.66) rotate(-87.13)"/><ellipse class="cls-5" cx="393.09" cy="778.18" rx="21.92" ry="20.72" transform="translate(-301.86 251.75) rotate(-26.06)"/><path class="cls-5" d="M699.16,1080H240.69a234.87,234.87,0,0,1,25.59-57.9q5.87-9.57,12.66-18.63a243.05,243.05,0,0,1,18.25-21.58q7.92-8.34,16.72-16a253.26,253.26,0,0,1,99-53q9.72-2.67,19.51-4.51a241.3,241.3,0,0,1,110.37,4.7,229.1,229.1,0,0,1,41.17,16,219.49,219.49,0,0,1,56.81,41.06,213.6,213.6,0,0,1,40.62,57c.63,1.29,1.24,2.58,1.84,3.87A212.76,212.76,0,0,1,696,1066.22Q697.82,1073.07,699.16,1080Z"/><polygon class="cls-5" points="610.82 857.48 568.58 844.3 525.65 958.77 567.89 971.95 610.82 857.48"/><polygon class="cls-5" points="191.99 953.92 179.87 972.86 284.84 1032.68 296.96 1013.74 191.99 953.92"/><polygon class="cls-5" points="788.64 1066.37 778.54 1068.88 778.53 1068.88 733.88 1080 640.63 1080 695.97 1066.22 774.35 1046.71 783.73 1044.38 788.64 1066.37"/><polygon class="cls-5" points="404.35 782.66 384.92 787.5 424.36 964.19 443.8 959.36 404.35 782.66"/><ellipse class="cls-5" cx="794.37" cy="1053.89" rx="21.92" ry="20.72" transform="translate(-382.18 456.03) rotate(-26.06)"/><ellipse class="cls-5" cx="604.59" cy="826.08" rx="52.6" ry="49.72" transform="translate(-301.4 349.51) rotate(-26.06)"/><ellipse class="cls-5" cx="183.74" cy="963.12" rx="21.92" ry="20.72" transform="translate(-404.37 178.59) rotate(-26.06)"/><rect class="cls-1" width="1920" height="1080"/><path class="cls-4" d="M1773.58,411.11a25.33,25.33,0,0,0,3.21,1.55c.29.12.57.23.86.33.14.06.28.1.42.15l.77.26.37.11.46.13.45.12.88.22h.13l.09,0,.44.1a28.09,28.09,0,0,0,2.82.4l.42,0a26.62,26.62,0,0,0,4.53-.05h0l.56-.06,0-.65c0-.43-.06-.88-.12-1.36v-.05q-.06-.51-.15-1.05c0-.16,0-.33-.08-.49a24.6,24.6,0,0,0-1.81-5.85c-.28-.64-.59-1.23-.9-1.79l-.12-.22c-.19-.33-.38-.65-.57-.95a4,4,0,0,0-.22-.34c-.24-.37-.48-.72-.71-1l-.37-.5-.17-.21a21.33,21.33,0,0,0-11.17,11.16Z"/><path class="cls-22" d="M1691.25,991.88q-5.61,16.22-11.21,32.45l33,15.38q9.74-15.84,19.46-31.69Z"/><path class="cls-22" d="M1495.25,847.77l-33.59-7.13q-5.6,17.31-11.2,34.61l32.57,17.3Q1489.15,870.16,1495.25,847.77Z"/><path class="cls-22" d="M1607.06,592.68l-79.51,45.91c-2.59-.54-12.59-2.34-22.12,3.56a25.77,25.77,0,0,0-10.64,12,24.65,24.65,0,0,0-.15,18.5c4.2,10.1,14,13.29,16.29,14,12.36,4,22.7-2.3,23.86-3a29.29,29.29,0,0,0,12.73-18.9l76.68-34.9Q1615.62,611.27,1607.06,592.68Z"/><path class="cls-22" d="M1828.12,607.64c2.83,6.35,12.72,26.34,33.64,33a45.92,45.92,0,0,0,10.7,2,20.36,20.36,0,0,0,2.51-2.41,19.6,19.6,0,0,0,2.6-3.81,25.8,25.8,0,0,1-8.43-6.3c-.57-.66-11.07-13-5.26-26a22.65,22.65,0,0,1,17-12.93c12.53-1.89,22.53,8.49,26.57,16.28,3.24,6.25,3.18,11.9,3.11,19.37-.15,14.28-5.56,26.08-7.49,30.19-.26.56-.41.88-.66,1.37-7.05,14-19.35,20.45-26.44,24a75.72,75.72,0,0,1-17.15,6.18A136.16,136.16,0,0,1,1783,638Z"/><path class="cls-5" d="M1752.76,748l34.44,137.87c-7.64,20.5-16.38,42-26.39,64.21-12.1,26.9-24.63,51.7-37.09,74.39l-36.5-22.18,35.91-121.47c-6.37-5.7-12.94-12-19.53-19.08a308.12,308.12,0,0,1-35.08-45.29,633.94,633.94,0,0,1-28.06,59.64c-7.78,14.52-15.72,28-23.58,40.34a337.36,337.36,0,0,1-146.73-27.24l12.87-44,85.13,12.53q2.53-58.77,5.08-117.54Z"/><path class="cls-22" d="M1793.25,404a95.07,95.07,0,0,0,6.1,11.19h0c1.46,2,4.37,5.81,8.15,11.19,2.76,3.94,3.35,5,3,6.11-1,3.83-11.15,4-13.23,4.07l4.24,12.46a5.57,5.57,0,0,1-1.19,3.83,5.65,5.65,0,0,1-4.07,2c1.28.41,4.24,1.53,5.09,4.07a5.31,5.31,0,0,1,0,3.06c-3.68,14.15-5.53,21.23-9.1,24.49-4.93,4.49-17.24,2.69-41.86-.92-9.78-1.44-17.25-3-24.65-8.46a52.34,52.34,0,0,1-8.45-8.44c-12.49-14.85-15.42-31-16.47-37.17-1.8-10.64-5.7-33.72,7.6-51.94,20-27.37,67.74-28.7,77.66-14.26C1792.09,374,1789.79,396.29,1793.25,404Z"/><path class="cls-23" d="M1689.66,457.92c0-3.23-.13-23-15.26-35.63-20.29-16.89-48.16-4.76-51.92-3.05-22.75,10.34-30.25,32.54-31.55,36.64l-30.54,94.66a132.47,132.47,0,0,0-2.77,39.54c1.17,14.46,2.43,32.32,12.44,44.65,14.54,17.91,45.39,21.69,76.85,12.51Q1650,633,1653,618.74a311.94,311.94,0,0,0,54.27,6.84c29.49,1.08,47.09-2.55,52.61-3.78,7.62-1.7,11.43-2.55,15.78-4.5,17.73-7.95,31.86-25.92,35.54-43.69,8.62-41.6-37.83-75-42.16-78-35-24.41-74-18.09-83.47-16.29Q1687.63,468.61,1689.66,457.92Z"/><path class="cls-4" d="M1681.08,496.19q-12,51.1-24,102.19a258.08,258.08,0,0,0,30.58,5.4c23.52,2.72,36.35,4.24,50.5-1.46,5.24-2.12,23.51-9.48,30-27.08,9.48-25.7-14-51.8-16.84-54.9C1726,492.21,1686.65,495.62,1681.08,496.19Z"/><path class="cls-24" d="M1835.22,608.56l-52.45,35.5q-17.55-22.83-35.09-45.68a78.16,78.16,0,0,1-15.26,6.11c-16.11,4.55-29.71,2.74-48.86,0a283.63,283.63,0,0,1-30.54-6.11l27.48-102.8a131.5,131.5,0,0,1,37.67,4.07c37.82,9.81,61,34.34,77,51.25A235.8,235.8,0,0,1,1835.22,608.56Z"/><path class="cls-22" d="M1706,451.81l-20.36,27.48a114.39,114.39,0,0,1,69.22,8.14l1-1A114.5,114.5,0,0,1,1706,451.81Z"/><path class="cls-24" d="M1756.06,622.39l6.33,132.94c-1.5.25-3.92.63-6.89,1-26.38,3.57-47.64,1.79-102.48-6.31-29.33-4.33-40.14-6.32-60-7.13-11.41-.46-20.79-.34-27-.16q6.57-24.62,13.61-49.72,6.33-22.53,12.79-44.55a101.69,101.69,0,0,0,33.12,2.82,100.43,100.43,0,0,0,21.37-4.07Q1650,633,1653,618.74a283.68,283.68,0,0,0,103,3.65Z"/><path class="cls-17" d="M1812.83,324.57a110.06,110.06,0,0,0,17-3.13c.21,25.33-7.66,44.74-16.75,50.65a39.74,39.74,0,0,1-11.69,5,32.59,32.59,0,0,1-14.22.18c-4.56-1-6.33-2.55-12.59-3.58a35,35,0,0,0-5.75-.61c-4.1,0-23-.2-30.5,13-5.89,10.39-1,22.53,0,25l-7,7.29a73.17,73.17,0,0,0-4-9.29c-4.58-8.87-7.67-14.84-13-15.5-4.55-.56-9.42,2.9-11.5,7-2.62,5.15-.47,10.52,1,14.08,2.57,6.43,5.06,5.5,7,10.75,2.23,6,.77,12-1.48,21.39-.8,3.34-1.67,6-2.3,7.88-3.5-3.52-8.1-8.4-13.14-14.53a155.66,155.66,0,0,1-14.5-20.16c-4.29-7.19-7.33-12.29-9.5-20-1.77-6.2-3.69-13-1.88-21.31.79-3.67,3.27-15.11,13.32-19.63a22.42,22.42,0,0,1,14.5-1,45,45,0,0,1,9.5-23c11.94-14.63,30.23-16.34,36.3-16.91,8-.76,5.64,1,39,5.14C1793.92,325,1802.27,325.66,1812.83,324.57Z"/><path class="cls-17" d="M1757.73,1080h-31.85q-18-8.3-36-16.63l-31.65-14.62-.09,0,.1-.17v0c.3-.61.62-1.22.94-1.83a100.14,100.14,0,0,1,22.43-28.06l.29.34a37.44,37.44,0,0,0,36.27,12.33h0l1.1-.25a86.47,86.47,0,0,1,20.26,12.84c7.64,6.49,14.09,12,17,21.25A33.71,33.71,0,0,1,1757.73,1080Z"/><path class="cls-25" d="M1668.52,816.41,1680.79,788q1.35,25,2.69,49.94-4-5.26-8.1-11.14Q1671.74,821.47,1668.52,816.41Z"/><path class="cls-25" d="M1689.66,457.92a41.58,41.58,0,0,0-7.12-20.36,40,40,0,0,0-13.23-12.22c-9.89-5.42-19.43-4.59-25.45-4.07-4.35.38-20.77,2.05-34.61,15.27-7.87,7.53-11.21,15.29-14.25,22.39-3.47,8.12-5.21,12.18-4.07,16.29,3.13,11.27,24.47,19.88,39.7,12.21,11-5.55,14.51-17.47,15.27-20.35,0,2.46,0,12-7.13,19.34-4.55,4.67-9.76,6.14-13.23,7.12a38.64,38.64,0,0,1-23.41-1c-4.4-1.59-17.18-6.22-19.34-16.28-1-4.41.72-8.37,4.07-16.29a80.66,80.66,0,0,1,10.18-17.3c6-8.08,9-12.12,14.25-16.29a61.06,61.06,0,0,1,29.52-12.21c5.42-.7,12.13-1.57,20.35,1a40.94,40.94,0,0,1,19.34,13.23C1690.38,440.57,1689.89,454.43,1689.66,457.92Z"/><rect class="cls-1" width="1920" height="1080"/><path class="cls-4" d="M1773.48,409.17a26.29,26.29,0,0,0,3.27,1.58l.87.34.43.15.78.26.38.11.47.14.46.12.89.22h.07l.07,0h.08l.45.1a26.77,26.77,0,0,0,2.87.41l.43,0a27.69,27.69,0,0,0,4.62-.05h0l.57-.06c0-.21,0-.43,0-.67q0-.64-.12-1.38v0c0-.34-.09-.7-.15-1.07,0-.16-.05-.33-.08-.5A25.59,25.59,0,0,0,1788,403c-.3-.65-.6-1.25-.92-1.82l-.12-.22c-.2-.34-.39-.67-.59-1l-.21-.35c-.25-.37-.5-.73-.74-1.06l-.37-.5-.17-.22a21.79,21.79,0,0,0-11.37,11.36Z"/><path class="cls-26" d="M1790.16,411.9q0-.64-.12-1.38v0h-.14a6,6,0,0,1-5.87-3.54h0c0-.05,0-.1-.07-.16s0-.07,0-.11a2.44,2.44,0,0,1-.1-.24,1.21,1.21,0,0,1,0-.18h0a3.45,3.45,0,0,1-.12-.46,6,6,0,0,1,2-5.8c.16-.13.32-.26.5-.38-.25-.37-.5-.73-.74-1.06l-.37-.5c-.46.17-.68.58-1.1,1.39a7.59,7.59,0,0,0-.73,2.3,11.74,11.74,0,0,0-.22,1.81,13,13,0,0,0,.07,2,8.32,8.32,0,0,0,.73,2.14,9.06,9.06,0,0,0,1.37,2c.71.8,2.58,2.89,4.42,3h.3l.33-.05C1790.18,412.36,1790.17,412.14,1790.16,411.9Z"/><path class="cls-27" d="M1790,410.52v0c0-.34-.09-.7-.15-1.07,0-.16-.05-.33-.08-.5a4.42,4.42,0,0,1-4.09-3,4.68,4.68,0,0,1-.21-1,4.38,4.38,0,0,1,.31-2,4.2,4.2,0,0,1,.8-1.27,4.26,4.26,0,0,1,.43-.42l-.12-.22c-.2-.34-.39-.67-.59-1l-.21-.35c-.25-.37-.5-.73-.74-1.06l-.09.06c-.94.61-1.25,1.69-1.56,3.26a12.8,12.8,0,0,0-.25,2.89c0,.3.07.59.1.89s.1.37.18.6h0q.06.19.15.42s0,.07,0,.11,0,.11.07.16h0a7.57,7.57,0,0,0,2.49,3.28,7.09,7.09,0,0,0,1.6,1.12,5.63,5.63,0,0,0,2,.56Q1790.13,411.26,1790,410.52Z"/><path class="cls-28" d="M1785.32,406.13a6.65,6.65,0,0,0,4.58,4.35l.14,0v0c0-.34-.09-.7-.15-1.07,0-.16-.05-.33-.08-.5A25.59,25.59,0,0,0,1788,403c-.3-.65-.6-1.25-.92-1.82l-.12-.22c-.2-.34-.39-.67-.59-1a6.64,6.64,0,0,0-1.22,5.45h0A6.21,6.21,0,0,0,1785.32,406.13Z"/><path d="M1786.06,405.91a6.29,6.29,0,0,0,1.2,2.11,3.61,3.61,0,0,0,2.63,1.38c0-.16-.05-.33-.08-.5A25.59,25.59,0,0,0,1788,403c-.3-.65-.6-1.25-.92-1.82l-.12-.22a3.19,3.19,0,0,0-1.11,1.91h0A5.86,5.86,0,0,0,1786.06,405.91Z"/><path class="cls-17" d="M1791.21,392.77l-.36-4.79a34.79,34.79,0,0,0-3.54,0,24.5,24.5,0,0,0-6.27,1c-4.76,1.56-7.56,5.33-9,7.21a23.69,23.69,0,0,0-2.63,4.51,32.2,32.2,0,0,1,9.37-5.31,51.48,51.48,0,0,1,8.79-2.09C1789.09,393,1790.33,392.87,1791.21,392.77Z"/><path class="cls-29" d="M1701.55,361.65c4.29-11.59,10.94-17.67,14.51-20.42,14.3-11,32.3-9.52,40-8.88,10.34.87,11.17,3.18,25.07,4.21,8.54.63,15.5,1.15,23.83-.93a55.27,55.27,0,0,0,24.88-14.19,91,91,0,0,1-22.34,3.26c-11.63.23-17.42-1.93-34.7-4.34-15.27-2.13-22.91-3.2-29.08-2.64-6.76.61-27,2.46-39.25,18.5a44.81,44.81,0,0,0-8.62,21.89,12.85,12.85,0,0,1,3.46,1.65A13.62,13.62,0,0,1,1701.55,361.65Z"/><path class="cls-30" d="M1705,365.19a50.38,50.38,0,0,1,18.15-16.78c1.72-.92,15.92-8.28,32.24-5.45,4.44.77,8.11,2.13,17.5,3.48a100.34,100.34,0,0,0,11.63,1.2c3.72.1,13.8.38,23.38-3.84,13.21-5.82,19.68-17.62,21.95-22.36a51,51,0,0,1-20.62,12.91c-13.65,4.35-27.44,1.79-35.26.34-5.6-1.05-11.61-2.71-21.91-3.45a69.46,69.46,0,0,0-10-.32c-18.24,1.29-30.25,14.11-31.16,15.11a46.43,46.43,0,0,0-9.31,15.62c.6.52,1.22,1.1,1.86,1.76S1704.54,364.62,1705,365.19Z"/><path class="cls-17" d="M1708.06,368.75a51.81,51.81,0,0,1,18.33-12.93c12.06-5,23.25-4,27.89-3.56,6,.59,6.71,1.56,17.78,3,7.63,1,11.45,1.47,15.94,1.28,2.76-.12,13-.56,22.33-6.12,14.65-8.72,18.67-25,19.53-29-6.21,13.27-15,18.77-18.7,20.74-13.21,7.06-28.16,4.87-33.55,4.08-5.57-.81-10.69-2.36-21.92-3.44a85.78,85.78,0,0,0-10.65-.7c-16,.6-27.23,9.46-30,11.79a50.85,50.85,0,0,0-10,11.28c.54.58,1.08,1.2,1.64,1.84S1707.62,368.19,1708.06,368.75Z"/><path class="cls-29" d="M1711.31,373.55a77.73,77.73,0,0,1,21.78-10.74,75.67,75.67,0,0,1,19.92-3.4,62.19,62.19,0,0,1,20.5,2.3c8.22,2.44,10,5.06,17.14,5.51a30.65,30.65,0,0,0,12.55-1.84c7.87-3,12.12-8.95,15.61-13.93a65.34,65.34,0,0,0,11-30c-.93,4.2-5,20.11-19.53,29-11.47,7-24,6.26-26.09,6.12-6.9-.49-9.68-2.44-22.49-3.82a90.68,90.68,0,0,0-13.24-.83c-6.14.16-17.16.56-28.38,7.06a50.43,50.43,0,0,0-12.07,9.81,16.7,16.7,0,0,1,3.25,4.8Z"/><path class="cls-30" d="M1714.69,384.67a65.08,65.08,0,0,1,20.16-9.77,71.64,71.64,0,0,1,19.06-2.53,63.54,63.54,0,0,1,16.12,1.11c6.1,1.3,9.46,3.1,17.74,4.12a42.5,42.5,0,0,0,6.39.4,37.66,37.66,0,0,0,12.83-2.73,36.41,36.41,0,0,0,8.63-4.86c6.87-5.45,9-13.3,11.36-22.66a96.53,96.53,0,0,0,2.88-26.31,60.51,60.51,0,0,1-6.72,22.79c-2.56,4.82-5.25,10-11,14.41a36.18,36.18,0,0,1-22.85,7c-7.38-.35-7.62-2.86-19.52-4.93a78.26,78.26,0,0,0-16.72-1.32,76.71,76.71,0,0,0-24.82,5.1,77.89,77.89,0,0,0-16.88,9,29.27,29.27,0,0,1,3.38,11.12Z"/><path class="cls-17" d="M1401.62,921.33q1.91-5.34,3.79-10.68,9.6-27.95,19.23-55.89,5.65-16.49,11.34-33a.32.32,0,0,0,0-.09l.19.08h0c.63.24,1.27.5,1.9.76A99.89,99.89,0,0,1,1468.31,842a37.44,37.44,0,0,0-8.54,38.73A86.94,86.94,0,0,1,1449,902.2c-5.69,8.26-10.49,15.23-19.41,19.1C1417.9,926.38,1406.25,923,1401.62,921.33Z"/><path class="cls-31" d="M1801.11,448.35a3.25,3.25,0,0,0-2.42-.52,7.19,7.19,0,0,0-3.26,1.46c-2.39,1.52-2.44,1.75-4,2.69a36.61,36.61,0,0,1-3.68,1.9c-1.11.52-2.07.92-2.82,1.21,2,1.21,4.3,2.42,6.76,3.6a90.82,90.82,0,0,0,9.53,3.9,5.9,5.9,0,0,0,.16-3.66,6.46,6.46,0,0,0-1.77-2.74,8.41,8.41,0,0,0-2.09-1.51c.57-.18,1.17-.4,1.79-.66a23.13,23.13,0,0,0,2.87-1.46,5.1,5.1,0,0,0-.2-2.85A2.83,2.83,0,0,0,1801.11,448.35Z"/><path class="cls-32" d="M1784.94,455.09a44.12,44.12,0,0,0,7.18,4.29,44.81,44.81,0,0,0,9.11,3.2,5.6,5.6,0,0,0,.27-4,5.5,5.5,0,0,0-1.07-1.82,7.11,7.11,0,0,0-2.9-2.07l-4,.14Z"/><path class="cls-30" d="M1702.81,362.81a30.29,30.29,0,0,0-15,1.27,31.09,31.09,0,0,0-11.46,7.25,35.74,35.74,0,0,0-9.06,14.33,34.74,34.74,0,0,1,1.23-9.75c.93-3.37,2.77-10,8.71-14.48a20.11,20.11,0,0,1,12.85-4.08,23.93,23.93,0,0,1,5.76.76,16.26,16.26,0,0,1,6.94,4.7Z"/><path class="cls-29" d="M1707,367.41a33.59,33.59,0,0,0-16.69,2.73A31.79,31.79,0,0,0,1671.56,405a51.38,51.38,0,0,1-4.12-16.67q-.09-1.35-.12-2.64a36.79,36.79,0,0,1,3.38-7.25,35.73,35.73,0,0,1,8.19-9.31,32.13,32.13,0,0,1,6.19-3.89,30.09,30.09,0,0,1,17.73-2.4c.73.77,1.46,1.57,2.2,2.38Z"/><path class="cls-17" d="M1711.71,374.32a29.83,29.83,0,0,0-19.67,3.27,27.43,27.43,0,0,0-11.45,12.13c-2.06,4.45-2.23,8.29-2.37,12.16a55.28,55.28,0,0,0,4.2,22.92,115.2,115.2,0,0,1-7.15-12c-1.41-2.72-2.64-5.35-3.71-7.87a32.82,32.82,0,0,1,2.31-18.63,32.19,32.19,0,0,1,6.59-9.49,33,33,0,0,1,15.26-8.58,33.68,33.68,0,0,1,11.25-.86,24.49,24.49,0,0,1,2.41,2.88A24.17,24.17,0,0,1,1711.71,374.32Z"/><path class="cls-29" d="M1714.69,384.67c-1.22-.56-10-4.47-18.19,0-5.46,3-7.64,8.1-8.55,10.34-1,2.54-2.89,8.31,1.36,25.36a147.47,147.47,0,0,0,8.3,24.14,170.54,170.54,0,0,1-11.09-13.8c-1.45-2-2.81-4-4.1-5.92a41.74,41.74,0,0,1-4.23-20.6c.22-3.94.7-10.82,5.36-17.53a27.12,27.12,0,0,1,16.63-11.32,36.28,36.28,0,0,1,11.53-1,28.69,28.69,0,0,1,2,5.21A29.58,29.58,0,0,1,1714.69,384.67Z"/><path class="cls-30" d="M1714.69,384.67a21.06,21.06,0,0,0-11.53-2,18,18,0,0,0-7.68,2.54c-6,3.75-7.78,10.3-8.35,12.44-1.18,4.45-.6,8.2.6,15.53a118,118,0,0,0,6.75,23.74c1.23,3.22,2.35,5.84,3.13,7.62q2.07,2.4,4.34,4.84c1.72,1.87,3.43,3.64,5.12,5.34.44-1.3.88-2.66,1.29-4.08.62-2.11,1.13-4.14,1.55-6.07-1.74-2.8-4.18-6.8-7-11.66-5-8.48-5.6-10-5.95-11-1.26-3.43-3.67-10.46-1.21-18.16a15.2,15.2,0,0,1,4.32-7.33c6-5.26,15-2.71,16.18-2.36-.19-1.53-.42-3.11-.68-4.73S1715,386.17,1714.69,384.67Z"/><path d="M1784.85,397.81a23.12,23.12,0,0,0-9.81,8.39,21.93,21.93,0,0,0-1.56,3,25.84,25.84,0,0,0,2.58,1.29,28.67,28.67,0,0,0,14.13,2.11,26.85,26.85,0,0,1-14-1.22,25,25,0,0,1-3.91-1.87,22.09,22.09,0,0,1,1.74-3.07A24.31,24.31,0,0,1,1784.85,397.81Z"/><path class="cls-25" d="M1749.83,757.05l30.81,129.15c-8.05,21.88-17.18,44.78-27.56,68.48-10.59,24.19-21.45,46.85-32.29,68l2.93,1.78c11.45-20.86,23-43.57,34.24-68.12s20.92-48.16,29.24-70.48q-16.17-64.68-32.32-129.38l-2.1.26C1751.79,756.84,1750.8,757,1749.83,757.05Z"/><path class="cls-33" d="M1756.06,622.39l-2.32.33q.78,24.75.85,50.62.11,43.18-1.81,83.37,3-.36,6.12-.83c1.18-.18,2.35-.36,3.49-.55q-2.13-43.4-4.18-86.78Q1757.12,645.46,1756.06,622.39Z"/><path class="cls-33" d="M1680.5,495.58,1653,598.38q2.43.63,4.94,1.23,3.29.78,6.47,1.46,10.62-52.79,21.23-105.58l-2.57,0C1682.21,495.52,1681.35,495.55,1680.5,495.58Z"/><path class="cls-33" d="M1653,618.74q-3,14.25-6.11,28.5c1.86-.52,3.83-1.14,5.87-1.89,1.35-.49,2.63-1,3.85-1.51q1.8-11.8,3.59-23.6Z"/><path class="cls-34" d="M1786,641.89l3-2a160.22,160.22,0,0,0,69.7,44.65,81,81,0,0,0,34.58-13.69,79.48,79.48,0,0,1-34.47,17.83A136.1,136.1,0,0,1,1786,641.89Z"/><path class="cls-34" d="M1547.52,664.75l6.22-3.7,28-16.63,5,2.48Z"/><path class="cls-34" d="M1705.21,452.81a174.87,174.87,0,0,0-8.32,16.67c-1.27,2.93-2.42,5.8-3.45,8.58l-7.85,1.23Z"/><path class="cls-34" d="M1778.9,489.06c-3.92-.48-8.12-1.14-12.54-2s-8.61-1.92-12.44-3l-2.33,2,3.3,1.32,1-1,4.46.64c4.39.61,7.07,1,10.22,1.34C1772.61,488.56,1775.45,488.84,1778.9,489.06Z"/></g></g></g></svg>