<svg xmlns="http://www.w3.org/2000/svg" viewBox="0 0 598.61 485.46"><defs><style>.cls-1{fill:#4fad32;stroke:#449039;stroke-miterlimit:10;}.cls-2{fill:#80bd5f;}.cls-3{fill:#a01d2b;}</style></defs><g id="Layer_2" data-name="Layer 2"><g id="Layer_1-2" data-name="Layer 1"><path class="cls-1" d="M18.55,459.71c-8.47-3.53-13.29-.08-16.32-3.7-2.85-3.38-2.06-10.48,1.5-13.95,4.57-4.46,11.51-.78,14.26-4.84,2-3-1.24-5.81-.44-12.4.61-5,3.55-12.17,8.4-13.21,6-1.29,12.73,6.58,15.58,11.95,2.74,5.18,1.74,7.74,4.41,9.46,4.49,2.91,9.41-3,17-1.89,8.88,1.26,16.7,11.3,14.92,15.93s-12.33.5-18.71,7.42c-5.31,5.75-.86,11.76-6.31,20.18-4.74,7.33-14.12,12.09-18.2,9.66-3.7-2.21-.15-8.62-5.14-16A25.34,25.34,0,0,0,18.55,459.71Z"/><ellipse class="cls-2" cx="18.76" cy="446.56" rx="5.43" ry="3.96"/><ellipse class="cls-2" cx="61.78" cy="435.88" rx="5.43" ry="3.96"/><ellipse class="cls-2" cx="22.82" cy="421.5" rx="5.43" ry="3.96" transform="translate(-392 343.36) rotate(-76.23)"/><ellipse class="cls-2" cx="48.62" cy="442.07" rx="2.61" ry="3.57" transform="translate(-386.28 349.03) rotate(-71.65)"/><ellipse class="cls-2" cx="48.62" cy="469.7" rx="5.43" ry="3.96" transform="translate(-412.5 367.96) rotate(-71.65)"/><ellipse class="cls-2" cx="33.96" cy="460.69" rx="2.61" ry="3.57" transform="translate(-141.72 33.46) rotate(-18.14)"/><path class="cls-1" d="M266.9,158.63c2.37-8.87-1.69-13.18,1.49-16.68,3-3.27,10.11-3.44,14-.38,5,3.94,2.32,11.31,6.71,13.49,3.25,1.62,5.6-2,12.23-2.1,5-.07,12.53,1.89,14.22,6.56,2.08,5.79-4.82,13.49-9.76,17-4.77,3.42-7.43,2.77-8.79,5.65-2.28,4.84,4.2,8.93,4.16,16.62-.05,9-9,18.07-13.78,16.93s-2.15-12.16-9.86-17.55c-6.42-4.49-11.77.72-20.85-3.55-7.9-3.71-13.87-12.37-12-16.74,1.7-4,8.52-1.3,15.13-7.24A25.19,25.19,0,0,0,266.9,158.63Z"/><ellipse class="cls-2" cx="279.96" cy="157.07" rx="3.96" ry="5.43" transform="translate(-18.52 38.93) rotate(-7.7)"/><ellipse class="cls-2" cx="296.32" cy="198.28" rx="3.96" ry="5.43" transform="translate(-23.89 41.49) rotate(-7.7)"/><ellipse class="cls-2" cx="305.35" cy="157.74" rx="3.96" ry="5.43" transform="translate(116.22 444.7) rotate(-83.93)"/><ellipse class="cls-2" cx="288.41" cy="186.07" rx="3.57" ry="2.61" transform="translate(52.24 435.11) rotate(-79.35)"/><ellipse class="cls-2" cx="261.03" cy="189.77" rx="3.96" ry="5.43" transform="translate(26.28 411.22) rotate(-79.35)"/><ellipse class="cls-2" cx="268" cy="174.03" rx="3.57" ry="2.61" transform="translate(-49.06 134.2) rotate(-25.84)"/><path class="cls-1" d="M561.58,126.14c-2.19-5.76-6.09-6.51-5.73-9.66.33-3,4.15-5.85,7.48-5.71,4.28.17,5.7,5.24,8.95,4.71,2.4-.4,2.26-3.29,5.83-5.94,2.72-2,7.57-3.89,10.32-2,3.4,2.33,2.67,9.23,1.37,13.1s-3,4.42-2.57,6.52c.65,3.53,5.79,3.21,8.78,7.42,3.5,4.91,2.22,13.35-.86,14.63s-5.94-5.78-12.25-5.69c-5.26.07-6.13,5-12.75,6.25-5.75,1.08-12.4-1.29-13.1-4.41-.63-2.82,4.12-4,5.4-9.87A16.92,16.92,0,0,0,561.58,126.14Z"/><ellipse class="cls-2" cx="568.08" cy="120.17" rx="2.66" ry="3.64" transform="translate(73.18 423.86) rotate(-43.48)"/><ellipse class="cls-2" cx="593.15" cy="136.18" rx="2.66" ry="3.64" transform="translate(69.04 445.5) rotate(-43.48)"/><ellipse class="cls-2" cx="582.16" cy="110.57" rx="3.64" ry="2.66" transform="translate(21.73 303.07) rotate(-29.71)"/><ellipse class="cls-2" cx="584.06" cy="132.64" rx="1.75" ry="2.4" transform="translate(-1.05 260.55) rotate(-25.13)"/><ellipse class="cls-2" cx="570.6" cy="145.39" rx="3.64" ry="2.66" transform="translate(-7.74 256.04) rotate(-25.13)"/><ellipse class="cls-2" cx="568.23" cy="134.09" rx="2.4" ry="1.75" transform="translate(180.13 570.26) rotate(-61.62)"/><ellipse class="cls-3" cx="178.26" cy="30.92" rx="4.85" ry="5.13" transform="translate(4.53 81.44) rotate(-26.06)"/><ellipse class="cls-3" cx="139.34" cy="39.55" rx="24.08" ry="25.48" transform="translate(-3.21 65.22) rotate(-26.06)"/><polygon class="cls-3" points="116.94 33.91 117.41 31.56 104.82 28.31 104.35 30.65 116.94 33.91"/><polygon class="cls-3" points="168.69 54.89 170.1 50.37 157.85 45.77 156.44 50.3 168.69 54.89"/><polygon class="cls-3" points="158.37 10.06 156.34 8.77 149.94 20 151.97 21.3 158.37 10.06"/><polygon class="cls-3" points="129.08 58.1 127.16 56.87 119.06 71.08 120.98 72.31 129.08 58.1"/><polygon class="cls-3" points="129.97 18.24 132.86 17.23 128.3 4.59 125.41 5.59 129.97 18.24"/><polygon class="cls-3" points="144.27 55.64 141.92 56.16 146.34 73.92 148.69 73.4 144.27 55.64"/><polygon class="cls-3" points="176.7 32.79 176.18 30.71 157.27 34.93 157.79 37.01 176.7 32.79"/><polygon class="cls-3" points="121.37 48.2 119.78 43.81 107.76 47.97 109.35 52.37 121.37 48.2"/><ellipse class="cls-3" cx="104.98" cy="29.58" rx="2.22" ry="2.35" transform="translate(-2.32 49.12) rotate(-26.06)"/><ellipse class="cls-3" cx="106.51" cy="50.88" rx="3.61" ry="3.82" transform="translate(-11.52 51.95) rotate(-26.06)"/><ellipse class="cls-3" cx="119.27" cy="73.02" rx="2.22" ry="2.35" transform="translate(-19.95 59.81) rotate(-26.06)"/><ellipse class="cls-3" cx="147.67" cy="74.54" rx="2.22" ry="2.35" transform="translate(-17.73 72.44) rotate(-26.06)"/><ellipse class="cls-3" cx="172.06" cy="54.22" rx="5.32" ry="5.63" transform="translate(-6.33 81.08) rotate(-26.06)"/><ellipse class="cls-3" cx="157.39" cy="9.18" rx="2.22" ry="2.35" transform="translate(11.96 70.06) rotate(-26.06)"/><ellipse class="cls-3" cx="126.59" cy="3.9" rx="3.72" ry="3.94" transform="translate(11.15 56) rotate(-26.06)"/></g></g></svg>