<svg xmlns="http://www.w3.org/2000/svg" viewBox="0 0 859.31 839"><defs><style>.cls-1{fill:#a01d2b;}.cls-2{fill:#991326;}</style></defs><g id="Layer_2" data-name="Layer 2"><g id="Layer_1-2" data-name="Layer 1"><ellipse class="cls-1" cx="43.63" cy="578.93" rx="43.94" ry="40.91" transform="translate(-188.19 46.65) rotate(-19.22)"/><ellipse class="cls-2" cx="441.72" cy="439.23" rx="284.34" ry="264.71" transform="translate(-119.99 169.94) rotate(-19.22)"/><ellipse class="cls-1" cx="437.31" cy="439.26" rx="253" ry="240"/><ellipse class="cls-1" cx="352.57" cy="24.58" rx="26.18" ry="24.37" transform="translate(11.57 117.46) rotate(-19.22)"/><polygon class="cls-1" points="378.56 668.6 352.3 663.44 315.84 801.42 342.1 806.58 378.56 668.6"/><polygon class="cls-1" points="613.41 117.58 562.81 102.12 511.38 236.36 561.98 251.81 613.41 117.58"/><polygon class="cls-1" points="111.63 230.67 97.11 252.88 222.87 323.03 237.39 300.82 111.63 230.67"/><polygon class="cls-1" points="649.31 551.58 635.55 572.63 794.67 661.38 808.43 640.33 649.31 551.58"/><rect class="cls-1" x="57.74" y="534.18" width="150.06" height="33.64" transform="translate(-176.14 75.81) rotate(-19.48)"/><polygon class="cls-1" points="621.79 385.18 627.67 410.97 826.46 362.54 820.57 336.75 621.79 385.18"/><polygon class="cls-1" points="366.06 29.84 342.77 35.51 390.03 242.72 413.32 237.05 366.06 29.84"/><rect class="cls-1" x="511.2" y="640.81" width="52.14" height="139.7" transform="matrix(0.94, -0.33, 0.33, 0.94, -205.93, 219.39)"/><ellipse class="cls-1" cx="324.11" cy="812.68" rx="26.18" ry="24.37" transform="translate(-249.52 152.04) rotate(-19.22)"/><ellipse class="cls-1" cx="568.51" cy="798.95" rx="42.65" ry="39.71" transform="translate(-231.37 231.75) rotate(-19.22)"/><ellipse class="cls-1" cx="816.3" cy="659.08" rx="26.18" ry="24.37" transform="translate(-171.5 305.54) rotate(-19.22)"/><ellipse class="cls-1" cx="833.32" cy="347.91" rx="26.18" ry="24.37" transform="translate(-68.09 293.79) rotate(-19.22)"/><ellipse class="cls-1" cx="605.95" cy="80.75" rx="62.82" ry="58.49" transform="translate(7.2 204.02) rotate(-19.22)"/><ellipse class="cls-1" cx="101.75" cy="241.46" rx="26.18" ry="24.37" transform="translate(-73.83 46.97) rotate(-19.22)"/><ellipse class="cls-2" cx="352.17" cy="330.15" rx="36.67" ry="25.99" transform="translate(-98.55 157.32) rotate(-22.17)"/><ellipse class="cls-2" cx="423.03" cy="539.57" rx="25.97" ry="36.69" transform="translate(-256.36 631.87) rotate(-59.64)"/><ellipse class="cls-2" cx="563.15" cy="396.82" rx="25.88" ry="36.82" transform="matrix(1, -0.04, 0.04, 1, -14.04, 20.72)"/></g></g></svg>