<svg xmlns="http://www.w3.org/2000/svg" viewBox="0 0 1734 1741"><defs><style>.cls-1{fill:#fff;}.cls-2{fill:#c55b71;fill-rule:evenodd;}.cls-3{font-size:33px;}.cls-21,.cls-29,.cls-3,.cls-47{font-family:Futura-Medium, Futura;font-weight:500;}.cls-4{letter-spacing:-0.04em;}.cls-5{letter-spacing:0.01em;}.cls-6{letter-spacing:0.02em;}.cls-7{letter-spacing:-0.01em;}.cls-8{letter-spacing:-0.02em;}.cls-9{letter-spacing:0.02em;}.cls-10{letter-spacing:-0.01em;}.cls-11{letter-spacing:0.01em;}.cls-12{letter-spacing:0em;}.cls-13{letter-spacing:0.02em;}.cls-14,.cls-26,.cls-39{fill:#991326;font-family:Futura-MediumItalic, Futura;font-style:italic;}.cls-15{letter-spacing:-0.01em;}.cls-16{letter-spacing:0em;}.cls-17{letter-spacing:0.04em;}.cls-18{letter-spacing:-0.02em;}.cls-19{letter-spacing:0.01em;}.cls-20{letter-spacing:0em;}.cls-21,.cls-28{font-size:36px;}.cls-22{letter-spacing:-0.02em;}.cls-23{letter-spacing:0.02em;}.cls-24{letter-spacing:-0.02em;}.cls-25{letter-spacing:-0.08em;}.cls-26{font-size:28px;}.cls-27{letter-spacing:0.01em;}.cls-28{font-family:Futura-CondensedMedium, Futura;font-style:normal;fill:#000;}.cls-29{font-size:37px;}.cls-30{letter-spacing:0.01em;}.cls-31{letter-spacing:0.01em;}.cls-32{letter-spacing:0.01em;}.cls-33{letter-spacing:0.02em;}.cls-34{letter-spacing:0em;}.cls-35{letter-spacing:0em;}.cls-36{letter-spacing:0.03em;}.cls-37{letter-spacing:0.03em;}.cls-38{letter-spacing:0.02em;}.cls-39{font-size:31px;}.cls-40{letter-spacing:-0.02em;}.cls-41{letter-spacing:-0.01em;}.cls-42{letter-spacing:0em;}.cls-43{letter-spacing:-0.04em;}.cls-44{letter-spacing:0em;}.cls-45{letter-spacing:-0.01em;}.cls-46{letter-spacing:0.04em;}.cls-47{font-size:44px;}.cls-48{letter-spacing:-0.03em;}</style></defs><g id="Layer_2" data-name="Layer 2"><g id="Layer_1-2" data-name="Layer 1"><ellipse class="cls-1" cx="1555" cy="1221.5" rx="179" ry="177.5"/><circle class="cls-1" cx="838.5" cy="1527.5" r="213.5"/><g id="strzałka_ikona" data-name="strzałka ikona"><g id="layer1"><path id="path4142" class="cls-2" d="M718.48,1115.93l-54.54,22.32,11.24,11.25A159.07,159.07,0,0,0,653.7,1190a166.82,166.82,0,0,0-9.85,57.09A181,181,0,0,0,659.2,1318c9.46,21.53,21.63,37.65,22.55,37.14s-9.39-15.64-17.26-39.42c-4.38-13.22-12-36.89-9.09-67.5a147.52,147.52,0,0,1,14-50.05,134.77,134.77,0,0,1,21.93-32.52l12.19,12.2Z"/></g></g><g id="strzałka_ikona-2" data-name="strzałka ikona"><g id="layer1-2" data-name="layer1"><path id="path4142-2" data-name="path4142" class="cls-2" d="M1108.75,1129l60.22,31.52-16.57,8a137.09,137.09,0,0,0,27.29,29.68,166.11,166.11,0,0,0,48.15,27.18,189,189,0,0,0,73.6,10.56c26.26-1.39,44.69-7.84,44.93-6.88s-19.53,9-44.19,12.47c-8.32,1.18-39.82,4.75-79.11-5.66a193,193,0,0,1-56.8-25.34,166.94,166.94,0,0,1-35.75-31.51l-15.29,7.34Z"/></g></g><g id="strzałka_ikona-3" data-name="strzałka ikona"><g id="layer1-3" data-name="layer1"><path id="path4142-3" data-name="path4142" class="cls-2" d="M912,568q8.24-18.33,16.46-36.65l-9.78-.17L914.9,496.7q-.67-14.52-1.37-29.06-.39-5.7-.8-11.4-.47-8.58-.94-17.15L909,371c-.77,8.75-1.68,20.13-2.5,33.46-1.91,31-2.21,54.36-2.27,59.7-.14,12.33-.05,22.53.12,41.23.1,10.56.23,19.35.33,25.56l-10.6-.17Q903,549.38,912,568Z"/></g></g><text class="cls-3" transform="translate(702.6 1469.19)"><tspan class="cls-4">T</tspan><tspan x="14.53" y="0">aking a h</tspan><tspan class="cls-5" x="155.07" y="0">o</tspan><tspan x="175.1" y="0">t ba</tspan><tspan class="cls-6" x="233.88" y="0">t</tspan><tspan x="243.57" y="0">h </tspan><tspan x="11.04" y="39.6">does n</tspan><tspan class="cls-5" x="110.59" y="39.6">o</tspan><tspan x="130.62" y="39.6">t p</tspan><tspan class="cls-7" x="169.61" y="39.6">r</tspan><tspan class="cls-8" x="181.73" y="39.6">ev</tspan><tspan x="215.44" y="39.6">ent</tspan><tspan class="cls-9" x="-40.14" y="79.2">t</tspan><tspan x="-30.45" y="79.2">he co</tspan><tspan class="cls-10" x="51.64" y="79.2">r</tspan><tspan x="63.7" y="79.2">on</tspan><tspan class="cls-11" x="101.63" y="79.2">a</tspan><tspan class="cls-12" x="121.7" y="79.2">vi</tspan><tspan class="cls-13" x="146.5" y="79.2">r</tspan><tspan x="159.34" y="79.2">us disease</tspan><tspan class="cls-14"><tspan x="-64.07" y="118.8">(but it </tspan><tspan class="cls-10" x="33.74" y="118.8">w</tspan><tspan x="57.46" y="118.8">o</tspan><tspan class="cls-15" x="77.31" y="118.8">n</tspan><tspan class="cls-16" x="95.18" y="118.8">’t hu</tspan><tspan class="cls-17" x="161.49" y="118.8">r</tspan><tspan class="cls-12" x="175.33" y="118.8">t a</tspan><tspan class="cls-18" x="215.06" y="118.8">n</tspan><tspan class="cls-16" x="232.66" y="118.8">y</tspan><tspan class="cls-10" x="250.03" y="118.8">w</tspan><tspan class="cls-19" x="273.75" y="118.8">a</tspan><tspan class="cls-20" x="293.94" y="118.8">y</tspan><tspan x="311.34" y="118.8">s)</tspan></tspan></text><text class="cls-21" transform="translate(1413.76 1177.73)">Antibi<tspan class="cls-5" x="95.77" y="0">o</tspan><tspan x="117.62" y="0">tics do n</tspan><tspan class="cls-5" x="253.37" y="0">o</tspan><tspan x="275.22" y="0">t </tspan><tspan class="cls-22" x="43.2" y="43.2">w</tspan><tspan x="70.41" y="43.2">o</tspan><tspan class="cls-23" x="92.05" y="43.2">r</tspan><tspan x="106.06" y="43.2">k against</tspan><tspan x="70.46" y="86.4" xml:space="preserve"> C</tspan><tspan class="cls-24" x="106.8" y="86.4">o</tspan><tspan x="127.71" y="86.4">vid-</tspan><tspan class="cls-25" x="184.19" y="86.4">1</tspan><tspan x="203.49" y="86.4">9</tspan><tspan class="cls-26"><tspan x="11.85" y="129.6">(do</tspan><tspan class="cls-10" x="55.65" y="129.6">n</tspan><tspan x="70.81" y="129.6">’t do d</tspan><tspan class="cls-27" x="156.6" y="129.6">r</tspan><tspan x="167.58" y="129.6">ugt kids)</tspan><tspan class="cls-28" x="276.88" y="129.6"> </tspan></tspan></text><ellipse class="cls-1" cx="1532.17" cy="494.74" rx="194.83" ry="194.28"/><text class="cls-29" transform="translate(1440.78 388.51)">Sy<tspan class="cls-30" x="41.68" y="0">m</tspan><tspan class="cls-31" x="71.4" y="0">p</tspan><tspan class="cls-32" x="93.91" y="0">t</tspan><tspan x="104.28" y="0">oms:</tspan><tspan x="-3.13" y="44.4">So</tspan><tspan class="cls-7" x="40.68" y="44.4">r</tspan><tspan x="54.26" y="44.4">e </tspan><tspan class="cls-33" x="86.15" y="44.4">t</tspan><tspan x="97.01" y="44.4">h</tspan><tspan class="cls-10" x="117.3" y="44.4">r</tspan><tspan class="cls-34" x="130.81" y="44.4">oat</tspan><tspan class="cls-35" x="-36.86" y="88.8">A</tspan><tspan class="cls-36" x="-9.64" y="88.8">c</tspan><tspan x="8.95" y="88.8">hing muscles</tspan><tspan x="-54.88" y="133.2">B</tspan><tspan class="cls-7" x="-33.01" y="133.2">r</tspan><tspan x="-19.42" y="133.2">ea</tspan><tspan class="cls-33" x="23.24" y="133.2">t</tspan><tspan x="34.09" y="133.2">hing di</tspan><tspan class="cls-37" x="148.85" y="133.2">f</tspan><tspan class="cls-38" x="161.06" y="133.2">f</tspan><tspan x="172.83" y="133.2">icul</tspan><tspan x="229.05" y="133.2">-</tspan><tspan x="63.7" y="177.6">ties</tspan><tspan class="cls-39"><tspan x="-56.12" y="214.8">(li</tspan><tspan class="cls-40" x="-29.52" y="214.8">k</tspan><tspan x="-14.19" y="214.8">e a hang</tspan><tspan class="cls-41" x="112.85" y="214.8">ov</tspan><tspan class="cls-42" x="146" y="214.8">e</tspan><tspan class="cls-43" x="163.39" y="214.8">r</tspan><tspan x="174.13" y="214.8">, but </tspan><tspan x="18.4" y="252">n</tspan><tspan class="cls-44" x="35.46" y="252">o</tspan><tspan x="54.2" y="252">t </tspan><tspan class="cls-45" x="72.86" y="252">r</tspan><tspan x="84.53" y="252">eal</tspan><tspan class="cls-27" x="128.61" y="252">l</tspan><tspan x="136.94" y="252">y)</tspan></tspan></text><g id="strzałka_ikona-4" data-name="strzałka ikona"><g id="layer1-4" data-name="layer1"><path id="path4142-4" data-name="path4142" class="cls-2" d="M1165.89,714.73l61.66,19.39L1224.09,720a241.18,241.18,0,0,0,42.77-12.63c12-4.78,27.13-10.93,44.14-23.35,10.11-7.38,25.35-18.73,38-39a125.7,125.7,0,0,0,15-35,200.52,200.52,0,0,1-22,30c-8,9-20.56,23-41,35-16.71,9.85-31.24,14-43.33,17.46a222.67,222.67,0,0,1-38.53,7.28l-3.75-15.34Z"/></g></g><circle class="cls-1" cx="169.5" cy="1014.5" r="169.5"/><path d="M95.57,935.78l-3.51,2.08a5.91,5.91,0,0,0-1.88-2.22,4.3,4.3,0,0,0-2.39-.6,4.43,4.43,0,0,0-3,1,3.17,3.17,0,0,0-1.18,2.53c0,1.39,1,2.52,3.11,3.37l2.86,1.17a12.16,12.16,0,0,1,5.1,3.44,7.77,7.77,0,0,1,1.62,5,8.75,8.75,0,0,1-2.64,6.53,9,9,0,0,1-6.58,2.59,8.81,8.81,0,0,1-6.16-2.2,10.15,10.15,0,0,1-3-6.22l4.38-1a7.25,7.25,0,0,0,1,3.48,4.93,4.93,0,0,0,7.25.51A4.71,4.71,0,0,0,92,951.85a5,5,0,0,0-.23-1.53A4,4,0,0,0,91,949,5.79,5.79,0,0,0,89.72,948a12.64,12.64,0,0,0-1.85-1l-2.77-1.15q-5.88-2.48-5.88-7.27a6.9,6.9,0,0,1,2.47-5.4A8.9,8.9,0,0,1,87.83,931Q92.78,931,95.57,935.78Z"/><path d="M106.42,956.81l-8.13-14.72h4.85l5.53,10.39,5.15-10.39h4.72L104.14,970H99.37Z"/><path d="M121.38,942.09h4.17v1.67a8.43,8.43,0,0,1,2.06-1.7,5,5,0,0,1,2.28-.47,5.53,5.53,0,0,1,4.84,2.67,6.28,6.28,0,0,1,5.33-2.67q6.1,0,6.1,7.41v11.17H142v-10a7.79,7.79,0,0,0-.63-3.68,2.27,2.27,0,0,0-2.13-1.09,2.73,2.73,0,0,0-2.52,1.3,8.41,8.41,0,0,0-.79,4.17v9.34h-4.19v-10q0-4.81-2.78-4.82a2.77,2.77,0,0,0-2.57,1.32,8.15,8.15,0,0,0-.81,4.15v9.34h-4.17Z"/><path d="M156.07,970H151.9V942.09h4.17v2a7.92,7.92,0,0,1,11.75.28,9.92,9.92,0,0,1,2.45,6.88,9.75,9.75,0,0,1-2.43,6.77,7.93,7.93,0,0,1-11.77.15ZM166,951.24a6.25,6.25,0,0,0-1.41-4.23,4.55,4.55,0,0,0-3.6-1.65,4.78,4.78,0,0,0-3.73,1.59,6.09,6.09,0,0,0-1.43,4.2,6.19,6.19,0,0,0,1.43,4.19A4.68,4.68,0,0,0,161,957a4.52,4.52,0,0,0,3.58-1.64A5.91,5.91,0,0,0,166,951.24Z"/><path d="M179.32,946v14.18h-4.17V946h-1.78v-3.9h1.78v-6.62h4.17v6.62h3.25V946Z"/><path d="M184.81,951a9,9,0,0,1,2.81-6.66,9.87,9.87,0,0,1,13.69,0,9.68,9.68,0,0,1,0,13.6,9.57,9.57,0,0,1-6.92,2.72,9.16,9.16,0,0,1-6.81-2.78A9.36,9.36,0,0,1,184.81,951Zm4.27.07a6.07,6.07,0,0,0,1.45,4.29,5.61,5.61,0,0,0,7.83,0,6.81,6.81,0,0,0,0-8.43,5.12,5.12,0,0,0-3.92-1.59,5,5,0,0,0-3.87,1.59A5.82,5.82,0,0,0,189.08,951.07Z"/><path d="M208.51,942.09h4.17v1.67a8.62,8.62,0,0,1,2.06-1.7,5,5,0,0,1,2.28-.47,5.54,5.54,0,0,1,4.85,2.67,6.26,6.26,0,0,1,5.32-2.67q6.1,0,6.11,7.41v11.17h-4.2v-10a7.79,7.79,0,0,0-.63-3.68,2.27,2.27,0,0,0-2.13-1.09,2.73,2.73,0,0,0-2.52,1.3,8.42,8.42,0,0,0-.78,4.17v9.34h-4.2v-10c0-3.21-.92-4.82-2.78-4.82a2.79,2.79,0,0,0-2.57,1.32,8.15,8.15,0,0,0-.81,4.15v9.34h-4.17Z"/><path d="M249.07,945.17,245.62,947c-.55-1.11-1.22-1.67-2-1.67a1.4,1.4,0,0,0-1,.38,1.28,1.28,0,0,0-.41,1c0,.7.81,1.38,2.42,2.06a14.48,14.48,0,0,1,4.47,2.64,4.54,4.54,0,0,1,1.15,3.25,5.69,5.69,0,0,1-1.93,4.37,6.92,6.92,0,0,1-11-2.76l3.56-1.65a7.88,7.88,0,0,0,1.14,1.65,2.56,2.56,0,0,0,1.81.71c1.41,0,2.12-.65,2.12-1.93,0-.75-.55-1.44-1.63-2.08l-1.26-.62c-.43-.19-.85-.4-1.29-.61a7.77,7.77,0,0,1-2.56-1.78,4.37,4.37,0,0,1-.94-2.91,5.19,5.19,0,0,1,1.61-3.9,5.7,5.7,0,0,1,4-1.54C246.22,941.59,247.94,942.79,249.07,945.17Z"/><path d="M254.63,944.13a2.44,2.44,0,0,1,.77-1.78,2.56,2.56,0,1,1-.77,1.78Zm0,14a2.61,2.61,0,0,1,2.58-2.56,2.58,2.58,0,0,1,1.82,4.41,2.62,2.62,0,0,1-3.65,0A2.49,2.49,0,0,1,254.63,958.09Z"/><path d="M140.69,981.18h-10v6.88h9.63v4.07h-9.63v13.64h-4.33V977.12h14.31Z"/><path d="M161.1,997.71H148.15a5.46,5.46,0,0,0,1.45,3.55,4.41,4.41,0,0,0,3.28,1.3,4.24,4.24,0,0,0,2.58-.75,10.42,10.42,0,0,0,2.28-2.74l3.53,2a14,14,0,0,1-1.73,2.39,9,9,0,0,1-1.95,1.63,7.77,7.77,0,0,1-2.24.94,10.89,10.89,0,0,1-2.62.3,8.51,8.51,0,0,1-6.49-2.6,9.77,9.77,0,0,1-2.45-6.94,10,10,0,0,1,2.37-6.94,9.06,9.06,0,0,1,12.66-.08,10,10,0,0,1,2.3,7Zm-4.29-3.41A4,4,0,0,0,152.6,991a4.46,4.46,0,0,0-1.43.23,4.21,4.21,0,0,0-1.21.67,4.12,4.12,0,0,0-.94,1,4.7,4.7,0,0,0-.59,1.39Z"/><path d="M167.26,987.69l4.68,10.15,4.65-10.15h4.7L171.9,1007l-9.32-19.32Z"/><path d="M199.92,997.71H187a5.5,5.5,0,0,0,1.44,3.55,4.45,4.45,0,0,0,3.29,1.3,4.24,4.24,0,0,0,2.58-.75,10.62,10.62,0,0,0,2.28-2.74l3.52,2a14,14,0,0,1-1.72,2.39,9.49,9.49,0,0,1-2,1.63,7.77,7.77,0,0,1-2.24.94,10.89,10.89,0,0,1-2.62.3,8.53,8.53,0,0,1-6.5-2.6,9.77,9.77,0,0,1-2.44-6.94,10,10,0,0,1,2.37-6.94,9,9,0,0,1,12.65-.08,10,10,0,0,1,2.31,7Zm-4.29-3.41a4,4,0,0,0-4.21-3.34,4.46,4.46,0,0,0-1.43.23,4.19,4.19,0,0,0-2.15,1.72,5,5,0,0,0-.6,1.39Z"/><path d="M204.48,987.69h4.18v1.62a7.49,7.49,0,0,1,2-1.65,4.64,4.64,0,0,1,2.15-.47,6.72,6.72,0,0,1,3.45,1.08l-1.91,3.82a4,4,0,0,0-2.32-.85c-2.28,0-3.41,1.72-3.41,5.16v9.37h-4.18Z"/><path d="M137.23,1024.26v5.12a12,12,0,0,0-7.76-3.14,9.88,9.88,0,0,0-7.44,3.18,10.67,10.67,0,0,0-3,7.71,10.42,10.42,0,0,0,3,7.61,10,10,0,0,0,7.46,3.1,9.23,9.23,0,0,0,3.88-.74,11.72,11.72,0,0,0,1.85-1,22.4,22.4,0,0,0,2-1.53v5.22a15.59,15.59,0,0,1-7.79,2.09A14.38,14.38,0,0,1,119,1047.6a14.22,14.22,0,0,1-4.32-10.43,14.73,14.73,0,0,1,3.62-9.76,14.41,14.41,0,0,1,11.52-5.25A14.62,14.62,0,0,1,137.23,1024.26Z"/><path d="M141,1042.2a9,9,0,0,1,2.8-6.66,9.88,9.88,0,0,1,13.7,0,9.68,9.68,0,0,1,0,13.6,9.57,9.57,0,0,1-6.92,2.72,9.16,9.16,0,0,1-6.81-2.78A9.36,9.36,0,0,1,141,1042.2Zm4.27.07a6.07,6.07,0,0,0,1.45,4.29,5.61,5.61,0,0,0,7.83,0,6.81,6.81,0,0,0,0-8.43,5.12,5.12,0,0,0-3.92-1.59,5,5,0,0,0-3.87,1.59A5.78,5.78,0,0,0,145.3,1042.27Z"/><path d="M168.9,1033.29v10.38q0,4.49,3.55,4.49t3.54-4.49v-10.38h4.18v10.47a11.6,11.6,0,0,1-.54,3.75,6.4,6.4,0,0,1-1.8,2.54,8.81,8.81,0,0,1-10.75,0,6.48,6.48,0,0,1-1.83-2.54,10.25,10.25,0,0,1-.52-3.75v-10.47Z"/><path d="M202.91,1050.94c0,.85,0,1.6-.08,2.25a16.81,16.81,0,0,1-.23,1.72,7.67,7.67,0,0,1-1.75,3.51,8.44,8.44,0,0,1-6.73,2.82,9,9,0,0,1-6-2,8,8,0,0,1-2.78-5.55h4.19a4.74,4.74,0,0,0,.8,2.06,4.51,4.51,0,0,0,3.79,1.69c3.05,0,4.58-1.88,4.58-5.62v-2.53a7.78,7.78,0,0,1-5.74,2.54,7.68,7.68,0,0,1-6-2.67,9.85,9.85,0,0,1-2.38-6.77,10.47,10.47,0,0,1,2.21-6.72,7.67,7.67,0,0,1,6.27-2.93,7.3,7.3,0,0,1,5.68,2.54v-2h4.17Zm-4-8.57a6.16,6.16,0,0,0-1.41-4.22,4.71,4.71,0,0,0-3.66-1.61,4.52,4.52,0,0,0-3.75,1.76,7.28,7.28,0,0,0,0,8.13,4.5,4.5,0,0,0,3.75,1.73,4.57,4.57,0,0,0,3.78-1.75A6.17,6.17,0,0,0,198.91,1042.37Z"/><path d="M208.18,1020h4.18v14.77a7.16,7.16,0,0,1,4.91-2,6.32,6.32,0,0,1,4.9,2c1,1.15,1.56,3,1.56,5.51v11.08h-4.17v-10.69a5.13,5.13,0,0,0-.77-3.15,3,3,0,0,0-2.48-1,3.41,3.41,0,0,0-3.08,1.35,9.34,9.34,0,0,0-.87,4.72v8.74h-4.18Z"/><path d="M95.91,1097v-28.65h6a21.89,21.89,0,0,1,6.83.85,12.8,12.8,0,0,1,4.88,2.84,13.73,13.73,0,0,1,4.43,10.63,13.58,13.58,0,0,1-4.62,10.69,13.38,13.38,0,0,1-4.86,2.84,22.15,22.15,0,0,1-6.73.8Zm4.32-4.07h2a16.17,16.17,0,0,0,4.84-.61,9.83,9.83,0,0,0,6.68-9.65,10,10,0,0,0-3.15-7.64q-2.83-2.62-8.37-2.62h-2Z"/><path d="M122.07,1071.38a2.59,2.59,0,0,1,.8-1.89,2.61,2.61,0,0,1,1.91-.8,2.64,2.64,0,0,1,1.93.8,2.57,2.57,0,0,1,.8,1.91,2.64,2.64,0,0,1-.8,1.93,2.57,2.57,0,0,1-1.91.79,2.62,2.62,0,0,1-1.93-.79A2.66,2.66,0,0,1,122.07,1071.38Zm4.81,7.51V1097H122.7v-18.08Z"/><path d="M145.49,1078.89h4.19V1097h-4.19v-1.9a8,8,0,0,1-11.75-.29,10.11,10.11,0,0,1-2.43-6.91,9.78,9.78,0,0,1,2.43-6.77,7.86,7.86,0,0,1,6.09-2.71,7.7,7.7,0,0,1,5.66,2.6Zm-9.91,9a6.25,6.25,0,0,0,1.39,4.23,4.53,4.53,0,0,0,3.6,1.66,4.82,4.82,0,0,0,3.75-1.6,6.87,6.87,0,0,0,0-8.39,4.75,4.75,0,0,0-3.71-1.61,4.59,4.59,0,0,0-3.6,1.63A6,6,0,0,0,135.58,1087.87Z"/><path d="M155,1078.89h4.17v1.62a7.66,7.66,0,0,1,2-1.65,4.64,4.64,0,0,1,2.15-.47,6.72,6.72,0,0,1,3.45,1.08l-1.91,3.82a4,4,0,0,0-2.32-.85q-3.42,0-3.42,5.16V1097H155Z"/><path d="M169.74,1078.89h4.17v1.62a7.8,7.8,0,0,1,2-1.65,4.71,4.71,0,0,1,2.16-.47,6.72,6.72,0,0,1,3.45,1.08l-1.91,3.82a4,4,0,0,0-2.32-.85q-3.42,0-3.42,5.16V1097h-4.17Z"/><path d="M184.53,1065.63h4.17v14.77a7.17,7.17,0,0,1,4.92-2,6.35,6.35,0,0,1,4.9,2q1.54,1.72,1.55,5.51V1097H195.9v-10.69a5.13,5.13,0,0,0-.77-3.15,3,3,0,0,0-2.48-1,3.42,3.42,0,0,0-3.08,1.35,9.34,9.34,0,0,0-.87,4.72V1097h-4.17Z"/><path d="M221.82,1088.91H208.87a5.46,5.46,0,0,0,1.45,3.55,4.41,4.41,0,0,0,3.28,1.3,4.24,4.24,0,0,0,2.58-.75,10.42,10.42,0,0,0,2.28-2.74l3.53,2a14,14,0,0,1-1.73,2.39,8.71,8.71,0,0,1-1.95,1.63,7.77,7.77,0,0,1-2.24.94,10.89,10.89,0,0,1-2.62.3,8.5,8.5,0,0,1-6.49-2.6,9.77,9.77,0,0,1-2.45-6.94,10,10,0,0,1,2.37-6.94,9.06,9.06,0,0,1,12.66-.08,10,10,0,0,1,2.3,7Zm-4.29-3.41a4,4,0,0,0-4.21-3.34,4.46,4.46,0,0,0-1.43.23,4.21,4.21,0,0,0-1.21.67,4.12,4.12,0,0,0-.94,1,4.7,4.7,0,0,0-.59,1.39Z"/><path d="M239.71,1078.89h4.19V1097h-4.19v-1.9a8,8,0,0,1-11.75-.29,10.11,10.11,0,0,1-2.43-6.91,9.78,9.78,0,0,1,2.43-6.77,7.86,7.86,0,0,1,6.09-2.71,7.7,7.7,0,0,1,5.66,2.6Zm-9.91,9a6.25,6.25,0,0,0,1.39,4.23,4.53,4.53,0,0,0,3.6,1.66,4.82,4.82,0,0,0,3.75-1.6,6.87,6.87,0,0,0,0-8.39,4.75,4.75,0,0,0-3.71-1.61,4.59,4.59,0,0,0-3.6,1.63A6,6,0,0,0,229.8,1087.87Z"/><circle class="cls-1" cx="949.5" cy="169.5" r="169.5"/><text class="cls-21" transform="translate(822.64 129.93)">Alcohol will n<tspan class="cls-5" x="221.48" y="0">o</tspan><tspan x="243.33" y="0">t </tspan><tspan x="26.55" y="43.2">kill C</tspan><tspan class="cls-24" x="107.71" y="43.2">o</tspan><tspan x="128.63" y="43.2">vid-</tspan><tspan class="cls-25" x="185.11" y="43.2">1</tspan><tspan x="204.41" y="43.2">9</tspan><tspan class="cls-14"><tspan x="-9.35" y="86.4">(But </tspan><tspan class="cls-10" x="65.27" y="86.4">y</tspan><tspan x="83.9" y="86.4">ou can t</tspan><tspan class="cls-46" x="216.04" y="86.4">r</tspan><tspan x="231.31" y="86.4">y) </tspan></tspan></text><g id="strzałka_ikona-5" data-name="strzałka ikona"><g id="layer1-5" data-name="layer1"><path id="path4142-5" data-name="path4142" class="cls-2" d="M580.31,849.74l-40-43.26L533.7,821A159.21,159.21,0,0,0,488.29,815a166.89,166.89,0,0,0-56.93,10.77,181.07,181.07,0,0,0-61,39.23c-16.86,16.41-27.69,33.45-26.88,34.13s11.36-14.27,30.86-30c10.85-8.74,30.35-24.17,60-32.17a147.59,147.59,0,0,1,51.77-4.47,135,135,0,0,1,38.13,9.14l-7.15,15.69Z"/></g></g><circle class="cls-1" cx="302.5" cy="447.5" r="169.5"/><text class="cls-47" transform="translate(207.9 459.54)"><tspan class="cls-35">C</tspan><tspan class="cls-48" x="30.62" y="0">O</tspan><tspan x="68.47" y="0">VID-</tspan><tspan class="cls-25" x="152.73" y="0">1</tspan><tspan x="176.32" y="0">9</tspan></text><g id="strzałka_ikona-6" data-name="strzałka ikona"><g id="layer1-6" data-name="layer1"><path id="path4142-6" data-name="path4142" class="cls-2" d="M722.34,625.18l9.89-58.09-15.49,3.59a158.6,158.6,0,0,0-23-39.62,166.88,166.88,0,0,0-43.24-38.55,181,181,0,0,0-68.31-24.46c-23.28-3.35-43.39-1.55-43.44-.5s18.24.3,42.58,6.19c13.53,3.27,37.66,9.32,62.1,28A147.53,147.53,0,0,1,678.56,540a135.22,135.22,0,0,1,16,35.79l-16.8,3.9Z"/></g></g><text/></g></g></svg>