<svg xmlns="http://www.w3.org/2000/svg" viewBox="0 0 128.37 126.26"><defs><style>.cls-1{fill:#c55b71;}</style></defs><g id="Layer_2" data-name="Layer 2"><g id="Layer_1-2" data-name="Layer 1"><ellipse class="cls-1" cx="86.3" cy="3.64" rx="3.63" ry="3.85" transform="translate(78.34 89.64) rotate(-87.13)"/><ellipse class="cls-1" cx="67.72" cy="64.25" rx="39.48" ry="41.77" transform="translate(0.16 128.67) rotate(-87.13)"/><polygon class="cls-1" points="41.87 91.91 38.87 89.37 24.22 104.86 27.21 107.39 41.87 91.91"/><polygon class="cls-1" points="113 34.29 107.63 28.68 91.33 42.62 96.69 48.23 113 34.29"/><polygon class="cls-1" points="40.5 13.56 37.03 15.44 48.07 33.53 51.54 31.65 40.5 13.56"/><polygon class="cls-1" points="86.2 93.67 82.91 95.45 96.88 118.34 100.17 116.56 86.2 93.67"/><polygon class="cls-1" points="29.71 60.79 30.57 55.84 8.81 52.36 7.96 57.31 29.71 60.79"/><polygon class="cls-1" points="94.71 69.93 93.6 73.72 122.58 81.46 123.69 77.66 94.71 69.93"/><polygon class="cls-1" points="87.64 5.28 84.25 4.37 75.31 34.85 78.71 35.76 87.64 5.28"/><polygon class="cls-1" points="65.88 96.89 58.33 95.68 54.77 116.23 62.33 117.44 65.88 96.89"/><ellipse class="cls-1" cx="26.17" cy="105.64" rx="3.63" ry="3.85" transform="translate(-80.65 126.49) rotate(-87.13)"/><ellipse class="cls-1" cx="57.94" cy="120.34" rx="5.92" ry="6.27" transform="translate(-65.15 172.18) rotate(-87.13)"/><ellipse class="cls-1" cx="99.82" cy="119.57" rx="3.63" ry="3.85" transform="translate(-24.59 213.28) rotate(-87.13)"/><ellipse class="cls-1" cx="124.52" cy="80.03" rx="3.63" ry="3.85" transform="translate(38.36 200.39) rotate(-87.13)"/><ellipse class="cls-1" cx="114.71" cy="28.94" rx="8.72" ry="9.23" transform="translate(80.06 142.05) rotate(-87.13)"/><ellipse class="cls-1" cx="38.45" cy="14.27" rx="3.63" ry="3.85" transform="translate(22.27 51.96) rotate(-87.13)"/><ellipse class="cls-1" cx="6.45" cy="54.28" rx="6.1" ry="6.46" transform="translate(-48.08 58.01) rotate(-87.13)"/></g></g></svg>