<svg xmlns="http://www.w3.org/2000/svg" viewBox="0 0 110.37 110.13"><defs><style>.cls-1{fill:#a01d2b;}</style></defs><g id="Layer_2" data-name="Layer 2"><g id="Layer_1-2" data-name="Layer 1"><ellipse class="cls-1" cx="45.36" cy="3.22" rx="3.37" ry="3.18" transform="translate(3.19 20.25) rotate(-26.06)"/><ellipse class="cls-1" cx="56.8" cy="57.57" rx="36.59" ry="34.59" transform="translate(-19.51 30.8) rotate(-26.06)"/><polygon class="cls-1" points="48.69 89.73 45.32 89.05 40.65 107.13 44.02 107.81 48.69 89.73"/><polygon class="cls-1" points="78.82 15.41 72.33 13.38 65.73 30.98 72.22 33 78.82 15.41"/><polygon class="cls-1" points="14.45 30.23 12.59 33.14 28.72 42.34 30.58 39.43 14.45 30.23"/><polygon class="cls-1" points="83.43 72.29 81.66 75.05 102.08 86.68 103.84 83.92 83.43 72.29"/><polygon class="cls-1" points="26.19 71.02 24.75 66.86 6.59 73.41 8.03 77.57 26.19 71.02"/><polygon class="cls-1" points="79.9 50.48 80.65 53.86 106.15 47.52 105.4 44.14 79.9 50.48"/><polygon class="cls-1" points="47.09 3.91 44.1 4.65 50.16 31.81 53.15 31.07 47.09 3.91"/><polygon class="cls-1" points="69.22 83.37 62.91 85.65 68.89 102.91 75.2 100.64 69.22 83.37"/><ellipse class="cls-1" cx="42.48" cy="106.91" rx="3.37" ry="3.18" transform="translate(-42.64 29.52) rotate(-26.06)"/><ellipse class="cls-1" cx="73.06" cy="104.71" rx="5.49" ry="5.19" transform="translate(-38.57 42.73) rotate(-26.06)"/><ellipse class="cls-1" cx="104.85" cy="86.38" rx="3.37" ry="3.18" transform="translate(-27.29 54.83) rotate(-26.06)"/><ellipse class="cls-1" cx="107.03" cy="45.6" rx="3.37" ry="3.18" transform="translate(-9.15 51.65) rotate(-26.06)"/><ellipse class="cls-1" cx="77.86" cy="10.58" rx="8.08" ry="7.64" transform="translate(3.26 35.28) rotate(-26.06)"/><ellipse class="cls-1" cx="13.18" cy="31.65" rx="3.37" ry="3.18" transform="translate(-12.56 9.01) rotate(-26.06)"/><ellipse class="cls-1" cx="5.6" cy="75.88" rx="5.65" ry="5.34" transform="translate(-32.76 10.17) rotate(-26.06)"/></g></g></svg>