<svg xmlns="http://www.w3.org/2000/svg" viewBox="0 0 1642.11 911.51"><defs><style>.cls-1{fill:#a01d2b;}.cls-2{fill:#c55b71;}.cls-3{fill:#8acddd;}.cls-4{fill:#fff;}.cls-5{fill:#fffdfd;}.cls-6{font-size:36px;font-family:Futura-Medium, Futura;font-weight:500;}.cls-7{letter-spacing:-0.01em;}.cls-8{letter-spacing:-0.02em;}.cls-9{letter-spacing:0.02em;}.cls-10{letter-spacing:-0.07em;}.cls-11{letter-spacing:0.12em;}.cls-12{letter-spacing:0.03em;}.cls-13{letter-spacing:-0.02em;}.cls-14{letter-spacing:-0.08em;}.cls-15{letter-spacing:-0.02em;}.cls-16{letter-spacing:-0.02em;}.cls-17{letter-spacing:0.02em;}.cls-18{letter-spacing:0.02em;}.cls-19{letter-spacing:-0.06em;}.cls-20{letter-spacing:0.04em;}.cls-21{letter-spacing:0.01em;}.cls-22{letter-spacing:-0.02em;}.cls-23{letter-spacing:0.04em;}.cls-24{letter-spacing:0.01em;}.cls-25{letter-spacing:-0.01em;}.cls-26{letter-spacing:0.5em;}.cls-27{letter-spacing:0.5em;}.cls-28{letter-spacing:-0.05em;}.cls-29{letter-spacing:-0.05em;}.cls-30{letter-spacing:0.23em;}.cls-31{letter-spacing:0em;}.cls-32{letter-spacing:0em;}.cls-33{letter-spacing:0.23em;}.cls-34{letter-spacing:0.17em;}.cls-35{letter-spacing:0.17em;}</style></defs><g id="Layer_2" data-name="Layer 2"><g id="Layer_1-2" data-name="Layer 1"><path d="M918,455.75v.59H458.41L893.23,307.7A452.24,452.24,0,0,1,918,455.75Z"/><path class="cls-1" d="M917.41,456.34H918c-.32,251.44-205.71,455.17-459,455.17-253.5,0-459-204-459-455.76C0,207.6,199.75,5.77,448.3.13L459,455.75l0,.05-.63.54Z"/><path class="cls-2" d="M893.23,307.7,458.41,456.34l.63-.54,345.4-299.36.39-.34A454.12,454.12,0,0,1,893.23,307.7Z"/><path class="cls-3" d="M804.83,156.1l-.39.34L459,455.8l0-.05L638,36l0-.06A460,460,0,0,1,804.83,156.1Z"/><path class="cls-4" d="M638,36l0,.06L459,455.75,448.3.13Q453.63,0,459,0A460.34,460.34,0,0,1,638,36Z"/><ellipse class="cls-3" cx="1061.23" cy="89.1" rx="53.77" ry="54.1"/><ellipse class="cls-5" cx="1061.23" cy="265.3" rx="53.77" ry="54.1"/><ellipse class="cls-2" cx="1061.23" cy="455.86" rx="53.77" ry="54.1"/><ellipse cx="1061.23" cy="652.17" rx="53.77" ry="54.1"/><ellipse class="cls-1" cx="1061.23" cy="838.9" rx="53.77" ry="54.1"/><text class="cls-6" transform="translate(1164.67 100.7)">Co<tspan class="cls-7" x="46.86" y="0">r</tspan><tspan x="60.01" y="0">ona is a n</tspan><tspan class="cls-8" x="221.2" y="0">e</tspan><tspan x="240.57" y="0">w vi</tspan><tspan class="cls-9" x="306.6" y="0">r</tspan><tspan x="320.61" y="0">us</tspan></text><text class="cls-6" transform="translate(1165.1 254.32)"><tspan class="cls-10">Y</tspan><tspan x="19.16" y="0">ou</tspan><tspan class="cls-11" x="60.42" y="0"> </tspan><tspan x="75.73" y="0">can</tspan><tspan class="cls-11" x="134.21" y="0"> </tspan><tspan x="149.52" y="0">cat</tspan><tspan class="cls-12" x="198.11" y="0">c</tspan><tspan x="216.2" y="0">h</tspan><tspan class="cls-11" x="235.94" y="0"> </tspan><tspan x="251.25" y="0">C</tspan><tspan class="cls-13" x="276.48" y="0">o</tspan><tspan x="297.39" y="0">vid-</tspan><tspan class="cls-14" x="353.87" y="0">1</tspan><tspan x="373.17" y="0">9</tspan><tspan class="cls-11" x="395.39" y="0"> </tspan><tspan x="410.71" y="0">li</tspan><tspan class="cls-15" x="428.63" y="0">k</tspan><tspan x="445.98" y="0">e </tspan><tspan class="cls-16" x="0" y="55">y</tspan><tspan x="18.88" y="55">ou cat</tspan><tspan class="cls-12" x="119.83" y="55">c</tspan><tspan x="137.92" y="55">h </tspan><tspan class="cls-17" x="168.77" y="55">t</tspan><tspan x="179.33" y="55">he </tspan><tspan class="cls-18" x="230.1" y="55">f</tspan><tspan x="241.37" y="55">lu</tspan></text><text class="cls-6" transform="translate(1165.1 425.63)"><tspan class="cls-19">W</tspan><tspan x="36.09" y="0">e</tspan><tspan class="cls-20" x="56" y="0"> </tspan><tspan x="68.62" y="0">h</tspan><tspan class="cls-21" x="88.36" y="0">a</tspan><tspan class="cls-22" x="110.26" y="0">v</tspan><tspan x="127.74" y="0">e</tspan><tspan class="cls-23" x="147.65" y="0"> </tspan><tspan class="cls-24" x="160.27" y="0">t</tspan><tspan x="170.36" y="0">o</tspan><tspan class="cls-20" x="192" y="0"> </tspan><tspan class="cls-21" x="204.61" y="0">t</tspan><tspan x="214.77" y="0">a</tspan><tspan class="cls-15" x="236.36" y="0">k</tspan><tspan x="253.71" y="0">e</tspan><tspan class="cls-20" x="273.63" y="0"> </tspan><tspan x="286.24" y="0">ca</tspan><tspan class="cls-25" x="324.99" y="0">r</tspan><tspan x="338.2" y="0">e</tspan><tspan class="cls-23" x="358.12" y="0"> </tspan><tspan x="370.74" y="0">of</tspan><tspan class="cls-20" x="403.06" y="0"> </tspan><tspan class="cls-17" x="415.68" y="0">t</tspan><tspan x="426.25" y="0">he </tspan><tspan x="0" y="55">elde</tspan><tspan class="cls-9" x="70.38" y="55">r</tspan><tspan class="cls-21" x="84.39" y="55">l</tspan><tspan x="93.67" y="55">y</tspan><tspan class="cls-26" x="113.24" y="55"> </tspan><tspan x="142.42" y="55">and</tspan><tspan class="cls-27" x="205.33" y="55"> </tspan><tspan x="234.51" y="55">si</tspan><tspan class="cls-12" x="258.08" y="55">c</tspan><tspan x="276.17" y="55">k</tspan><tspan class="cls-27" x="294.1" y="55"> </tspan><tspan x="323.27" y="55">in</tspan><tspan class="cls-26" x="351.98" y="55"> </tspan><tspan class="cls-17" x="381.16" y="55">t</tspan><tspan x="391.72" y="55">hese </tspan><tspan x="0" y="110">times.</tspan><tspan class="cls-28" x="92.92" y="110"> </tspan><tspan x="102.17" y="110">Th</tspan><tspan class="cls-22" x="139.28" y="110">e</tspan><tspan x="158.58" y="110">y</tspan><tspan class="cls-28" x="178.15" y="110"> </tspan><tspan x="187.4" y="110">a</tspan><tspan class="cls-25" x="208.99" y="110">r</tspan><tspan x="222.21" y="110">e</tspan><tspan class="cls-29" x="242.12" y="110"> </tspan><tspan x="251.38" y="110">at</tspan><tspan class="cls-28" x="282.81" y="110"> </tspan><tspan class="cls-17" x="292.06" y="110">t</tspan><tspan x="302.63" y="110">he</tspan><tspan class="cls-28" x="342.28" y="110"> </tspan><tspan x="351.54" y="110">highest </tspan><tspan class="cls-9" x="0" y="165">r</tspan><tspan x="14.01" y="165">is</tspan><tspan class="cls-9" x="37.58" y="165">k</tspan><tspan x="56.06" y="165">.</tspan></text><text class="cls-6" transform="translate(1165.1 824.63)">I<tspan class="cls-30" x="10.62" y="0"> </tspan><tspan x="29.89" y="0">caaa</tspan><tspan class="cls-31" x="111.8" y="0">n</tspan><tspan class="cls-32" x="131.58" y="0">’</tspan><tspan x="143.44" y="0">t</tspan><tspan class="cls-33" x="153.28" y="0"> </tspan><tspan x="172.55" y="0">s</tspan><tspan class="cls-24" x="187.16" y="0">t</tspan><tspan x="197.25" y="0">op</tspan><tspan class="cls-33" x="240.47" y="0"> </tspan><tspan class="cls-24" x="259.74" y="0">t</tspan><tspan x="269.83" y="0">ou</tspan><tspan class="cls-12" x="311.09" y="0">c</tspan><tspan x="329.18" y="0">hing</tspan><tspan class="cls-30" x="399.17" y="0"> </tspan><tspan class="cls-15" x="418.44" y="0">m</tspan><tspan x="446.34" y="0">y </tspan><tspan class="cls-9" x="0" y="55">f</tspan><tspan x="11.23" y="55">ace</tspan></text><text class="cls-6" transform="translate(1164.82 652.79)">The<tspan class="cls-34" x="57.02" y="0"> </tspan><tspan class="cls-9" x="74.43" y="0">r</tspan><tspan x="88.44" y="0">isk</tspan><tspan class="cls-35" x="129.94" y="0"> </tspan><tspan x="147.35" y="0">of</tspan><tspan class="cls-34" x="179.68" y="0"> </tspan><tspan x="197.09" y="0">dea</tspan><tspan class="cls-17" x="260.17" y="0">t</tspan><tspan x="270.74" y="0">h</tspan><tspan class="cls-35" x="290.48" y="0"> </tspan><tspan x="307.89" y="0">is</tspan><tspan class="cls-34" x="331.46" y="0"> </tspan><tspan x="348.87" y="0">a</tspan><tspan class="cls-7" x="370.45" y="0">r</tspan><tspan x="383.6" y="0">ound </tspan><tspan x="0" y="55">3%</tspan></text></g></g></svg>