<?xml version="1.0" encoding="utf-8"?>
<!-- Generator: Adobe Illustrator 24.1.2, SVG Export Plug-In . SVG Version: 6.00 Build 0)  -->
<svg version="1.1" id="Layer_1" xmlns="http://www.w3.org/2000/svg" xmlns:xlink="http://www.w3.org/1999/xlink" x="0px" y="0px"
	 viewBox="0 0 1642.1 911.5" style="enable-background:new 0 0 1642.1 911.5;" xml:space="preserve">
<style type="text/css">
	.st0{fill:#A11D2C;}
	.st1{fill:#C55B71;}
	.st2{fill:#8ACDDD;}
	.st3{fill:#FFFFFF;}
	.st4{fill:#FFFDFD;}
	.st5{font-family:'Futura-Medium';}
	.st6{font-size:36px;}
	.st7{letter-spacing:-2;}
	.st8{letter-spacing:4;}
	.st9{letter-spacing:1;}
	.st10{letter-spacing:18;}
	.st11{letter-spacing:-1;}
	.st12{letter-spacing:8;}
	.st13{letter-spacing:6;}
</style>
<path d="M918,455.8v0.6H458.4l434.8-148.6C909.7,355.3,918,405.4,918,455.8z"/>
<path class="st0" d="M917.4,456.3h0.6c-0.3,251.4-205.7,455.2-459,455.2c-253.5,0-459-204-459-455.8C0,207.6,199.8,5.8,448.3,0.1
	L459,455.8v0l-0.6,0.5H917.4z"/>
<path class="st1" d="M893.2,307.7L458.4,456.3l0.6-0.5l345.4-299.4l0.4-0.3C843.9,200.4,873.9,251.9,893.2,307.7z"/>
<path class="st2" d="M804.8,156.1l-0.4,0.3L459,455.8v0L638,36v-0.1C702,62.9,759,104,804.8,156.1z"/>
<path class="st3" d="M638,36L638,36L459,455.8L448.3,0.1C451.9,0,455.4,0,459,0C520.5-0.1,581.3,12.2,638,36z"/>
<ellipse class="st2" cx="1061.2" cy="89.1" rx="53.8" ry="54.1"/>
<ellipse class="st4" cx="1061.2" cy="265.3" rx="53.8" ry="54.1"/>
<ellipse class="st1" cx="1061.2" cy="455.9" rx="53.8" ry="54.1"/>
<ellipse cx="1061.2" cy="652.2" rx="53.8" ry="54.1"/>
<ellipse class="st0" cx="1061.2" cy="838.9" rx="53.8" ry="54.1"/>
<text transform="matrix(1 0 0 1 1164.67 84.7)" class="st5 st6">Co</text>
<text transform="matrix(1 0 0 1 1211.53 84.7)" class="st5 st6">r</text>
<text transform="matrix(1 0 0 1 1224.6801 84.7)" class="st5 st6">ona is a n</text>
<text transform="matrix(1 0 0 1 1385.87 84.7)" class="st5 st6">e</text>
<text transform="matrix(1 0 0 1 1405.24 84.7)" class="st5 st6">w vi</text>
<text transform="matrix(1 0 0 1 1471.27 84.7)" class="st5 st6">r</text>
<text transform="matrix(1 0 0 1 1485.28 84.7)" class="st5 st6">us</text>
<text transform="matrix(1 0 0 1 1165.1 254.32)" class="st5 st6 st7">Y</text>
<text transform="matrix(1 0 0 1 1184.26 254.32)" class="st5 st6">ou</text>
<text transform="matrix(1 0 0 1 1225.52 254.32)" class="st5 st6 st8"> </text>
<text transform="matrix(1 0 0 1 1240.83 254.32)" class="st5 st6">can</text>
<text transform="matrix(1 0 0 1 1299.3099 254.32)" class="st5 st6 st8"> </text>
<text transform="matrix(1 0 0 1 1314.62 254.32)" class="st5 st6">cat</text>
<text transform="matrix(1 0 0 1 1363.21 254.32)" class="st5 st6 st9">c</text>
<text transform="matrix(1 0 0 1 1381.2999 254.32)" class="st5 st6">h</text>
<text transform="matrix(1 0 0 1 1401.04 254.32)" class="st5 st6 st8"> </text>
<text transform="matrix(1 0 0 1 1416.35 254.32)" class="st5 st6">C</text>
<text transform="matrix(1 0 0 1 1441.58 254.32)" class="st5 st6">o</text>
<text transform="matrix(1 0 0 1 1462.49 254.32)" class="st5 st6">vid-</text>
<text transform="matrix(1 0 0 1 1518.97 254.32)" class="st5 st6 st7">1</text>
<text transform="matrix(1 0 0 1 1538.27 254.32)" class="st5 st6">9</text>
<text transform="matrix(1 0 0 1 1560.49 254.32)" class="st5 st6 st8"> </text>
<text transform="matrix(1 0 0 1 1575.8099 254.32)" class="st5 st6">li</text>
<text transform="matrix(1 0 0 1 1593.73 254.32)" class="st5 st6">k</text>
<text transform="matrix(1 0 0 1 1611.08 254.32)" class="st5 st6">e </text>
<text transform="matrix(1 0 0 1 1165.1 309.32)" class="st5 st6">y</text>
<text transform="matrix(1 0 0 1 1183.98 309.32)" class="st5 st6">ou cat</text>
<text transform="matrix(1 0 0 1 1284.9299 309.32)" class="st5 st6 st9">c</text>
<text transform="matrix(1 0 0 1 1303.02 309.32)" class="st5 st6">h </text>
<text transform="matrix(1 0 0 1 1333.87 309.32)" class="st5 st6">t</text>
<text transform="matrix(1 0 0 1 1344.4299 309.32)" class="st5 st6">he </text>
<text transform="matrix(1 0 0 1 1395.2 309.32)" class="st5 st6">f</text>
<text transform="matrix(1 0 0 1 1406.47 309.32)" class="st5 st6">lu</text>
<text transform="matrix(1 0 0 1 1165.1 449.63)" class="st5 st6 st7">W</text>
<text transform="matrix(1 0 0 1 1201.1899 449.63)" class="st5 st6">e</text>
<text transform="matrix(1 0 0 1 1221.1 449.63)" class="st5 st6 st9"> </text>
<text transform="matrix(1 0 0 1 1233.72 449.63)" class="st5 st6">h</text>
<text transform="matrix(1 0 0 1 1253.46 449.63)" class="st5 st6">a</text>
<text transform="matrix(1 0 0 1 1275.36 449.63)" class="st5 st6">v</text>
<text transform="matrix(1 0 0 1 1292.84 449.63)" class="st5 st6">e</text>
<text transform="matrix(1 0 0 1 1312.75 449.63)" class="st5 st6 st9"> </text>
<text transform="matrix(1 0 0 1 1325.37 449.63)" class="st5 st6">t</text>
<text transform="matrix(1 0 0 1 1335.46 449.63)" class="st5 st6">o</text>
<text transform="matrix(1 0 0 1 1357.1 449.63)" class="st5 st6 st9"> </text>
<text transform="matrix(1 0 0 1 1369.71 449.63)" class="st5 st6">t</text>
<text transform="matrix(1 0 0 1 1379.87 449.63)" class="st5 st6">a</text>
<text transform="matrix(1 0 0 1 1401.46 449.63)" class="st5 st6">k</text>
<text transform="matrix(1 0 0 1 1418.8099 449.63)" class="st5 st6">e</text>
<text transform="matrix(1 0 0 1 1438.73 449.63)" class="st5 st6 st9"> </text>
<text transform="matrix(1 0 0 1 1451.34 449.63)" class="st5 st6">ca</text>
<text transform="matrix(1 0 0 1 1490.09 449.63)" class="st5 st6">r</text>
<text transform="matrix(1 0 0 1 1503.3 449.63)" class="st5 st6">e</text>
<text transform="matrix(1 0 0 1 1523.22 449.63)" class="st5 st6 st9"> </text>
<text transform="matrix(1 0 0 1 1535.84 449.63)" class="st5 st6">of</text>
<text transform="matrix(1 0 0 1 1568.1599 449.63)" class="st5 st6 st9"> </text>
<text transform="matrix(1 0 0 1 1580.78 449.63)" class="st5 st6">t</text>
<text transform="matrix(1 0 0 1 1591.35 449.63)" class="st5 st6">he </text>
<text transform="matrix(1 0 0 1 1165.1 504.63)" class="st5 st6">elde</text>
<text transform="matrix(1 0 0 1 1235.48 504.63)" class="st5 st6">r</text>
<text transform="matrix(1 0 0 1 1249.49 504.63)" class="st5 st6">l</text>
<text transform="matrix(1 0 0 1 1258.77 504.63)" class="st5 st6">y</text>
<text transform="matrix(1 0 0 1 1278.34 504.63)" class="st5 st6 st10"> </text>
<text transform="matrix(1 0 0 1 1307.52 504.63)" class="st5 st6">and</text>
<text transform="matrix(1 0 0 1 1370.4299 504.63)" class="st5 st6 st10"> </text>
<text transform="matrix(1 0 0 1 1399.61 504.63)" class="st5 st6">si</text>
<text transform="matrix(1 0 0 1 1423.1799 504.63)" class="st5 st6 st9">c</text>
<text transform="matrix(1 0 0 1 1441.27 504.63)" class="st5 st6">k</text>
<text transform="matrix(1 0 0 1 1459.2 504.63)" class="st5 st6 st10"> </text>
<text transform="matrix(1 0 0 1 1488.37 504.63)" class="st5 st6">in</text>
<text transform="matrix(1 0 0 1 1517.08 504.63)" class="st5 st6 st10"> </text>
<text transform="matrix(1 0 0 1 1546.26 504.63)" class="st5 st6">t</text>
<text transform="matrix(1 0 0 1 1556.8199 504.63)" class="st5 st6">hese </text>
<text transform="matrix(1 0 0 1 1165.1 559.6301)" class="st5 st6">times.</text>
<text transform="matrix(1 0 0 1 1258.02 559.6301)" class="st5 st6 st11"> </text>
<text transform="matrix(1 0 0 1 1267.27 559.6301)" class="st5 st6">Th</text>
<text transform="matrix(1 0 0 1 1304.38 559.6301)" class="st5 st6">e</text>
<text transform="matrix(1 0 0 1 1323.6799 559.6301)" class="st5 st6">y</text>
<text transform="matrix(1 0 0 1 1343.25 559.6301)" class="st5 st6 st11"> </text>
<text transform="matrix(1 0 0 1 1352.5 559.6301)" class="st5 st6">a</text>
<text transform="matrix(1 0 0 1 1374.09 559.6301)" class="st5 st6">r</text>
<text transform="matrix(1 0 0 1 1387.3099 559.6301)" class="st5 st6">e</text>
<text transform="matrix(1 0 0 1 1407.22 559.6301)" class="st5 st6 st11"> </text>
<text transform="matrix(1 0 0 1 1416.48 559.6301)" class="st5 st6">at</text>
<text transform="matrix(1 0 0 1 1447.9099 559.6301)" class="st5 st6 st11"> </text>
<text transform="matrix(1 0 0 1 1457.1599 559.6301)" class="st5 st6">t</text>
<text transform="matrix(1 0 0 1 1467.73 559.6301)" class="st5 st6">he</text>
<text transform="matrix(1 0 0 1 1507.38 559.6301)" class="st5 st6 st11"> </text>
<text transform="matrix(1 0 0 1 1516.64 559.6301)" class="st5 st6">highest</text>
<text transform="matrix(1 0 0 1 1165.1 824.6301)" class="st5 st6">I</text>
<text transform="matrix(1 0 0 1 1175.72 824.6301)" class="st5 st6 st12"> </text>
<text transform="matrix(1 0 0 1 1194.99 824.6301)" class="st5 st6">caaa</text>
<text transform="matrix(1 0 0 1 1276.9 824.6301)" class="st5 st6">n</text>
<text transform="matrix(1 0 0 1 1296.6799 824.6301)" class="st5 st6">’</text>
<text transform="matrix(1 0 0 1 1308.54 824.6301)" class="st5 st6">t</text>
<text transform="matrix(1 0 0 1 1318.38 824.6301)" class="st5 st6 st12"> </text>
<text transform="matrix(1 0 0 1 1337.65 824.6301)" class="st5 st6">s</text>
<text transform="matrix(1 0 0 1 1352.26 824.6301)" class="st5 st6">t</text>
<text transform="matrix(1 0 0 1 1362.35 824.6301)" class="st5 st6">op</text>
<text transform="matrix(1 0 0 1 1405.5699 824.6301)" class="st5 st6 st12"> </text>
<text transform="matrix(1 0 0 1 1424.84 824.6301)" class="st5 st6">t</text>
<text transform="matrix(1 0 0 1 1434.9299 824.6301)" class="st5 st6">ou</text>
<text transform="matrix(1 0 0 1 1476.1899 824.6301)" class="st5 st6 st9">c</text>
<text transform="matrix(1 0 0 1 1494.28 824.6301)" class="st5 st6">hing</text>
<text transform="matrix(1 0 0 1 1564.27 824.6301)" class="st5 st6 st12"> </text>
<text transform="matrix(1 0 0 1 1583.54 824.6301)" class="st5 st6">m</text>
<text transform="matrix(1 0 0 1 1611.4399 824.6301)" class="st5 st6">y </text>
<text transform="matrix(1 0 0 1 1165.1 879.6301)" class="st5 st6">f</text>
<text transform="matrix(1 0 0 1 1176.33 879.6301)" class="st5 st6">ace</text>
<text transform="matrix(1 0 0 1 1164.8199 671.79)" class="st5 st6">The</text>
<text transform="matrix(1 0 0 1 1221.84 671.79)" class="st5 st6 st13"> </text>
<text transform="matrix(1 0 0 1 1239.25 671.79)" class="st5 st6">r</text>
<text transform="matrix(1 0 0 1 1253.26 671.79)" class="st5 st6">isk</text>
<text transform="matrix(1 0 0 1 1294.76 671.79)" class="st5 st6 st13"> </text>
<text transform="matrix(1 0 0 1 1312.1699 671.79)" class="st5 st6">of</text>
<text transform="matrix(1 0 0 1 1344.5 671.79)" class="st5 st6 st13"> </text>
<text transform="matrix(1 0 0 1 1361.9099 671.79)" class="st5 st6">dea</text>
<text transform="matrix(1 0 0 1 1424.99 671.79)" class="st5 st6">t</text>
<text transform="matrix(1 0 0 1 1435.5599 671.79)" class="st5 st6">h</text>
<text transform="matrix(1 0 0 1 1455.2999 671.79)" class="st5 st6 st13"> </text>
<text transform="matrix(1 0 0 1 1472.71 671.79)" class="st5 st6">is</text>
<text transform="matrix(1 0 0 1 1496.2799 671.79)" class="st5 st6 st13"> </text>
<text transform="matrix(1 0 0 1 1513.6899 671.79)" class="st5 st6">a</text>
<text transform="matrix(1 0 0 1 1535.27 671.79)" class="st5 st6">r</text>
<text transform="matrix(1 0 0 1 1548.4199 671.79)" class="st5 st6">ound </text>
<text transform="matrix(1 0 0 1 1164.8199 726.79)" class="st5 st6">3%</text>
</svg>
