<svg xmlns="http://www.w3.org/2000/svg" viewBox="0 0 862.02 863.92"><defs><style>.cls-1{fill:#a01d2b;}.cls-2{isolation:isolate;}.cls-3{fill:#fff;}</style></defs><g id="Layer_2" data-name="Layer 2"><g id="Layer_1-2" data-name="Layer 1"><ellipse class="cls-1" cx="836.8" cy="355.05" rx="24.92" ry="26.37" transform="translate(-70.91 403.64) rotate(-26.06)"/><ellipse class="cls-1" cx="411.41" cy="444.58" rx="270.72" ry="286.42" transform="translate(-153.46 225.89) rotate(-26.06)"/><polygon class="cls-1" points="159.69 381.15 164.98 354.78 23.43 318.17 18.14 344.54 159.69 381.15"/><polygon class="cls-1" points="741.4 616.99 757.25 566.18 619.54 514.52 603.69 565.34 741.4 616.99"/><polygon class="cls-1" points="625.37 113.1 602.59 98.52 530.62 224.81 553.41 239.39 625.37 113.1"/><polygon class="cls-1" points="296.15 653.04 274.56 639.22 183.51 799 205.1 812.82 296.15 653.04"/><polygon class="cls-1" points="306.11 204.99 338.64 193.72 287.39 51.62 254.85 62.89 306.11 204.99"/><polygon class="cls-1" points="466.86 625.4 440.4 631.31 490.09 830.92 516.55 825.02 466.86 625.4"/><polygon class="cls-1" points="831.41 368.6 825.59 345.21 613.01 392.67 618.83 416.06 831.41 368.6"/><polygon class="cls-1" points="209.42 541.83 191.61 492.45 56.49 539.24 74.3 588.61 209.42 541.83"/><ellipse class="cls-1" cx="25.21" cy="332.5" rx="24.92" ry="26.37" transform="translate(-143.48 44.87) rotate(-26.06)"/><ellipse class="cls-1" cx="42.37" cy="571.89" rx="40.61" ry="42.96" transform="translate(-246.89 76.73) rotate(-26.06)"/><ellipse class="cls-1" cx="185.87" cy="820.73" rx="24.92" ry="26.37" transform="translate(-341.61 165.05) rotate(-26.06)"/><ellipse class="cls-1" cx="505.1" cy="837.82" rx="24.92" ry="26.37" transform="translate(-316.67 307.01) rotate(-26.06)"/><ellipse class="cls-1" cx="779.17" cy="609.49" rx="59.81" ry="63.28" transform="translate(-188.52 404.19) rotate(-26.06)"/><ellipse class="cls-1" cx="614.3" cy="103.18" rx="24.92" ry="26.37" transform="translate(17.11 280.31) rotate(-26.06)"/><ellipse class="cls-1" cx="268.1" cy="43.82" rx="41.84" ry="44.26" transform="translate(8 122.21) rotate(-26.06)"/><g id="BACK_TO_SCHOOL_WITH_COVID-19" data-name="BACK TO SCHOOL WITH COVID-19"><g class="cls-2"><path class="cls-3" d="M297.32,487.4H263.9L218.4,380.8h-1.31A129.07,129.07,0,0,1,219.61,407V487.4H194.24V340.23h33.62L273,445.72h1.11a142.74,142.74,0,0,1-1.92-25.16V340.23h25.17Z"/><path class="cls-3" d="M424.56,413.61q0,36.54-13.69,56.17t-39.16,19.63q-25.56,0-39.26-19.58t-13.69-56.42q0-36.54,13.69-56t39.46-19.48q25.47,0,39.06,19.58T424.56,413.61Zm-77.81,0q0,25.17,6.34,38.36t18.62,13.18q24.77,0,24.77-51.54t-24.57-51.54q-12.48,0-18.82,13.14T346.75,413.61Z"/><path class="cls-3" d="M441.47,473.61c0-5.24,1.4-9.29,4.18-12.18s6.93-4.33,12.43-4.33,9.67,1.43,12.49,4.28,4.22,6.93,4.22,12.23-1.46,9.3-4.37,12.18-7,4.33-12.34,4.33-9.56-1.46-12.38-4.38S441.47,478.78,441.47,473.61Z"/><path class="cls-3" d="M610.29,487.4h-27V401q0-14.1,1.41-32.41c-.47.67-2.2,2.71-5.18,6.14s-8.81,9.56-17.47,18.42l-15.3-16.71,39.16-36.24h24.36Z"/><path class="cls-3" d="M238.4,551.7h-8.89l-3.74-20a68.69,68.69,0,0,1-1.23-9.71l-.21,1.94-1.08,7.87-3.63,19.94h-8.9l-6.93-38.25h7L214.2,535q.5,3.26,1.34,10.18.65-7,1.22-10l4.09-21.74h7.37l4.09,21.74c.54,3.23,1,6.59,1.28,10.07q.91-7.74,1.33-10.23l3.33-21.58h7Z"/><path class="cls-3" d="M266.42,551.7l-2.19-9.65h-10l-2.2,9.65h-7.12l9.48-38.41h9.65l9.5,38.41Zm-3.53-16-2-8.89c-.12-.55-.4-1.9-.82-4.07s-.69-3.63-.78-4.36c-.22,1.5-.51,3.15-.86,5s-1.25,5.92-2.72,12.36Z"/><path class="cls-3" d="M294.37,541.16c0,3.57-.91,6.31-2.71,8.21s-4.41,2.85-7.81,2.85a17.12,17.12,0,0,1-8.5-2v-7a14.67,14.67,0,0,0,7.87,2.8,4,4,0,0,0,3.08-1.12,4.34,4.34,0,0,0,1-3.06,5.58,5.58,0,0,0-1.23-3.5,18.43,18.43,0,0,0-4.05-3.51,18,18,0,0,1-3.73-3.26,11.88,11.88,0,0,1-2-3.49,13.47,13.47,0,0,1-.69-4.5,10.87,10.87,0,0,1,2.73-7.8,9.65,9.65,0,0,1,7.34-2.88,16.05,16.05,0,0,1,8.45,2.46l-2.35,5.7a24.78,24.78,0,0,0-2.63-1.31,7.59,7.59,0,0,0-2.94-.57,3.24,3.24,0,0,0-2.66,1.14,4.76,4.76,0,0,0-.93,3.1,5.36,5.36,0,0,0,1.11,3.37,16.64,16.64,0,0,0,3.89,3.27,16.35,16.35,0,0,1,5.22,5.13A11.88,11.88,0,0,1,294.37,541.16Z"/><path class="cls-3" d="M322.7,551.7h-7.11V534.93h-9.4V551.7h-7.11V513.45h7.11v15.2h9.4v-15.2h7.11Z"/><path class="cls-3" d="M351.9,528.55l5.1-15.1h7.46l-9.08,22.92V551.7h-7v-15l-9.05-23.21h7.51Z"/><path class="cls-3" d="M393.35,532.52q0,9.5-3.56,14.6a12.75,12.75,0,0,1-20.38,0q-3.57-5.1-3.56-14.67t3.56-14.56a11.77,11.77,0,0,1,10.25-5.06,11.57,11.57,0,0,1,10.15,5.09Q393.35,523,393.35,532.52Zm-20.23,0c0,4.36.55,7.69,1.65,10s2.71,3.43,4.84,3.43q6.43,0,6.44-13.4t-6.39-13.39c-2.16,0-3.79,1.13-4.89,3.41S373.12,528.14,373.12,532.52Z"/><path class="cls-3" d="M422.44,513.45V538.2q0,6.82-3.09,10.43t-8.92,3.59q-5.7,0-8.68-3.57t-3-10.55V513.45h7.07v25.17q0,7.3,4.84,7.3a3.94,3.94,0,0,0,3.48-1.86,9.54,9.54,0,0,0,1.23-5.28V513.45Z"/><path class="cls-3" d="M436.15,536.81V551.7H429V513.45h9.32q5.91,0,8.72,2.8t2.82,8.55q0,7.26-4.9,10.13l7.36,16.77h-7.62l-6-14.89Zm0-6.12H438a4.26,4.26,0,0,0,3.61-1.42,6.86,6.86,0,0,0,1.1-4.26,6.06,6.06,0,0,0-1.16-4.17,4.72,4.72,0,0,0-3.6-1.24h-1.78Z"/><path class="cls-3" d="M492.69,551.7h-7.12V534.93h-9.39V551.7h-7.12V513.45h7.12v15.2h9.39v-15.2h7.12Z"/><path class="cls-3" d="M517.55,551.7l-2.2-9.65h-10l-2.2,9.65h-7.11l9.47-38.41h9.65l9.5,38.41Zm-3.54-16-2-8.89c-.12-.55-.39-1.9-.82-4.07s-.69-3.63-.77-4.36c-.23,1.5-.52,3.15-.87,5s-1.25,5.92-2.72,12.36Z"/><path class="cls-3" d="M554.86,551.7h-8.69L534.34,524H534a33.34,33.34,0,0,1,.66,6.81v20.9h-6.6V513.45h8.74l11.73,27.42h.28a37.44,37.44,0,0,1-.49-6.54V513.45h6.54Z"/><path class="cls-3" d="M585.94,532.21q0,9.46-3.86,14.48t-11.11,5h-9.36V513.45h10.23a12.23,12.23,0,0,1,10.38,4.93Q585.94,523.31,585.94,532.21Zm-7.3.21q0-12.82-7.06-12.82h-2.86v25.87H571a6.16,6.16,0,0,0,5.75-3.25C578,540,578.64,536.78,578.64,532.42Z"/><path class="cls-3" d="M608.94,541.16q0,5.36-2.71,8.21t-7.81,2.85a17.12,17.12,0,0,1-8.5-2v-7a14.67,14.67,0,0,0,7.87,2.8,4,4,0,0,0,3.08-1.12,4.34,4.34,0,0,0,1-3.06,5.58,5.58,0,0,0-1.23-3.5,18.43,18.43,0,0,0-4-3.51,18,18,0,0,1-3.73-3.26,11.88,11.88,0,0,1-2-3.49,13.47,13.47,0,0,1-.69-4.5,10.87,10.87,0,0,1,2.73-7.8,9.65,9.65,0,0,1,7.34-2.88,16.05,16.05,0,0,1,8.45,2.46l-2.35,5.7a24.78,24.78,0,0,0-2.63-1.31,7.59,7.59,0,0,0-2.94-.57,3.24,3.24,0,0,0-2.66,1.14,4.76,4.76,0,0,0-.93,3.1,5.36,5.36,0,0,0,1.11,3.37,16.64,16.64,0,0,0,3.89,3.27,16.35,16.35,0,0,1,5.22,5.13A11.88,11.88,0,0,1,608.94,541.16Z"/></g><text class="cls-2"/></g></g></g></svg>