<svg xmlns="http://www.w3.org/2000/svg" viewBox="0 0 862.02 863.92"><defs><style>.cls-1{fill:#a01d2b;}.cls-2{isolation:isolate;}.cls-3{fill:#fff;}</style></defs><g id="Layer_2" data-name="Layer 2"><g id="Layer_1-2" data-name="Layer 1"><ellipse class="cls-1" cx="836.8" cy="355.05" rx="24.92" ry="26.37" transform="translate(-70.91 403.64) rotate(-26.06)"/><ellipse class="cls-1" cx="411.41" cy="444.58" rx="270.72" ry="286.42" transform="translate(-153.46 225.89) rotate(-26.06)"/><polygon class="cls-1" points="159.69 381.15 164.98 354.78 23.43 318.17 18.14 344.54 159.69 381.15"/><polygon class="cls-1" points="741.4 616.99 757.25 566.18 619.54 514.52 603.69 565.34 741.4 616.99"/><polygon class="cls-1" points="625.37 113.1 602.59 98.52 530.62 224.81 553.41 239.39 625.37 113.1"/><polygon class="cls-1" points="296.15 653.04 274.56 639.22 183.51 799 205.1 812.82 296.15 653.04"/><polygon class="cls-1" points="306.11 204.99 338.64 193.72 287.39 51.62 254.85 62.89 306.11 204.99"/><polygon class="cls-1" points="466.86 625.4 440.4 631.31 490.09 830.92 516.55 825.02 466.86 625.4"/><polygon class="cls-1" points="831.41 368.6 825.59 345.21 613.01 392.67 618.83 416.06 831.41 368.6"/><polygon class="cls-1" points="209.42 541.83 191.61 492.45 56.49 539.24 74.3 588.61 209.42 541.83"/><ellipse class="cls-1" cx="25.21" cy="332.5" rx="24.92" ry="26.37" transform="translate(-143.48 44.87) rotate(-26.06)"/><ellipse class="cls-1" cx="42.37" cy="571.89" rx="40.61" ry="42.96" transform="translate(-246.89 76.73) rotate(-26.06)"/><ellipse class="cls-1" cx="185.87" cy="820.73" rx="24.92" ry="26.37" transform="translate(-341.61 165.05) rotate(-26.06)"/><ellipse class="cls-1" cx="505.1" cy="837.82" rx="24.92" ry="26.37" transform="translate(-316.67 307.01) rotate(-26.06)"/><ellipse class="cls-1" cx="779.17" cy="609.49" rx="59.81" ry="63.28" transform="translate(-188.52 404.19) rotate(-26.06)"/><ellipse class="cls-1" cx="614.3" cy="103.18" rx="24.92" ry="26.37" transform="translate(17.11 280.31) rotate(-26.06)"/><ellipse class="cls-1" cx="268.1" cy="43.82" rx="41.84" ry="44.26" transform="translate(8 122.21) rotate(-26.06)"/><g id="BACK_TO_SCHOOL_WITH_COVID-19" data-name="BACK TO SCHOOL WITH COVID-19"><g class="cls-2"><path class="cls-3" d="M297.32,487.4H263.9L218.4,380.8h-1.31A129.07,129.07,0,0,1,219.61,407V487.4H194.24V340.23h33.62L273,445.72h1.11a142.74,142.74,0,0,1-1.92-25.16V340.23h25.17Z"/><path class="cls-3" d="M424.56,413.61q0,36.54-13.69,56.17t-39.16,19.63q-25.56,0-39.26-19.58t-13.69-56.42q0-36.54,13.69-56t39.46-19.48q25.47,0,39.06,19.58T424.56,413.61Zm-77.81,0q0,25.17,6.34,38.36t18.62,13.18q24.77,0,24.77-51.54t-24.57-51.54q-12.48,0-18.82,13.14T346.75,413.61Z"/><path class="cls-3" d="M441.47,473.61c0-5.24,1.4-9.29,4.18-12.18s6.93-4.33,12.43-4.33,9.67,1.43,12.49,4.28,4.22,6.93,4.22,12.23-1.46,9.3-4.37,12.18-7,4.33-12.34,4.33-9.56-1.46-12.38-4.38S441.47,478.78,441.47,473.61Z"/><path class="cls-3" d="M623.28,487.4H544.35V467l26.18-37.05q10.77-15.3,14.79-22.7A68.35,68.35,0,0,0,591.26,393a51.4,51.4,0,0,0,1.92-14q0-8.44-3.78-12.68a12.54,12.54,0,0,0-9.81-4.23,18.84,18.84,0,0,0-10,2.82q-4.64,2.82-11.27,10.17L543.05,359q10.56-12,19.62-16.41a44.15,44.15,0,0,1,19.63-4.43q17.82,0,27.84,10.47t10,29.1a68.27,68.27,0,0,1-1.81,16,75.25,75.25,0,0,1-5.48,15.15,128.21,128.21,0,0,1-9.21,15.81q-5.55,8.21-28.59,37.59V463h48.22Z"/><path class="cls-3" d="M215.34,551.7h-7.59l-6.28-16.35-2.85,2.85v13.5H191.5V513.45h7.12v19l2.49-5.73,6.51-13.24h7.61L206.39,530Z"/><path class="cls-3" d="M236,551.7H218.71V513.45H236v6.15H225.83v9.1h9.39v6.18h-9.39v10.59H236Z"/><path class="cls-3" d="M258.77,551.7H241.53V513.45h17.24v6.15H248.65v9.1H258v6.18h-9.39v10.59h10.12Z"/><path class="cls-3" d="M285.2,525.22q0,6.1-3.08,9.36t-8.88,3.25h-1.78V551.7h-7.12V513.45h9.71Q285.2,513.45,285.2,525.22Zm-13.74,6.44h1.36a5,5,0,0,0,3.9-1.44c.85-1,1.28-2.53,1.28-4.71a7,7,0,0,0-1.18-4.46,4.38,4.38,0,0,0-3.63-1.45h-1.73Z"/><path class="cls-3" d="M312.46,528.55l5.1-15.1H325l-9.08,22.92V551.7h-7v-15l-9.05-23.21h7.5Z"/><path class="cls-3" d="M353.9,532.52q0,9.5-3.56,14.6a12.74,12.74,0,0,1-20.38,0q-3.56-5.1-3.55-14.67T330,517.91a11.79,11.79,0,0,1,10.26-5.06,11.58,11.58,0,0,1,10.15,5.09Q353.91,523,353.9,532.52Zm-20.22,0c0,4.36.55,7.69,1.65,10s2.71,3.43,4.84,3.43q6.43,0,6.43-13.4t-6.38-13.39c-2.16,0-3.79,1.13-4.89,3.41S333.68,528.14,333.68,532.52Z"/><path class="cls-3" d="M383,513.45V538.2q0,6.82-3.09,10.43T371,552.22q-5.7,0-8.69-3.57t-3-10.55V513.45h7.06v25.17q0,7.3,4.84,7.3a3.94,3.94,0,0,0,3.48-1.86,9.54,9.54,0,0,0,1.23-5.28V513.45Z"/><path class="cls-3" d="M396.71,536.81V551.7h-7.12V513.45h9.32q5.91,0,8.72,2.8c1.88,1.87,2.81,4.72,2.81,8.55q0,7.26-4.89,10.13l7.35,16.77h-7.61l-6-14.89Zm0-6.12h1.83a4.28,4.28,0,0,0,3.61-1.42,6.93,6.93,0,0,0,1.1-4.26q0-2.93-1.17-4.17a4.68,4.68,0,0,0-3.59-1.24h-1.78Z"/><path class="cls-3" d="M454,532.21q0,9.46-3.86,14.48t-11.11,5h-9.37V513.45h10.23a12.26,12.26,0,0,1,10.39,4.93Q454,523.31,454,532.21Zm-7.3.21q0-12.82-7.07-12.82h-2.85v25.87H439a6.18,6.18,0,0,0,5.76-3.25C446,540,446.66,536.78,446.66,532.42Z"/><path class="cls-3" d="M460.81,551.7V513.45h6.7V551.7Z"/><path class="cls-3" d="M493,541.16q0,5.36-2.71,8.21t-7.81,2.85a17.12,17.12,0,0,1-8.5-2v-7a14.67,14.67,0,0,0,7.87,2.8A4,4,0,0,0,485,544.9a4.34,4.34,0,0,0,1-3.06,5.58,5.58,0,0,0-1.23-3.5,18.43,18.43,0,0,0-4.05-3.51,18,18,0,0,1-3.73-3.26,11.88,11.88,0,0,1-2-3.49,13.47,13.47,0,0,1-.69-4.5,10.84,10.84,0,0,1,2.74-7.8,9.62,9.62,0,0,1,7.33-2.88,16.11,16.11,0,0,1,8.46,2.46l-2.36,5.7a24.78,24.78,0,0,0-2.63-1.31,7.59,7.59,0,0,0-2.94-.57,3.24,3.24,0,0,0-2.66,1.14,4.76,4.76,0,0,0-.93,3.1,5.36,5.36,0,0,0,1.11,3.37,16.64,16.64,0,0,0,3.89,3.27,16.35,16.35,0,0,1,5.22,5.13A11.88,11.88,0,0,1,493,541.16Z"/><path class="cls-3" d="M509.48,551.7h-7.1v-32h-7.32v-6.25H516.8v6.25h-7.32Z"/><path class="cls-3" d="M537.16,551.7l-2.2-9.65H525l-2.2,9.65h-7.11l9.47-38.41h9.65l9.5,38.41Zm-3.54-16-2-8.89c-.12-.55-.39-1.9-.82-4.07s-.69-3.63-.77-4.36c-.23,1.5-.52,3.15-.87,5s-1.25,5.92-2.72,12.36Z"/><path class="cls-3" d="M574.47,551.7h-8.69L554,524h-.34a33.34,33.34,0,0,1,.66,6.81v20.9h-6.6V513.45h8.74l11.73,27.42h.28a37.44,37.44,0,0,1-.49-6.54V513.45h6.54Z"/><path class="cls-3" d="M593.91,519.13q-3.06,0-4.83,3.58t-1.77,10q0,13.29,6.94,13.29A12.63,12.63,0,0,0,600.6,544v6.33a12.67,12.67,0,0,1-7.16,1.85,11.25,11.25,0,0,1-9.93-5.14Q580,541.95,580,532.63t3.57-14.52a11.39,11.39,0,0,1,9.93-5.21,13.76,13.76,0,0,1,4,.58,16,16,0,0,1,4.12,2l-2.36,5.78a21.24,21.24,0,0,0-2.51-1.48A6.46,6.46,0,0,0,593.91,519.13Z"/><path class="cls-3" d="M623.26,551.7H606V513.45h17.24v6.15H613.14v9.1h9.39v6.18h-9.39v10.59h10.12Z"/></g><text class="cls-2"/></g></g></g></svg>