<svg xmlns="http://www.w3.org/2000/svg" viewBox="0 0 862.02 863.92"><defs><style>.cls-1{fill:#a01d2b;}.cls-2{isolation:isolate;}.cls-3{fill:#fff;}</style></defs><g id="Layer_2" data-name="Layer 2"><g id="Layer_1-2" data-name="Layer 1"><ellipse class="cls-1" cx="836.8" cy="355.05" rx="24.92" ry="26.37" transform="translate(-70.91 403.64) rotate(-26.06)"/><ellipse class="cls-1" cx="411.41" cy="444.58" rx="270.72" ry="286.42" transform="translate(-153.46 225.89) rotate(-26.06)"/><polygon class="cls-1" points="159.69 381.15 164.98 354.78 23.43 318.17 18.14 344.54 159.69 381.15"/><polygon class="cls-1" points="741.4 616.99 757.25 566.18 619.54 514.52 603.69 565.34 741.4 616.99"/><polygon class="cls-1" points="625.37 113.1 602.59 98.52 530.62 224.81 553.41 239.39 625.37 113.1"/><polygon class="cls-1" points="296.15 653.04 274.56 639.22 183.51 799 205.1 812.82 296.15 653.04"/><polygon class="cls-1" points="306.11 204.99 338.64 193.72 287.39 51.62 254.85 62.89 306.11 204.99"/><polygon class="cls-1" points="466.86 625.4 440.4 631.31 490.09 830.92 516.55 825.02 466.86 625.4"/><polygon class="cls-1" points="831.41 368.6 825.59 345.21 613.01 392.67 618.83 416.06 831.41 368.6"/><polygon class="cls-1" points="209.42 541.83 191.61 492.45 56.49 539.24 74.3 588.61 209.42 541.83"/><ellipse class="cls-1" cx="25.21" cy="332.5" rx="24.92" ry="26.37" transform="translate(-143.48 44.87) rotate(-26.06)"/><ellipse class="cls-1" cx="42.37" cy="571.89" rx="40.61" ry="42.96" transform="translate(-246.89 76.73) rotate(-26.06)"/><ellipse class="cls-1" cx="185.87" cy="820.73" rx="24.92" ry="26.37" transform="translate(-341.61 165.05) rotate(-26.06)"/><ellipse class="cls-1" cx="505.1" cy="837.82" rx="24.92" ry="26.37" transform="translate(-316.67 307.01) rotate(-26.06)"/><ellipse class="cls-1" cx="779.17" cy="609.49" rx="59.81" ry="63.28" transform="translate(-188.52 404.19) rotate(-26.06)"/><ellipse class="cls-1" cx="614.3" cy="103.18" rx="24.92" ry="26.37" transform="translate(17.11 280.31) rotate(-26.06)"/><ellipse class="cls-1" cx="268.1" cy="43.82" rx="41.84" ry="44.26" transform="translate(8 122.21) rotate(-26.06)"/><g id="BACK_TO_SCHOOL_WITH_COVID-19" data-name="BACK TO SCHOOL WITH COVID-19"><g class="cls-2"><path class="cls-3" d="M297.32,487.4H263.9L218.4,380.8h-1.31A129.07,129.07,0,0,1,219.61,407V487.4H194.24V340.23h33.62L273,445.72h1.11a142.74,142.74,0,0,1-1.92-25.16V340.23h25.17Z"/><path class="cls-3" d="M424.56,413.61q0,36.54-13.69,56.17t-39.16,19.63q-25.56,0-39.26-19.58t-13.69-56.42q0-36.54,13.69-56t39.46-19.48q25.47,0,39.06,19.58T424.56,413.61Zm-77.81,0q0,25.17,6.34,38.36t18.62,13.18q24.77,0,24.77-51.54t-24.57-51.54q-12.48,0-18.82,13.14T346.75,413.61Z"/><path class="cls-3" d="M441.47,473.61c0-5.24,1.4-9.29,4.18-12.18s6.93-4.33,12.43-4.33,9.67,1.43,12.49,4.28,4.22,6.93,4.22,12.23-1.46,9.3-4.37,12.18-7,4.33-12.34,4.33-9.56-1.46-12.38-4.38S441.47,478.78,441.47,473.61Z"/><path class="cls-3" d="M620.36,373.35q0,13.89-6.85,23.3t-19.33,13v.8q13.89,2.22,21.49,10.87t7.61,23.56q0,20.34-12.64,32.41t-34.58,12.08q-19.53,0-32.81-6.94V457.91a62.1,62.1,0,0,0,14.39,6.34,52.11,52.11,0,0,0,14.9,2.31q11.67,0,17.62-5.38t5.94-17.07q0-22-27.08-22h-8.36V401.63h8q12,0,18.38-5.63t6.39-16.81q0-8.76-4.08-13.24t-11.53-4.48q-11.37,0-22.14,9.66L543.25,353q14.89-14.89,37.54-14.9,18.63,0,29.1,9.42T620.36,373.35Z"/><path class="cls-3" d="M258.5,551.7l-2.2-9.65h-10l-2.2,9.65H237l9.47-38.41h9.65l9.5,38.41Zm-3.54-16-2-8.89c-.12-.55-.39-1.9-.82-4.07s-.69-3.63-.77-4.36c-.23,1.5-.52,3.15-.87,5s-1.25,5.92-2.72,12.36Z"/><path class="cls-3" d="M284.76,513.45h7.17l-9,38.25h-9.05l-8.95-38.25h7.17l5,23.36a85.8,85.8,0,0,1,1.33,8.56q.56-4.74,1.39-8.56Z"/><path class="cls-3" d="M320.82,532.52q0,9.5-3.56,14.6a12.75,12.75,0,0,1-20.38,0q-3.56-5.1-3.56-14.67t3.56-14.56a11.77,11.77,0,0,1,10.26-5.06,11.6,11.6,0,0,1,10.15,5.09Q320.81,523,320.82,532.52Zm-20.23,0c0,4.36.55,7.69,1.65,10s2.72,3.43,4.84,3.43q6.44,0,6.44-13.4t-6.38-13.39c-2.17,0-3.8,1.13-4.9,3.41S300.59,528.14,300.59,532.52Z"/><path class="cls-3" d="M327.67,551.7V513.45h6.7V551.7Z"/><path class="cls-3" d="M366.79,532.21q0,9.46-3.86,14.48t-11.11,5h-9.36V513.45h10.23a12.24,12.24,0,0,1,10.38,4.93Q366.79,523.31,366.79,532.21Zm-7.3.21q0-12.82-7.06-12.82h-2.86v25.87h2.31a6.16,6.16,0,0,0,5.75-3.25C358.87,540,359.49,536.78,359.49,532.42Z"/><path class="cls-3" d="M406.45,525.22q0,6.1-3.07,9.36t-8.88,3.25h-1.78V551.7H385.6V513.45h9.71Q406.46,513.45,406.45,525.22Zm-13.73,6.44h1.36a5,5,0,0,0,3.9-1.44c.85-1,1.28-2.53,1.28-4.71a7,7,0,0,0-1.18-4.46,4.38,4.38,0,0,0-3.63-1.45h-1.73Z"/><path class="cls-3" d="M434.89,551.7h-7.11V534.93h-9.39V551.7h-7.12V513.45h7.12v15.2h9.39v-15.2h7.11Z"/><path class="cls-3" d="M450.85,528.55l5.11-15.1h7.45l-9.08,22.92V551.7h-7v-15l-9.05-23.21h7.51Z"/><path class="cls-3" d="M484.21,541.16q0,5.36-2.7,8.21t-7.81,2.85a17.16,17.16,0,0,1-8.51-2v-7a14.7,14.7,0,0,0,7.88,2.8,4,4,0,0,0,3.07-1.12,4.35,4.35,0,0,0,1-3.06,5.58,5.58,0,0,0-1.23-3.5,18.53,18.53,0,0,0-4.06-3.51,18.3,18.3,0,0,1-3.73-3.26,11.85,11.85,0,0,1-2-3.49,13.47,13.47,0,0,1-.69-4.5,10.87,10.87,0,0,1,2.73-7.8,9.64,9.64,0,0,1,7.34-2.88,16.05,16.05,0,0,1,8.45,2.46l-2.35,5.7a25.77,25.77,0,0,0-2.63-1.31,7.64,7.64,0,0,0-2.95-.57,3.22,3.22,0,0,0-2.65,1.14,4.76,4.76,0,0,0-.93,3.1,5.36,5.36,0,0,0,1.11,3.37,16.43,16.43,0,0,0,3.89,3.27,16.35,16.35,0,0,1,5.22,5.13A12,12,0,0,1,484.21,541.16Z"/><path class="cls-3" d="M490.21,551.7V513.45h6.69V551.7Z"/><path class="cls-3" d="M517.68,519.13q-3.06,0-4.83,3.58c-1.18,2.39-1.76,5.71-1.76,10Q511.09,546,518,546a12.69,12.69,0,0,0,6.36-1.93v6.33a12.73,12.73,0,0,1-7.17,1.85,11.25,11.25,0,0,1-9.93-5.14q-3.46-5.13-3.47-14.45t3.57-14.52a11.39,11.39,0,0,1,9.93-5.21,13.71,13.71,0,0,1,4,.58,16,16,0,0,1,4.12,2l-2.36,5.78a21.24,21.24,0,0,0-2.51-1.48A6.46,6.46,0,0,0,517.68,519.13Z"/><path class="cls-3" d="M547.9,551.7l-2.2-9.65h-10l-2.2,9.65h-7.11l9.47-38.41h9.65L555,551.7Zm-3.53-16-2-8.89c-.13-.55-.4-1.9-.83-4.07s-.68-3.63-.77-4.36c-.23,1.5-.52,3.15-.86,5s-1.26,5.92-2.73,12.36Z"/><path class="cls-3" d="M558.42,551.7V513.45h7.11v32h9.87v6.23Z"/><path class="cls-3" d="M329.19,583.43q-3.06,0-4.83,3.58t-1.76,10q0,13.29,6.93,13.29a12.69,12.69,0,0,0,6.36-1.93v6.33a12.73,12.73,0,0,1-7.17,1.86,11.26,11.26,0,0,1-9.93-5.15q-3.46-5.13-3.46-14.45t3.57-14.52a11.39,11.39,0,0,1,9.93-5.21,13.7,13.7,0,0,1,4,.58,15.85,15.85,0,0,1,4.12,2l-2.35,5.78a22.08,22.08,0,0,0-2.51-1.48A6.48,6.48,0,0,0,329.19,583.43Z"/><path class="cls-3" d="M366.82,596.82q0,9.51-3.56,14.6a12.73,12.73,0,0,1-20.38,0q-3.57-5.1-3.56-14.67t3.56-14.56a11.77,11.77,0,0,1,10.25-5.06,11.58,11.58,0,0,1,10.15,5.09Q366.82,587.33,366.82,596.82Zm-20.23,0c0,4.36.55,7.69,1.65,10s2.71,3.43,4.84,3.43q6.44,0,6.44-13.4t-6.39-13.39q-3.24,0-4.89,3.41T346.59,596.82Z"/><path class="cls-3" d="M399.18,616h-8.69l-11.82-27.71h-.34a34.15,34.15,0,0,1,.65,6.81V616h-6.59V577.75h8.74l11.72,27.42h.29a37.35,37.35,0,0,1-.5-6.54V577.75h6.54Z"/><path class="cls-3" d="M417.68,616h-7.09V584h-7.33v-6.25H425V584h-7.32Z"/><path class="cls-3" d="M445.36,616l-2.2-9.65h-10L431,616h-7.12l9.47-38.41H443L452.5,616Zm-3.53-16-2-8.89c-.12-.54-.4-1.9-.83-4.07s-.68-3.63-.77-4.36c-.23,1.5-.51,3.15-.86,5s-1.26,5.93-2.72,12.36Z"/><path class="cls-3" d="M468.57,583.43q-3.06,0-4.83,3.58T462,597q0,13.29,6.94,13.29a12.69,12.69,0,0,0,6.36-1.93v6.33a12.73,12.73,0,0,1-7.17,1.86,11.26,11.26,0,0,1-9.93-5.15q-3.46-5.13-3.47-14.45t3.57-14.52a11.39,11.39,0,0,1,9.93-5.21,13.71,13.71,0,0,1,4,.58,16,16,0,0,1,4.12,2L474,585.57a21.24,21.24,0,0,0-2.51-1.48A6.46,6.46,0,0,0,468.57,583.43Z"/><path class="cls-3" d="M492.43,616h-7.09V584H478v-6.25h21.75V584h-7.33Z"/></g><text class="cls-2"/></g></g></g></svg>