<svg xmlns="http://www.w3.org/2000/svg" xmlns:xlink="http://www.w3.org/1999/xlink" viewBox="0 0 647.67 916.58"><defs><style>.cls-1,.cls-16,.cls-3,.cls-8{fill:none;}.cls-2{fill:url(#linear-gradient);}.cls-3{stroke:#707070;}.cls-4{fill:#a01d2b;}.cls-5{fill:#c55b71;}.cls-34,.cls-6{fill:#fff;}.cls-7{fill:#b7d0e4;}.cls-8{stroke:#b7d0e4;stroke-linecap:round;stroke-miterlimit:10;stroke-width:2.08px;stroke-dasharray:5.08 15.24;}.cls-9{clip-path:url(#clip-path);}.cls-10{clip-path:url(#clip-path-2);}.cls-11{fill:#f2f8fd;}.cls-12{clip-path:url(#clip-path-3);}.cls-13{fill:#d0d0d0;}.cls-14{fill:#e6e6e6;}.cls-15{fill:#ebebeb;}.cls-16{stroke:#000;stroke-miterlimit:10;stroke-width:0.03px;}.cls-17{fill:#999;}.cls-18{fill:#b3b3b3;}.cls-19{clip-path:url(#clip-path-5);}.cls-20{fill:url(#linear-gradient-2);}.cls-21{clip-path:url(#clip-path-6);}.cls-22{fill:url(#linear-gradient-3);}.cls-23{clip-path:url(#clip-path-7);}.cls-24{fill:url(#linear-gradient-4);}.cls-25{fill:gray;}.cls-26{fill:#edeced;}.cls-27{fill:#d5d3d3;}.cls-28{fill:#814716;}.cls-29{fill:#452714;}.cls-30{fill:#3d332f;}.cls-31{clip-path:url(#clip-path-9);}.cls-32{fill:#f5f5f5;}.cls-32,.cls-33,.cls-34{fill-rule:evenodd;}.cls-33{fill:#e9ddd5;}.cls-35{fill:#ddbeae;}.cls-36{fill:#c45b71;}.cls-37{fill:#e8dbd3;}.cls-38{fill:#8a1d2c;}.cls-39{fill:#163963;}.cls-40{fill:#2b5699;}.cls-41{fill:#486bb0;}.cls-42{fill:#493d38;}.cls-43{fill:#594c47;}.cls-44{fill:#c68d86;}.cls-45{fill:#c8908b;}.cls-46{fill:#ded3cb;}.cls-47{fill:#d2b3a7;}</style><linearGradient id="linear-gradient" x1="435.47" y1="916.08" x2="435.47" y2="0.5" gradientUnits="userSpaceOnUse"><stop offset="0" stop-color="#bef0ff"/><stop offset="1" stop-color="#fff0f0"/></linearGradient><clipPath id="clip-path"><rect class="cls-1" x="428.91" y="406.38" width="56.39" height="40.8" transform="translate(-118.92 183.28) rotate(-20.12)"/></clipPath><clipPath id="clip-path-2"><path class="cls-1" d="M426.91,424.68a21.64,21.64,0,0,0,1.52,5.74v0a23,23,0,0,0,7.2,9.5,20.8,20.8,0,0,0,8.52,3.95,1.58,1.58,0,0,0,.29.22c1,.53,14.13,2.52,18.73.84,4.35-1.6,13.3-10.84,13.71-13l0-.18a20.77,20.77,0,0,0,3.8-8.34,22.91,22.91,0,0,0-.65-11.9v0a21.8,21.8,0,0,0-2.55-5.36,5.12,5.12,0,0,0-3.17-2.28A2.69,2.69,0,0,0,473,404a3.51,3.51,0,0,0-1.62,1.33l0,0-1.7,3.39a1.94,1.94,0,0,0-1.29-.61c-4.33-.09-15.79-.23-18.21.66-2.82,1-14.75,10.65-16.13,12.62l-3-1.27h0a3.42,3.42,0,0,0-2.1,0,2.64,2.64,0,0,0-1.09.75,5.09,5.09,0,0,0-.94,3.78M480,423a20.43,20.43,0,0,1-3.08,7.21c-.42-4.9-3.87-15.76-6.14-20a6.28,6.28,0,0,0-.48-.78L472,406l.06-.08a2.92,2.92,0,0,1,1.31-1.07,2.16,2.16,0,0,1,1-.11,4.2,4.2,0,0,1,2.59,1.88,20.08,20.08,0,0,1,2.36,5v0A21.69,21.69,0,0,1,480,423m-50.91,7.12a20.47,20.47,0,0,1-1.43-5.34,4.19,4.19,0,0,1,.77-3.1,2,2,0,0,1,.86-.59,2.87,2.87,0,0,1,1.69,0,.29.29,0,0,1,.1,0l3,1.28c1,3.63,6.44,16.2,9.22,20.41a20.11,20.11,0,0,1-7.37-3.6,21.84,21.84,0,0,1-6.84-9v0"/></clipPath><clipPath id="clip-path-3"><rect class="cls-1" x="299.82" y="468.77" width="41.15" height="68.59" transform="translate(-273 563.08) rotate(-63.28)"/></clipPath><clipPath id="clip-path-5"><rect class="cls-1" x="313.12" y="487.89" width="0.34" height="58.62" transform="translate(-289.54 564.5) rotate(-63.28)"/></clipPath><linearGradient id="linear-gradient-2" x1="-4749.02" y1="-1758.57" x2="-4747.69" y2="-1758.57" gradientTransform="matrix(0.31, 0, 0, -53.56, 1396.64, -93676.86)" gradientUnits="userSpaceOnUse"><stop offset="0" stop-color="#b3b3b3"/><stop offset="0.03" stop-color="#fbfbfb"/><stop offset="0.35" stop-color="#f3f3f3"/><stop offset="0.73" stop-color="#f2f2f2"/><stop offset="0.97" stop-color="#fff"/><stop offset="1" stop-color="#b3b3b3"/></linearGradient><clipPath id="clip-path-6"><path class="cls-1" d="M339.39,530.52s-1.62.11-8.22-3.2L294.65,509s-6.06-2.94-7.62-4.79Z"/></clipPath><linearGradient id="linear-gradient-3" x1="-5877.66" y1="-1758.57" x2="-5877.18" y2="-1758.57" gradientTransform="matrix(0.87, 0, 0, -53.56, 5040.83, -93676.28)" gradientUnits="userSpaceOnUse"><stop offset="0" stop-color="#4d4d4d"/><stop offset="0.01" stop-color="#525252"/><stop offset="0.09" stop-color="#757575"/><stop offset="0.18" stop-color="#939393"/><stop offset="0.28" stop-color="#acacac"/><stop offset="0.39" stop-color="#bebebe"/><stop offset="0.51" stop-color="#ccc"/><stop offset="0.68" stop-color="#d3d3d3"/><stop offset="1" stop-color="#d6d6d6"/></linearGradient><clipPath id="clip-path-7"><path class="cls-1" d="M318.34,519.54l-.1.19a.26.26,0,0,1-.35.12h0l-9.49-4.78a.26.26,0,0,1-.12-.36h0l.09-.18Z"/></clipPath><linearGradient id="linear-gradient-4" x1="-5237.18" y1="-2312.38" x2="-5236.22" y2="-2312.38" gradientTransform="matrix(0.43, 0, 0, -10.19, 2177.56, -23055.16)" xlink:href="#linear-gradient-2"/><clipPath id="clip-path-9"><rect class="cls-1" x="516.19" y="537.12" width="49.34" height="50.8"/></clipPath></defs><g id="Layer_2" data-name="Layer 2"><g id="Layer_1-2" data-name="Layer 1"><rect class="cls-2" x="223.77" y="0.5" width="423.4" height="915.58"/><rect class="cls-3" x="223.77" y="0.5" width="423.4" height="915.58"/><g id="Group_74" data-name="Group 74"><g id="Group_75" data-name="Group 75"><g id="Group_72" data-name="Group 72"><path class="cls-4" d="M321.85,791.54a58.81,58.81,0,0,1-9.07,32.16c-.69,1.12-1.43,2.21-2.2,3.29-.29.41-.59.81-.9,1.22A63.72,63.72,0,0,1,286.75,847l-1.35.64c-.87.4-1.74.77-2.61,1.13a63.94,63.94,0,0,1-7.91,2.66h0a62.16,62.16,0,0,1-27.94,1h0c-1.88-.37-3.73-.82-5.55-1.37h0a57.8,57.8,0,0,1-17.59-8.6V751.11A64.41,64.41,0,0,1,236,743.3a65.33,65.33,0,0,1,11.35-4.3q2.49-.68,5-1.14a61.46,61.46,0,0,1,28.31,1.2h0a58.45,58.45,0,0,1,10.56,4.09,55.44,55.44,0,0,1,25,25.18,54.46,54.46,0,0,1,3.73,10A50.22,50.22,0,0,1,321.2,784,54.68,54.68,0,0,1,321.85,791.54Z"/><path id="Path_450" data-name="Path 450" class="cls-4" d="M247.86,848.85l-5.62-1.13-7.81,30.19,5.62,1.13Z"/><path id="Path_451" data-name="Path 451" class="cls-4" d="M298.17,724.78l-10.84-3.38-11,29.37,10.84,3.38Z"/><path id="Path_453" data-name="Path 453" class="cls-4" d="M305.85,819.75l-2.94,4.6L337,843.77l2.94-4.6Z"/><path id="Path_455" data-name="Path 455" class="cls-4" d="M300,783.34l1.26,5.64,42.58-10.6-1.26-5.64Z"/><path id="Path_456" data-name="Path 456" class="cls-4" d="M245.19,705.58l-5,1.25,10.12,45.34,5-1.25Z"/><path id="Path_457" data-name="Path 457" class="cls-4" d="M282.14,838.25,271.61,842l10,28.82,10.52-3.8Z"/><ellipse id="Ellipse_198" data-name="Ellipse 198" class="cls-4" cx="237.49" cy="877.53" rx="5.62" ry="5.32" transform="translate(-361.31 193.49) rotate(-26.05)"/><ellipse id="Ellipse_199" data-name="Ellipse 199" class="cls-4" cx="288.55" cy="873.87" rx="9.16" ry="8.66" transform="translate(-354.51 215.55) rotate(-26.05)"/><ellipse id="Ellipse_200" data-name="Ellipse 200" class="cls-4" cx="341.62" cy="843.27" rx="5.62" ry="5.32" transform="translate(-335.67 235.75) rotate(-26.05)"/><ellipse id="Ellipse_201" data-name="Ellipse 201" class="cls-4" cx="345.27" cy="775.18" rx="5.62" ry="5.32" transform="translate(-305.4 230.43) rotate(-26.05)"/><ellipse id="Ellipse_202" data-name="Ellipse 202" class="cls-4" cx="296.57" cy="716.72" rx="13.5" ry="12.76" transform="translate(-284.67 203.1) rotate(-26.05)"/></g></g><g id="Group_65" data-name="Group 65"><ellipse id="Ellipse_160" data-name="Ellipse 160" class="cls-4" cx="344.29" cy="724.33" rx="8.64" ry="8.17" transform="translate(-283.16 224.84) rotate(-26.05)"/><g id="Group_64" data-name="Group 64"><path class="cls-4" d="M465.87,848.75c-.09-.7-.19-1.41-.3-2.12a83.15,83.15,0,0,0-1.84-8.7A84.1,84.1,0,0,0,458,822.54a85.08,85.08,0,0,0-38.42-38.69,89.28,89.28,0,0,0-16.24-6.31,95,95,0,0,0-43.52-1.86c-2.58.48-5.14,1.08-7.7,1.78-.77.21-1.55.44-2.33.68h0c-2.14.64-4.28,1.36-6.4,2.17h0q-4.39,1.65-8.69,3.75a99.83,99.83,0,0,0-12.81,7.48,96.6,96.6,0,0,0-22.58,21.65c-1.57,2.08-3,4.2-4.4,6.38l0,0-.25.41-.33.53A93.24,93.24,0,0,0,286,837.78h0c-.72,2-1.36,4-1.94,6h0c-.46,1.65-.89,3.33-1.26,5a87.57,87.57,0,0,0-2.09,19.5h0c0,.48,0,1,0,1.46v0a80.38,80.38,0,0,0,.8,9.9h0a83.95,83.95,0,0,0,6,21.33c.56,1.33,1.17,2.66,1.81,4a86.3,86.3,0,0,0,6.47,11.06h151c.39-.51.77-1,1.15-1.51,1.7-2.26,3.28-4.56,4.76-6.93A89.74,89.74,0,0,0,465.87,848.75Z"/><path id="Path_419" data-name="Path 419" class="cls-4" d="M430.16,755.61l-16.66-5.2-16.93,45.14,16.66,5.2Z"/><path id="Path_420" data-name="Path 420" class="cls-4" d="M265,793.64l-4.78,7.47,41.4,23.59,4.78-7.47Z"/><polygon class="cls-4" points="467.44 916.08 450.5 916.08 447.86 914.57 437.45 908.64 441.97 901.56 452.62 907.64 467.44 916.08"/><path id="Path_422" data-name="Path 422" class="cls-4" d="M295.1,898.3l-3.69-10.67-46.58,16.8,3.69,10.67Z"/><path id="Path_423" data-name="Path 423" class="cls-4" d="M432.92,845.6l1.93,8.67L500.29,838l-1.94-8.68Z"/><path id="Path_424" data-name="Path 424" class="cls-4" d="M348.73,726.1,341.07,728l15.55,69.68,7.67-1.9Z"/><ellipse id="Ellipse_165" data-name="Ellipse 165" class="cls-4" cx="502.55" cy="833.07" rx="8.64" ry="8.17" transform="translate(-314.84 305.4) rotate(-26.05)"/><ellipse id="Ellipse_166" data-name="Ellipse 166" class="cls-4" cx="427.7" cy="743.22" rx="20.75" ry="19.61" transform="translate(-282.98 263.39) rotate(-26.05)"/><ellipse id="Ellipse_167" data-name="Ellipse 167" class="cls-4" cx="261.73" cy="797.27" rx="8.64" ry="8.17" transform="translate(-323.59 195.98) rotate(-26.05)"/><path class="cls-4" d="M256.46,912.23a13.76,13.76,0,0,1-1.19,3.85H228.78c-2.55-6.59.63-14.3,7.46-17.64a14.37,14.37,0,0,1,17,2.95,12.51,12.51,0,0,1,2,3A13,13,0,0,1,256.46,912.23Z"/></g></g><g id="Group_69" data-name="Group 69"><ellipse id="Ellipse_178" data-name="Ellipse 178" class="cls-5" cx="588.85" cy="841.11" rx="6.31" ry="6.68" transform="translate(-437.33 806.91) rotate(-53.1)"/><g id="Group_68" data-name="Group 68"><path class="cls-5" d="M574.33,913.83c0,.76,0,1.49,0,2.25H432.7a66.38,66.38,0,0,1,12.45-49.35c.69-.9,1.38-1.78,2.11-2.64a61.81,61.81,0,0,1,6-6.3h0a65.17,65.17,0,0,1,12.59-9,66.29,66.29,0,0,1,12.32-5.26h0a72.08,72.08,0,0,1,8.1-2h.08A70.77,70.77,0,0,1,498,840.28h0a68.36,68.36,0,0,1,7,.21l.75.06h0c2,.18,4,.44,6.05.8,1.22.2,2.44.45,3.66.73h0a75.64,75.64,0,0,1,28.81,13.39,3.15,3.15,0,0,1,.29.22h0A75.75,75.75,0,0,1,555,865.16q2.09,2.26,3.93,4.67a69.54,69.54,0,0,1,4.53,6.55A73.09,73.09,0,0,1,573,900.44,69.44,69.44,0,0,1,574.33,913.83Z"/><path id="Path_435" data-name="Path 435" class="cls-5" d="M597.49,911.2l-2.27-13.29-37,4.21,2.27,13.29Z"/><path id="Path_436" data-name="Path 436" class="cls-5" d="M513.28,810.87l-6.82-.66L504.76,847l6.82.67Z"/><path id="Path_438" data-name="Path 438" class="cls-5" d="M451.83,868.37l6-6.28L430,835.93l-6.05,6.29Z"/><path id="Path_440" data-name="Path 440" class="cls-5" d="M589.19,844.79l-4-4.6-42.5,35.18,4,4.61Z"/><path class="cls-5" d="M618,914.78a13.73,13.73,0,0,1-1.1,1.3H594.64a16,16,0,0,1-3.25-4.19,15.34,15.34,0,0,1-.75-13.46,14.42,14.42,0,0,1,1.69-2.9c5-6.69,14.83-7.8,21.91-2.49S623,908.09,618,914.78Z"/><ellipse id="Ellipse_185" data-name="Ellipse 185" class="cls-5" cx="509.64" cy="809.91" rx="6.31" ry="6.68" transform="translate(-444.03 731.11) rotate(-53.1)"/><ellipse id="Ellipse_186" data-name="Ellipse 186" class="cls-5" cx="424.69" cy="836.39" rx="10.6" ry="11.21" transform="translate(-499.14 673.76) rotate(-53.1)"/></g></g><g id="Group_71" data-name="Group 71"><ellipse id="Ellipse_187" data-name="Ellipse 187" class="cls-5" cx="305.3" cy="770.82" rx="7.68" ry="8.12" transform="translate(-479.82 1037.2) rotate(-87.13)"/><g id="Group_70" data-name="Group 70"><path class="cls-5" d="M354.19,903.2a77.84,77.84,0,0,1-1.71,12.88H223.77v-90.7c1.36-.69,2.72-1.36,4.13-2a91.77,91.77,0,0,1,42.35-7.91A92.81,92.81,0,0,1,287.59,818c1.44.34,2.85.72,4.25,1.14h.05c.91.25,1.82.53,2.71.84a.5.5,0,0,1,.13,0c2.7.89,5.35,1.9,7.91,3a9.1,9.1,0,0,1,.85.37q3.64,1.62,7.09,3.55a89.74,89.74,0,0,1,14.1,9.76h0l0,0c1.72,1.46,3.38,3,5,4.56a85.51,85.51,0,0,1,10.49,12.57A79.92,79.92,0,0,1,354.19,903.2Z"/><path id="Path_443" data-name="Path 443" class="cls-5" d="M361.68,835.55l-11.33-11.84-34.43,29.42L327.25,865Z"/><polygon class="cls-5" points="231.91 829.98 224.59 833.95 223.77 832.61 223.77 816.64 227.9 823.41 231.91 829.98"/><polygon class="cls-5" points="342.83 916.08 321.51 916.08 323.06 910.8 342.83 916.08"/><path id="Path_448" data-name="Path 448" class="cls-5" d="M308.14,774.3,301,772.38,282.1,836.75l7.17,1.91Z"/><ellipse id="Ellipse_193" data-name="Ellipse 193" class="cls-5" cx="365.29" cy="824.25" rx="18.42" ry="19.49" transform="translate(-476.18 1147.88) rotate(-87.13)"/></g></g><g id="Group_73" data-name="Group 73"><g id="Group_72-2" data-name="Group 72-2"><path class="cls-4" d="M647.17,866v50H548.48a58.81,58.81,0,0,1,8.83-31.31h0a57.21,57.21,0,0,1,3.24-4.77q1.38-1.86,2.92-3.61A63.85,63.85,0,0,1,583.58,861a65.58,65.58,0,0,1,11.35-4.29c1.67-.46,3.33-.84,5-1.15a61.78,61.78,0,0,1,28.32,1.2,58.48,58.48,0,0,1,10.56,4.1,56.63,56.63,0,0,1,8.34,5.14Z"/><path id="Path_451-2" data-name="Path 451-2" class="cls-4" d="M645.72,842.52l-10.84-3.38-11,29.37,10.84,3.38Z"/><path id="Path_452-2" data-name="Path 452-2" class="cls-4" d="M538.25,867.27l-3.11,4.86,26.93,15.35,3.11-4.86Z"/><path id="Path_456-2" data-name="Path 456-2" class="cls-4" d="M592.74,823.32l-5,1.25,10.12,45.34,5-1.25Z"/><path class="cls-4" d="M647.17,821.78v25.1h0a13,13,0,0,1-3.26.48h0a12.88,12.88,0,0,1-10.37-4.6,11.19,11.19,0,0,1-1.53-2.37c-3.1-6.33-.18-14.12,6.52-17.39a14,14,0,0,1,8.65-1.22Z"/><ellipse id="Ellipse_203-2" data-name="Ellipse 203-2" class="cls-4" cx="536.13" cy="869.63" rx="5.62" ry="5.32" transform="translate(-327.48 323.86) rotate(-26.05)"/></g></g></g><g id="Group_82" data-name="Group 82"><path id="Path_458" data-name="Path 458" class="cls-6" d="M426.9,424.68a22,22,0,0,0,1.53,5.74v0a23,23,0,0,0,7.2,9.5,20.8,20.8,0,0,0,8.52,3.95,1.58,1.58,0,0,0,.29.22c1,.53,14.13,2.52,18.73.84,4.35-1.6,13.29-10.84,13.71-13l0-.18a20.77,20.77,0,0,0,3.8-8.34,22.91,22.91,0,0,0-.65-11.9v0a22.16,22.16,0,0,0-2.55-5.36,5.09,5.09,0,0,0-3.18-2.27A2.55,2.55,0,0,0,473,404a3.51,3.51,0,0,0-1.62,1.33l0,0-1.7,3.39a2,2,0,0,0-1.3-.61c-4.32-.08-15.78-.23-18.21.66-2.81,1-14.74,10.65-16.12,12.63l-3-1.28h0a3.42,3.42,0,0,0-2.1,0,2.64,2.64,0,0,0-1.09.75,5.1,5.1,0,0,0-.94,3.78M480,423a20.19,20.19,0,0,1-3.08,7.22c-.41-4.91-3.86-15.77-6.13-20a7.77,7.77,0,0,0-.48-.78l1.7-3.39a.35.35,0,0,1,.06-.09,2.92,2.92,0,0,1,1.31-1.07,2.16,2.16,0,0,1,1-.11,4.2,4.2,0,0,1,2.59,1.88,20.08,20.08,0,0,1,2.36,5v0A21.69,21.69,0,0,1,480,423m-50.91,7.12a20.12,20.12,0,0,1-1.43-5.33,4.2,4.2,0,0,1,.77-3.11,2,2,0,0,1,.86-.59,2.87,2.87,0,0,1,1.69,0l.1,0,3,1.28c1,3.63,6.44,16.2,9.22,20.41a20.11,20.11,0,0,1-7.37-3.6,21.84,21.84,0,0,1-6.84-9v0"/><path id="Path_459" data-name="Path 459" class="cls-7" d="M438.19,425.54a52.13,52.13,0,0,1,15.38-8.86A50.2,50.2,0,0,1,469.69,414,156.4,156.4,0,0,0,454,418.1c-5.13,1.88-15.82,7.44-15.82,7.44"/><path id="Path_460" data-name="Path 460" class="cls-7" d="M440.9,431.21q6.92-2.25,14.06-4.87,8.79-3.22,16.94-6.69c8.16-3.46-9.68,5.33-15,7.11s-16,4.46-16,4.46"/><path id="Path_461" data-name="Path 461" class="cls-7" d="M444,437.52a32.37,32.37,0,0,0,16.82-1.7A32.78,32.78,0,0,0,474.09,426a25.16,25.16,0,0,1-12.75,10.54,35.59,35.59,0,0,1-17.36,1"/><path id="Path_462" data-name="Path 462" class="cls-8" d="M466.46,409.58c-4.53-.14-11.26.25-15.06,1.65-4.36,1.59-10.65,6.6-14.21,10"/><g id="Group_81" data-name="Group 81"><g id="Group_80" data-name="Group 80"><g class="cls-9"><g id="Group_79" data-name="Group 79"><g id="Group_78" data-name="Group 78"><g class="cls-10"><g id="Group_77" data-name="Group 77"><path id="Path_463" data-name="Path 463" class="cls-11" d="M449.9,407.68l4.54,8.66-.13,1.68,3.17,7.34-.3,1.32,3.95,9-1,1.32,3.5,9.13,21.12-15.48-2.22-12.52-3.56-13.67-6.67-2.92-5.47,1.16-7.66,2.81Z"/></g></g></g></g></g></g></g></g><g id="Laptop_front_view_-_white_mockup_isolated._Vector_illustration" data-name="Laptop front view - white mockup isolated. Vector illustration"><g id="Group_94" data-name="Group 94"><g class="cls-12"><g id="Group_93" data-name="Group 93"><g id="Group_84" data-name="Group 84"><g class="cls-12"><g id="Group_83" data-name="Group 83"><path id="Path_465" data-name="Path 465" class="cls-13" d="M292.73,507.11l41,20.64a.9.9,0,0,0,1.22-.4l13.59-27a1.78,1.78,0,0,0-.79-2.39h0L308.16,478a1.73,1.73,0,0,0-2.33.77l-13.55,26.92a1,1,0,0,0,.45,1.37h0"/><path id="Path_466" data-name="Path 466" class="cls-14" d="M292.85,507.17l40.71,20.49a.92.92,0,0,0,1.22-.4h0l13.62-27.07a1.52,1.52,0,0,0-.68-2.05h0l-39.69-20a1.53,1.53,0,0,0-2.06.68h0l-13.57,27a1,1,0,0,0,.45,1.37h0"/><path id="Path_467" data-name="Path 467" class="cls-15" d="M292.85,507.17l40.71,20.49a.89.89,0,0,0,1.21-.4h0l.34-.67-42.43-21.36-.29.58a1,1,0,0,0,.45,1.36h0"/><rect id="Rectangle_20" data-name="Rectangle 20" class="cls-6" x="306.87" y="480.48" width="27.61" height="44.11" transform="translate(-272.38 563.03) rotate(-63.28)"/><rect id="Rectangle_21" data-name="Rectangle 21" class="cls-16" x="306.87" y="480.48" width="27.61" height="44.11" transform="translate(-272.38 563.03) rotate(-63.28)"/><path id="Path_468" data-name="Path 468" class="cls-17" d="M327.29,489.16a.16.16,0,0,0,.07.22.16.16,0,1,0,.15-.29h0a.16.16,0,0,0-.22.07"/><path id="Path_469" data-name="Path 469" class="cls-18" d="M327.36,489.2a.09.09,0,0,0,.16.08.09.09,0,0,0,0-.12h0a.09.09,0,0,0-.12,0"/></g></g></g><g id="Group_86" data-name="Group 86"><g class="cls-19"><g id="Group_85" data-name="Group 85"><rect id="Rectangle_23" data-name="Rectangle 23" class="cls-20" x="313.12" y="487.89" width="0.34" height="58.62" transform="translate(-289.54 564.5) rotate(-63.28)"/></g></g></g><g id="Group_88" data-name="Group 88"><g class="cls-21"><g id="Group_87" data-name="Group 87"><rect id="Rectangle_25" data-name="Rectangle 25" class="cls-22" x="312.52" y="488.47" width="0.96" height="58.62" transform="translate(-290.22 564.56) rotate(-63.28)"/></g></g></g><g id="Group_90" data-name="Group 90"><g class="cls-23"><g id="Group_89" data-name="Group 89"><rect id="Rectangle_26" data-name="Rectangle 26" class="cls-24" x="313.01" y="511.67" width="0.47" height="11.16" transform="translate(-289.61 564.5) rotate(-63.28)"/></g></g></g><g id="Group_92" data-name="Group 92"><g class="cls-12"><g id="Group_91" data-name="Group 91"><rect id="Rectangle_27" data-name="Rectangle 27" class="cls-25" x="319.36" y="520.86" width="0.19" height="0.4" transform="translate(-289.6 572.14) rotate(-63.28)"/><rect id="Rectangle_28" data-name="Rectangle 28" class="cls-25" x="306.49" y="514.39" width="0.19" height="0.4" transform="translate(-290.9 557.08) rotate(-63.28)"/></g></g></g></g></g></g></g><g id="Group_97" data-name="Group 97"><path id="Path_480" data-name="Path 480" class="cls-26" d="M280.6,643.14v.68c0,2.93,1.92,5.84,5.76,8.07,7.73,4.49,20.29,4.49,28.07,0,3.91-2.25,5.87-5.22,5.86-8.18V643c0,3-2,5.92-5.86,8.18-7.78,4.49-20.34,4.49-28.07,0-3.84-2.23-5.76-5.14-5.77-8.07Z"/><path id="Path_481" data-name="Path 481" class="cls-6" d="M286.45,635c-7.77,4.48-7.81,11.76-.09,16.25s20.29,4.49,28.07,0,7.81-11.77.09-16.25-20.29-4.49-28.07,0Z"/><path id="Path_482" data-name="Path 482" class="cls-27" d="M290.27,647.45A23.59,23.59,0,0,0,306,646.1c4.17-2.16,3.92-5.07-.56-6.49A23.71,23.71,0,0,0,289.71,641c-4.18,2.17-3.93,5.07.56,6.49Z"/><path id="Path_483" data-name="Path 483" class="cls-6" d="M288.87,634.38l1.49-.87.92-1-1.49.87Z"/><path id="Path_484" data-name="Path 484" class="cls-6" d="M285,625.49a4.32,4.32,0,0,0,.86,2.4l4,5.52,1.49-.87-4-5.51a4.29,4.29,0,0,1-.85-2.41,1.41,1.41,0,0,1,.59-1.3l-1.49.87A1.41,1.41,0,0,0,285,625.49Z"/><path id="Path_485" data-name="Path 485" class="cls-6" d="M289.35,625.69l1.49-.87V623l-1.49.86Z"/><path id="Path_486" data-name="Path 486" class="cls-6" d="M284.42,622.25a2.55,2.55,0,0,1,2.58.25l2.36,1.36,1.49-.86-2.36-1.37a2.57,2.57,0,0,0-2.58-.25l-1.49.87Z"/><path id="Path_487" data-name="Path 487" class="cls-26" d="M287,622.5c-2-1.15-3.62-.23-3.63,2.07a7.74,7.74,0,0,0,1.53,4.29l4,5.52.92-1-4-5.52a4.32,4.32,0,0,1-.86-2.4c0-1.29.92-1.81,2-1.16l2.36,1.36v-1.83L287,622.5Z"/><path id="Path_488" data-name="Path 488" class="cls-26" d="M314.35,628.49c0,7.68-3.61,18.7-13.91,18.7s-13.91-11-13.91-18.7Z"/><path id="Path_489" data-name="Path 489" class="cls-6" d="M290.61,634.4c5.43,3.14,14.24,3.14,19.67,0s5.43-8.22,0-11.36-14.24-3.13-19.67,0-5.43,8.22,0,11.36Z"/><path id="Path_490" data-name="Path 490" class="cls-26" d="M288.31,630.38a.84.84,0,0,0,.06.14,7.54,7.54,0,0,0,3.25,3.29,19.51,19.51,0,0,0,17.64,0,10.27,10.27,0,0,0,1.17-.77,6.58,6.58,0,0,0,2.09-2.53l.06-.13c1-2.35-.15-4.92-3.32-6.75a19.49,19.49,0,0,0-17.63,0c-3.18,1.83-4.28,4.4-3.32,6.75Z"/><path id="Path_491" data-name="Path 491" class="cls-28" d="M288.31,630.38a.84.84,0,0,0,.06.14,7.54,7.54,0,0,0,3.25,3.29,19.51,19.51,0,0,0,17.64,0,10.27,10.27,0,0,0,1.17-.77,6.65,6.65,0,0,0,2.09-2.53l.06-.13a7.38,7.38,0,0,0-3.32-3.44c-3.7-2.13-9.14-2.65-13.67-1.54a14.81,14.81,0,0,0-4,1.54,7.38,7.38,0,0,0-3.32,3.44Z"/><path id="Path_492" data-name="Path 492" class="cls-29" d="M302.71,626.62a.93.93,0,0,0,.86,0,.27.27,0,0,0,.16-.33.28.28,0,0,0-.16-.16.93.93,0,0,0-.86,0,.26.26,0,0,0-.16.33A.25.25,0,0,0,302.71,626.62Z"/><path id="Path_493" data-name="Path 493" class="cls-29" d="M302.85,628.39a2.27,2.27,0,0,0,2,0,.63.63,0,0,0,.39-.79.65.65,0,0,0-.39-.39,2.27,2.27,0,0,0-2,0,.62.62,0,0,0-.39.79A.65.65,0,0,0,302.85,628.39Z"/><path id="Path_494" data-name="Path 494" class="cls-29" d="M305.91,626.91a.3.3,0,0,0,.29,0,.1.1,0,0,0,.06-.11.09.09,0,0,0-.06-.06.37.37,0,0,0-.29,0,.1.1,0,0,0-.05.12Z"/><path id="Path_495" data-name="Path 495" class="cls-29" d="M306.07,628.78a.42.42,0,0,0,.38,0,.12.12,0,0,0,.07-.15.12.12,0,0,0-.07-.07.42.42,0,0,0-.38,0,.12.12,0,0,0-.07.15A.12.12,0,0,0,306.07,628.78Z"/><path id="Path_496" data-name="Path 496" class="cls-29" d="M307.2,628a1.36,1.36,0,0,0,1.18,0,.36.36,0,0,0,.22-.46.34.34,0,0,0-.22-.22,1.29,1.29,0,0,0-1.18,0,.35.35,0,0,0-.23.45A.37.37,0,0,0,307.2,628Z"/><path id="Path_497" data-name="Path 497" class="cls-29" d="M308.31,629a.32.32,0,0,0,.27,0,.08.08,0,0,0,.05-.1l-.05,0a.32.32,0,0,0-.27,0,.08.08,0,0,0,0,.15Z"/><path id="Path_498" data-name="Path 498" class="cls-29" d="M308.34,631a1.82,1.82,0,0,0,1.64,0,.51.51,0,0,0,.31-.64.53.53,0,0,0-.31-.31,1.82,1.82,0,0,0-1.64,0,.51.51,0,0,0-.31.64A.53.53,0,0,0,308.34,631Z"/><path id="Path_499" data-name="Path 499" class="cls-29" d="M306.36,629.86a.7.7,0,0,0,.63,0,.2.2,0,0,0,.12-.25.2.2,0,0,0-.12-.12.7.7,0,0,0-.63,0,.21.21,0,0,0-.12.25A.2.2,0,0,0,306.36,629.86Z"/><path id="Path_500" data-name="Path 500" class="cls-29" d="M303.4,629.32a.17.17,0,0,0,.17,0,0,0,0,0,0,0-.06l0,0a.17.17,0,0,0-.17,0,0,0,0,0,0,0,.06Z"/><path id="Path_501" data-name="Path 501" class="cls-29" d="M300.1,626a.26.26,0,0,0,.27,0,.08.08,0,0,0,.06-.1s0,0-.06-.05a.26.26,0,0,0-.27,0,.07.07,0,0,0-.05.1S300.08,626,300.1,626Z"/><path id="Path_502" data-name="Path 502" class="cls-29" d="M310,629.14a.8.8,0,0,0,.71,0,.24.24,0,0,0,.13-.29.22.22,0,0,0-.13-.12.75.75,0,0,0-.71,0,.21.21,0,0,0-.12.28A.25.25,0,0,0,310,629.14Z"/><path id="Path_503" data-name="Path 503" class="cls-29" d="M311.4,630.65a.24.24,0,0,0,.26,0,.08.08,0,0,0,.06-.1.1.1,0,0,0-.06,0,.3.3,0,0,0-.26,0,.07.07,0,0,0,0,.1S311.38,630.65,311.4,630.65Z"/><path id="Path_504" data-name="Path 504" class="cls-29" d="M310,631.89a.53.53,0,0,0,.49,0,.16.16,0,0,0,.1-.19.15.15,0,0,0-.1-.09.53.53,0,0,0-.49,0,.13.13,0,0,0-.09.18A.15.15,0,0,0,310,631.89Z"/><path id="Path_505" data-name="Path 505" class="cls-30" d="M288.31,630.38a1.47,1.47,0,0,0,.06.14,7.54,7.54,0,0,0,3.25,3.29,19.51,19.51,0,0,0,17.64,0,9.15,9.15,0,0,0,1.17-.78,11.46,11.46,0,0,1-1.17-.39c-.67-.31-.91-.87-1.41-1.27a4.87,4.87,0,0,0-2.52-.9c-.57,0-1.17,0-1.73-.1-2-.34-2.1-2.08-2.61-3a4,4,0,0,0-2.43-1.68l-.24-.07h0a7.56,7.56,0,0,0-2.72-.2,15.38,15.38,0,0,0-4,1.55,7.38,7.38,0,0,0-3.32,3.44Z"/></g><g id="Group_106" data-name="Group 106"><g id="Group_103" data-name="Group 103"><g class="cls-31"><g id="Group_102" data-name="Group 102"><path id="Path_522" data-name="Path 522" class="cls-32" d="M559.46,580.21H541.82V542.76a1.85,1.85,0,0,1,1.85-1.83h0a1.84,1.84,0,0,1,1.83,1.83v12.35h.72V540.72a1.85,1.85,0,0,1,1.83-1.85h0a1.87,1.87,0,0,1,1.85,1.85v14.39h.72V539a1.83,1.83,0,0,1,1.83-1.83h0a1.82,1.82,0,0,1,1.83,1.82h0v16.16H555V542a1.87,1.87,0,0,1,1.85-1.85h0a1.85,1.85,0,0,1,1.83,1.85v16.18c1.1-1.18,2.16-2.37,3.25-3.54,2.22-2.24,4.81.24,3,2.79-5.63,8.06-5.94,13.31-5.43,22.8Z"/></g></g></g><path id="Path_523" data-name="Path 523" class="cls-33" d="M559.46,580.21H541.82v-2.77c13.63,2.77,12.64-2.26,20.27-15.44h0c-2.92,5.76-3,10.65-2.63,18.21Z"/><path id="Path_524" data-name="Path 524" class="cls-32" d="M559.48,582.12H541.8a.94.94,0,0,1-.93-1h0a.93.93,0,0,1,.92-.95h17.69a.94.94,0,0,1,.93.95h0A1,1,0,0,1,559.48,582.12Z"/><path id="Path_525" data-name="Path 525" class="cls-34" d="M543.85,564.24h0a.6.6,0,0,0-.59.58v10.42a.59.59,0,0,0,.59.57h0a.57.57,0,0,0,.56-.57V564.82A.58.58,0,0,0,543.85,564.24Z"/><g id="Group_105" data-name="Group 105"><g class="cls-31"><g id="Group_104" data-name="Group 104"><path id="Path_526" data-name="Path 526" class="cls-34" d="M543.85,563.15h0a.59.59,0,0,1-.59-.56v-1.43a.6.6,0,0,1,.59-.58h0a.58.58,0,0,1,.56.58v1.43A.56.56,0,0,1,543.85,563.15Z"/><path id="Path_527" data-name="Path 527" class="cls-32" d="M522.25,586h17.64V548.57a1.84,1.84,0,0,0-1.85-1.83h0a1.84,1.84,0,0,0-1.83,1.83v12.34h-.72V546.52a1.82,1.82,0,0,0-1.82-1.83h0a1.85,1.85,0,0,0-1.85,1.83v14.39h-.72V544.77a1.84,1.84,0,0,0-1.83-1.85h0a1.85,1.85,0,0,0-1.83,1.85v16.14h-.72V547.79a1.84,1.84,0,0,0-1.85-1.83h0a1.82,1.82,0,0,0-1.83,1.82h0V564c-1.09-1.17-2.16-2.36-3.25-3.55-2.22-2.23-4.81.24-2.95,2.81,5.62,8,5.94,13.32,5.43,22.78Z"/></g></g></g><path id="Path_528" data-name="Path 528" class="cls-33" d="M522.25,586h17.64v-2.75C526.26,586,527.26,581,519.62,567.8h0c2.92,5.77,3,10.65,2.63,18.21Z"/><path id="Path_529" data-name="Path 529" class="cls-32" d="M522.23,587.92h17.68a1,1,0,0,0,1-1h0a1,1,0,0,0-1-1H522.23a1,1,0,0,0-.93,1h0A1,1,0,0,0,522.23,587.92Z"/><path id="Path_530" data-name="Path 530" class="cls-34" d="M537.87,570.06h0a.58.58,0,0,1,.58.57V581a.58.58,0,0,1-.58.59h0a.57.57,0,0,1-.57-.57V570.63A.56.56,0,0,1,537.87,570.06Z"/><path id="Path_531" data-name="Path 531" class="cls-34" d="M537.87,569h0a.59.59,0,0,0,.58-.58V567a.58.58,0,0,0-.58-.56h0a.56.56,0,0,0-.57.56v1.43A.58.58,0,0,0,537.87,569Z"/></g><path class="cls-35" d="M525.12,827.09q-1.71,4.95-3.41,9.9l10,4.68,5.93-9.65Z"/><path class="cls-35" d="M465.39,783.18,455.15,781q-1.69,5.28-3.41,10.55l9.93,5.27Z"/><path class="cls-35" d="M499.46,705.44l-24.23,14a9.37,9.37,0,0,0-6.74,1.08,7.91,7.91,0,0,0-3.24,3.66,7.57,7.57,0,0,0-.05,5.65,7.91,7.91,0,0,0,5,4.27,8.65,8.65,0,0,0,11.15-6.69l23.37-10.64Q502.08,711.11,499.46,705.44Z"/><path class="cls-35" d="M566.84,710c.86,1.94,3.87,8,10.25,10.06a13.82,13.82,0,0,0,3.26.62,6.3,6.3,0,0,0,.76-.73,6,6,0,0,0,.8-1.17,7.64,7.64,0,0,1-2.57-1.92c-.18-.19-3.38-4-1.61-7.92a6.94,6.94,0,0,1,5.18-3.94c3.82-.57,6.87,2.59,8.1,5,1,1.91,1,3.63,1,5.91a22.58,22.58,0,0,1-2.29,9.2c-.08.17-.12.27-.2.42-2.15,4.27-5.89,6.23-8.05,7.32a23.6,23.6,0,0,1-5.23,1.88,41.45,41.45,0,0,1-23.11-15.43Z"/><path class="cls-4" d="M543.87,752.76l10.49,42c-2.32,6.24-5,12.79-8,19.57-3.69,8.19-7.5,15.75-11.3,22.67l-11.13-6.76,11-37c-1.94-1.74-3.94-3.67-6-5.82a93.07,93.07,0,0,1-10.69-13.8,193,193,0,0,1-8.56,18.17c-2.37,4.43-4.79,8.53-7.18,12.3a102.93,102.93,0,0,1-44.72-8.3q2-6.7,3.92-13.4l25.95,3.81q.76-17.91,1.54-35.82Z"/><path class="cls-35" d="M556.21,647.92a29.44,29.44,0,0,0,1.86,3.42h0c.44.62,1.33,1.77,2.48,3.41.84,1.2,1,1.52.93,1.86-.31,1.17-3.4,1.23-4,1.24l1.29,3.8a1.66,1.66,0,0,1-1.6,1.78,2.33,2.33,0,0,1,1.55,1.25,1.68,1.68,0,0,1,0,.93c-1.12,4.31-1.68,6.47-2.78,7.46-1.5,1.37-5.25.82-12.75-.28-3-.44-5.26-.91-7.51-2.58a15.4,15.4,0,0,1-2.58-2.57,23.38,23.38,0,0,1-5-11.33c-.55-3.24-1.74-10.27,2.32-15.83,6.09-8.34,20.64-8.75,23.67-4.34C555.85,638.78,555.15,645.58,556.21,647.92Z"/><path class="cls-36" d="M524.64,664.37c0-1,0-7-4.65-10.86-6.19-5.15-14.68-1.45-15.82-.93-6.94,3.15-9.22,9.91-9.62,11.16l-9.31,28.85a40.38,40.38,0,0,0-.84,12c.36,4.41.74,9.85,3.79,13.61,4.43,5.46,13.83,6.61,23.42,3.81l1.86-8.68A94.79,94.79,0,0,0,530,715.46a62.73,62.73,0,0,0,16-1.15,23.81,23.81,0,0,0,4.81-1.37,19.84,19.84,0,0,0,10.84-13.31c2.62-12.68-11.53-22.87-12.85-23.79-10.66-7.44-22.56-5.51-25.44-5C523.81,668.71,524.23,666.54,524.64,664.37Z"/><path class="cls-6" d="M522,676q-3.64,15.57-7.31,31.14a78.15,78.15,0,0,0,9.32,1.65c7.17.83,11.08,1.29,15.39-.45,1.6-.64,7.17-2.89,9.15-8.25,2.89-7.83-4.28-15.79-5.13-16.73C535.71,674.82,523.72,675.86,522,676Z"/><path class="cls-37" d="M569,710.28,553,721.1q-5.34-7-10.69-13.93a23.78,23.78,0,0,1-4.65,1.87c-4.91,1.38-9,.83-14.89,0a87.63,87.63,0,0,1-9.31-1.87l8.38-31.33a40.55,40.55,0,0,1,11.48,1.24c11.52,3,18.59,10.47,23.47,15.62A71.84,71.84,0,0,1,569,710.28Z"/><path class="cls-35" d="M529.6,662.5l-6.2,8.38a35.17,35.17,0,0,1,13.34,0,34.34,34.34,0,0,1,7.75,2.48l.31-.31a34.88,34.88,0,0,1-15.2-10.55Z"/><path class="cls-37" d="M544.88,714.49,546.8,755c-.45.08-1.19.2-2.1.32-8,1.09-14.51.54-31.23-1.92-8.94-1.32-12.23-1.93-18.3-2.18-3.48-.14-6.33-.1-8.21-.05q2-7.5,4.14-15.15,1.93-6.87,3.9-13.57a31.33,31.33,0,0,0,10.1.86,30.85,30.85,0,0,0,6.51-1.25l1.86-8.68a86.55,86.55,0,0,0,31.41,1.11Z"/><path class="cls-30" d="M562.18,623.73a33.09,33.09,0,0,0,5.18-1c.07,7.72-2.33,13.64-5.1,15.44a12.32,12.32,0,0,1-3.56,1.53,10,10,0,0,1-4.34,0c-1.38-.3-1.92-.77-3.83-1.09a11.14,11.14,0,0,0-1.76-.18c-1.25,0-7-.07-9.29,4-1.8,3.16-.32,6.86,0,7.62l-2.12,2.22a22.89,22.89,0,0,0-1.23-2.83c-1.4-2.7-2.34-4.52-4-4.73a3.81,3.81,0,0,0-3.51,2.14c-.8,1.57-.14,3.2.3,4.29.78,2,1.54,1.67,2.14,3.27.68,1.83.23,3.67-.46,6.52a23.7,23.7,0,0,1-.7,2.41c-1.06-1.08-2.46-2.56-4-4.43a47.93,47.93,0,0,1-4.42-6.15,23.67,23.67,0,0,1-2.9-6.08,12.65,12.65,0,0,1-.57-6.49c.24-1.12,1-4.61,4.06-6a6.85,6.85,0,0,1,4.42-.3,13.68,13.68,0,0,1,2.9-7c3.63-4.46,9.21-5,11.06-5.16,2.45-.23,1.72.32,11.9,1.57A40.07,40.07,0,0,0,562.18,623.73Z"/><path class="cls-30" d="M544.17,857.91l-3.12-1.47-16.35-7.56-9.64-4.45h0l0-.06h0c.09-.19.19-.37.29-.56a30.46,30.46,0,0,1,6.83-8.55A11.42,11.42,0,0,0,533.66,839a26.27,26.27,0,0,1,6.18,3.92c2.33,2,4.29,3.65,5.19,6.47A11.78,11.78,0,0,1,544.17,857.91Z"/><path class="cls-38" d="M518.2,773.62l3.73-8.67q.42,7.6.83,15.22c-.82-1.07-1.65-2.21-2.47-3.4S518.85,774.65,518.2,773.62Z"/><path class="cls-38" d="M524.64,664.37a12.71,12.71,0,0,0-2.17-6.21,12.27,12.27,0,0,0-4-3.72,12.93,12.93,0,0,0-7.76-1.24,17.44,17.44,0,0,0-10.55,4.65,18.65,18.65,0,0,0-4.34,6.83c-1.06,2.47-1.59,3.71-1.24,5,.95,3.43,7.46,6.06,12.1,3.72,3.36-1.69,4.42-5.33,4.65-6.2a7.68,7.68,0,0,1-6.2,8.06,11.77,11.77,0,0,1-7.14-.31c-1.34-.48-5.23-1.89-5.89-5-.29-1.34.22-2.55,1.24-5a24.49,24.49,0,0,1,3.1-5.28,23.78,23.78,0,0,1,4.34-5,18.68,18.68,0,0,1,9-3.72,13.32,13.32,0,0,1,6.2.31,12.58,12.58,0,0,1,5.9,4A13.15,13.15,0,0,1,524.64,664.37Z"/><rect class="cls-1" y="521.98" width="595.6" height="335.03"/><path class="cls-6" d="M550.18,649.51a8.49,8.49,0,0,0,1,.48l.26.1.14,0,.23.08.12,0,.14,0,.14,0,.28.07h.06l.14,0c.3.06.6.1.87.13h.14a7.9,7.9,0,0,0,1.4,0h.18a1.48,1.48,0,0,1,0-.21c0-.13,0-.27,0-.42h0c0-.11,0-.22-.05-.33a.77.77,0,0,0,0-.15,8.09,8.09,0,0,0-.56-1.82c-.09-.19-.18-.38-.28-.55l0-.07-.18-.3-.06-.1c-.08-.11-.15-.22-.23-.32a.91.91,0,0,0-.11-.16l-.05-.06a6.66,6.66,0,0,0-3.47,3.46Z"/><path class="cls-39" d="M553.32,649a2.85,2.85,0,0,0,.42.62c.22.24.79.89,1.36.9h.18a1.48,1.48,0,0,1,0-.21c0-.13,0-.27,0-.42h0a1.82,1.82,0,0,1-1.79-1.08h0a.52.52,0,0,1-.06-.16l0,0h0a.57.57,0,0,1,0-.14,1.82,1.82,0,0,1,.61-1.76.61.61,0,0,1,.15-.12c-.08-.11-.15-.22-.23-.32a.91.91,0,0,0-.11-.16c-.14.06-.21.18-.34.43a2.28,2.28,0,0,0-.22.7,5.32,5.32,0,0,0-.07.55,3.64,3.64,0,0,0,0,.6A2.61,2.61,0,0,0,553.32,649Z"/><path class="cls-40" d="M553.36,648.74l0,.09h0a2.72,2.72,0,0,0,.18.36,2.46,2.46,0,0,0,.58.64,2.14,2.14,0,0,0,.49.34,1.46,1.46,0,0,0,.62.17c0-.13,0-.27,0-.42h0c0-.11,0-.22-.05-.33a.77.77,0,0,0,0-.15,1.44,1.44,0,0,1-.78-.27,1.36,1.36,0,0,1-.47-.65,1.8,1.8,0,0,1-.06-.32,1.46,1.46,0,0,1,.09-.62h0a1.19,1.19,0,0,1,.25-.38.8.8,0,0,1,.13-.13l0-.07-.18-.3-.06-.1c-.08-.11-.15-.22-.23-.32l0,0c-.28.18-.38.51-.47,1a4,4,0,0,0-.07.88,2.48,2.48,0,0,0,0,.27c0,.05,0,.11.05.18h0Z"/><path class="cls-41" d="M553.79,648.58a2,2,0,0,0,1.4,1.33h0c0-.11,0-.22-.05-.33a.77.77,0,0,0,0-.15,8.09,8.09,0,0,0-.56-1.82c-.09-.19-.18-.38-.28-.55l0-.07-.18-.3a2,2,0,0,0-.37,1.67h0Z"/><path d="M554,648.51a1.86,1.86,0,0,0,.36.65,1.12,1.12,0,0,0,.8.42.77.77,0,0,0,0-.15,8.09,8.09,0,0,0-.56-1.82c-.09-.19-.18-.38-.28-.55l0-.07a1,1,0,0,0-.34.58h0A1.72,1.72,0,0,0,554,648.51Z"/><path class="cls-30" d="M555.59,644.51l-.11-1.46c-.27,0-.64,0-1.08,0a7.39,7.39,0,0,0-1.91.3,5.6,5.6,0,0,0-2.73,2.2,6.88,6.88,0,0,0-.8,1.37,9.86,9.86,0,0,1,2.85-1.62,16.47,16.47,0,0,1,2.68-.64Z"/><path class="cls-42" d="M528.26,635a13.75,13.75,0,0,1,4.42-6.23c4.36-3.35,9.85-2.9,12.2-2.7,3.15.26,3.4,1,7.64,1.28a21.56,21.56,0,0,0,7.26-.28,16.89,16.89,0,0,0,7.58-4.33,27.81,27.81,0,0,1-6.8,1c-3.55.07-5.31-.59-10.58-1.33-4.65-.65-7-1-8.86-.8-2.06.19-8.23.75-12,5.64a13.6,13.6,0,0,0-2.63,6.67,3.6,3.6,0,0,1,1.05.5A3.46,3.46,0,0,1,528.26,635Z"/><path class="cls-43" d="M529.32,636.11a15.27,15.27,0,0,1,5.53-5.12,16.38,16.38,0,0,1,9.82-1.66c1.36.24,2.47.65,5.34,1.06a30.58,30.58,0,0,0,3.54.37,16.82,16.82,0,0,0,7.13-1.17,14,14,0,0,0,6.68-6.82,15.5,15.5,0,0,1-6.28,3.94c-4.16,1.32-8.36.54-10.74.1a47.9,47.9,0,0,0-6.68-1,20.57,20.57,0,0,0-3.07-.1,15.24,15.24,0,0,0-9.49,4.61,14.12,14.12,0,0,0-2.84,4.76c.18.15.37.33.57.53S529.17,635.93,529.32,636.11Z"/><path class="cls-30" d="M530.25,637.19a15.8,15.8,0,0,1,5.58-3.94,17.6,17.6,0,0,1,8.5-1.09c1.84.19,2,.48,5.42.92a29.59,29.59,0,0,0,4.86.39,14.79,14.79,0,0,0,6.81-1.87c4.46-2.66,5.68-7.63,5.94-8.83a13.24,13.24,0,0,1-5.69,6.32c-4,2.15-8.59,1.49-10.23,1.25s-3.25-.72-6.68-1.05a28.48,28.48,0,0,0-3.24-.22,15.66,15.66,0,0,0-9.15,3.6,15.44,15.44,0,0,0-3,3.44c.16.17.33.36.49.56S530.11,637,530.25,637.19Z"/><path class="cls-42" d="M531.24,638.65a23.54,23.54,0,0,1,6.64-3.27,23.18,23.18,0,0,1,6.06-1,19.2,19.2,0,0,1,6.25.7c2.51.75,3.06,1.55,5.23,1.68a9.06,9.06,0,0,0,3.82-.56,10.32,10.32,0,0,0,4.76-4.24,19.88,19.88,0,0,0,3.36-9.15c-.28,1.28-1.51,6.13-5.94,8.83a14.24,14.24,0,0,1-8,1.87c-2.1-.15-3-.75-6.85-1.17a29.15,29.15,0,0,0-4-.25,17.48,17.48,0,0,0-8.65,2.15,15.35,15.35,0,0,0-3.67,3,6.78,6.78,0,0,1,.57.7A6.1,6.1,0,0,1,531.24,638.65Z"/><path class="cls-43" d="M532.27,642a19.72,19.72,0,0,1,6.14-3,21.71,21.71,0,0,1,5.81-.78,19.9,19.9,0,0,1,4.91.34,43.07,43.07,0,0,0,5.41,1.26,12.82,12.82,0,0,0,2,.12A11.61,11.61,0,0,0,563,637.7c2.09-1.66,2.73-4.06,3.46-6.91a29,29,0,0,0,.87-8,18.39,18.39,0,0,1-2,7,12,12,0,0,1-3.37,4.39,11,11,0,0,1-7,2.14c-2.25-.11-2.32-.87-6-1.5a22.71,22.71,0,0,0-12.66,1.15,24,24,0,0,0-5.14,2.75,8.57,8.57,0,0,1,.73,1.83A9,9,0,0,1,532.27,642Z"/><path class="cls-30" d="M436.86,805.59l1.15-3.25q2.92-8.52,5.86-17,1.72-5,3.46-10a0,0,0,0,1,0,0l.05,0h0l.58.23a30.2,30.2,0,0,1,9.2,5.93,11.4,11.4,0,0,0-2.6,11.81,26.72,26.72,0,0,1-3.27,6.53c-1.74,2.52-3.2,4.65-5.92,5.83A11.82,11.82,0,0,1,436.86,805.59Z"/><path class="cls-44" d="M558.6,661.45a1,1,0,0,0-.73-.16,2.15,2.15,0,0,0-1,.45c-.73.46-.74.53-1.21.82s-.8.42-1.12.57-.64.28-.86.37c.62.37,1.31.74,2.06,1.1a27.92,27.92,0,0,0,2.9,1.19,1.74,1.74,0,0,0,.05-1.11,2,2,0,0,0-.54-.84,2.36,2.36,0,0,0-.64-.46c.18-.06.36-.12.55-.2a7,7,0,0,0,.87-.45,1.5,1.5,0,0,0-.06-.87A.84.84,0,0,0,558.6,661.45Z"/><path class="cls-45" d="M553.68,663.5a12.77,12.77,0,0,0,2.18,1.31,14,14,0,0,0,2.78,1,1.71,1.71,0,0,0,.08-1.23,1.84,1.84,0,0,0-.32-.55,2.19,2.19,0,0,0-.89-.63l-1.22,0Z"/><path class="cls-43" d="M528.65,635.38a9.25,9.25,0,0,0-4.57.39,9.54,9.54,0,0,0-3.49,2.21,10.88,10.88,0,0,0-2.76,4.36,10.51,10.51,0,0,1,.38-3,7.8,7.8,0,0,1,2.65-4.41,6.44,6.44,0,0,1,2-1,6.25,6.25,0,0,1,1.92-.23,7,7,0,0,1,1.75.23,4.64,4.64,0,0,1,1.29.68A4.5,4.5,0,0,1,528.65,635.38Z"/><path class="cls-42" d="M529.91,636.78a10.34,10.34,0,0,0-5.08.83,9.7,9.7,0,0,0-5.71,10.62,15.57,15.57,0,0,1-1.25-5.08c0-.27,0-.54,0-.81a10.42,10.42,0,0,1,1-2.2,10.64,10.64,0,0,1,2.5-2.84,9.63,9.63,0,0,1,1.88-1.19,9.33,9.33,0,0,1,2.59-.77,9.17,9.17,0,0,1,2.82,0l.67.73Z"/><path class="cls-30" d="M531.36,638.89a9.1,9.1,0,0,0-6,1,8.36,8.36,0,0,0-3.48,3.69,8.83,8.83,0,0,0-.73,3.71,17,17,0,0,0,1.28,7,35.7,35.7,0,0,1-2.18-3.64c-.43-.83-.8-1.63-1.13-2.4a10,10,0,0,1,.71-5.68,9.8,9.8,0,0,1,2-2.89,10,10,0,0,1,2.34-1.72,10.08,10.08,0,0,1,2.32-.9,10.23,10.23,0,0,1,3.42-.26,7,7,0,0,1,.74.88A7.45,7.45,0,0,1,531.36,638.89Z"/><path class="cls-42" d="M532.27,642a6.5,6.5,0,0,0-5.55,0,6,6,0,0,0-2.6,3.16c-.32.77-.88,2.53.41,7.73a45.51,45.51,0,0,0,2.53,7.35,51.49,51.49,0,0,1-3.38-4.2c-.44-.61-.86-1.21-1.25-1.81a12.75,12.75,0,0,1-1.29-6.27,10,10,0,0,1,1.63-5.35,8.32,8.32,0,0,1,5.07-3.45,11,11,0,0,1,3.52-.31,8.29,8.29,0,0,1,.61,1.59A9.17,9.17,0,0,1,532.27,642Z"/><path class="cls-43" d="M532.27,642a6.52,6.52,0,0,0-3.52-.61,5.48,5.48,0,0,0-2.34.77,6.18,6.18,0,0,0-2.54,3.79c-.36,1.36-.19,2.5.18,4.74a35.83,35.83,0,0,0,2.06,7.23c.37,1,.71,1.78.95,2.32.42.49.86,1,1.32,1.48s1,1.11,1.56,1.63c.14-.4.27-.82.4-1.25.19-.64.34-1.26.47-1.85-.53-.85-1.27-2.07-2.15-3.55a24,24,0,0,1-1.81-3.34,8.47,8.47,0,0,1-.37-5.54,4.6,4.6,0,0,1,1.32-2.23c1.83-1.61,4.58-.83,4.93-.72q-.09-.7-.21-1.44C532.44,643,532.36,642.5,532.27,642Z"/><path d="M553.65,646.05a6.93,6.93,0,0,0-3,2.56,6.08,6.08,0,0,0-.48.9,8.29,8.29,0,0,0,.79.39,8.77,8.77,0,0,0,4.31.65,8.25,8.25,0,0,1-4.27-.38,6.94,6.94,0,0,1-1.19-.57,6.41,6.41,0,0,1,.53-.93A7.3,7.3,0,0,1,553.65,646.05Z"/><path class="cls-38" d="M543,755.53l9.38,39.36c-2.45,6.67-5.23,13.65-8.39,20.87s-6.54,14.28-9.84,20.71l.89.55c3.49-6.36,7-13.28,10.43-20.76s6.38-14.68,8.91-21.48q-4.92-19.72-9.85-39.43l-.63.08Z"/><path class="cls-46" d="M544.88,714.49l-.71.1q.23,7.54.26,15.43c0,8.77-.18,17.25-.55,25.41.61-.08,1.23-.16,1.86-.26l1.06-.17q-.64-13.21-1.27-26.44Q545.2,721.53,544.88,714.49Z"/><path class="cls-46" d="M521.85,675.84l-8.38,31.33,1.51.38c.67.16,1.32.31,2,.44q3.24-16.08,6.47-32.17h-.79Z"/><path class="cls-46" d="M513.47,713.38l-1.86,8.68c.57-.15,1.17-.34,1.79-.57.41-.15.8-.31,1.17-.46l1.1-7.2Z"/><path class="cls-47" d="M554,720.43l.92-.62a49,49,0,0,0,21.25,13.61,24.78,24.78,0,0,0,5-1.28,24.43,24.43,0,0,0,5.54-2.89,24.67,24.67,0,0,1-4.89,3.36,24.36,24.36,0,0,1-5.61,2.07A41.42,41.42,0,0,1,554,720.43Z"/><path class="cls-47" d="M481.32,727.4l1.9-1.13,8.52-5.06,1.53.75Z"/><path class="cls-47" d="M529.38,662.81a52.24,52.24,0,0,0-2.54,5.08c-.39.89-.74,1.77-1.05,2.62l-2.39.37Z"/><path class="cls-47" d="M551.84,673.86c-1.2-.15-2.48-.35-3.83-.62s-2.62-.59-3.79-.92l-.71.61,1,.41.31-.31,1.36.2c1.34.19,2.15.3,3.11.41C549.92,673.7,550.78,673.79,551.84,673.86Z"/><ellipse class="cls-4" cx="589.35" cy="821.08" rx="5.97" ry="6.31" transform="translate(-300.76 342.31) rotate(-26.06)"/></g></g></svg>