<svg xmlns="http://www.w3.org/2000/svg" xmlns:xlink="http://www.w3.org/1999/xlink" viewBox="0 0 423.4 915.97"><defs><style>.cls-1,.cls-15,.cls-7{fill:none;}.cls-2{fill:url(#linear-gradient);}.cls-3{fill:#a01d2b;}.cls-4{fill:#c55b71;}.cls-33,.cls-5{fill:#fff;}.cls-6{fill:#b7d0e4;}.cls-7{stroke:#b7d0e4;stroke-linecap:round;stroke-miterlimit:10;stroke-width:2.08px;stroke-dasharray:5.08 15.24;}.cls-8{clip-path:url(#clip-path);}.cls-9{clip-path:url(#clip-path-2);}.cls-10{fill:#f2f8fd;}.cls-11{clip-path:url(#clip-path-3);}.cls-12{fill:#d0d0d0;}.cls-13{fill:#e6e6e6;}.cls-14{fill:#ebebeb;}.cls-15{stroke:#000;stroke-miterlimit:10;stroke-width:0.03px;}.cls-16{fill:#999;}.cls-17{fill:#b3b3b3;}.cls-18{clip-path:url(#clip-path-5);}.cls-19{fill:url(#linear-gradient-2);}.cls-20{clip-path:url(#clip-path-6);}.cls-21{fill:url(#linear-gradient-3);}.cls-22{clip-path:url(#clip-path-7);}.cls-23{fill:url(#linear-gradient-4);}.cls-24{fill:gray;}.cls-25{fill:#edeced;}.cls-26{fill:#d5d3d3;}.cls-27{fill:#814716;}.cls-28{fill:#452714;}.cls-29{fill:#3d332f;}.cls-30{clip-path:url(#clip-path-9);}.cls-31{fill:#f5f5f5;}.cls-31,.cls-32,.cls-33{fill-rule:evenodd;}.cls-32{fill:#e9ddd5;}.cls-34{fill:#ddbeae;}.cls-35{fill:#c45b71;}.cls-36{fill:#e8dbd3;}.cls-37{fill:#8a1d2c;}.cls-38{fill:#163963;}.cls-39{fill:#2b5699;}.cls-40{fill:#486bb0;}.cls-41{fill:#493d38;}.cls-42{fill:#594c47;}.cls-43{fill:#c68d86;}.cls-44{fill:#c8908b;}.cls-45{fill:#ded3cb;}.cls-46{fill:#d2b3a7;}</style><linearGradient id="linear-gradient" x1="211.7" y1="915.97" x2="211.7" gradientUnits="userSpaceOnUse"><stop offset="0" stop-color="#bef0ff"/><stop offset="1" stop-color="#fff"/></linearGradient><clipPath id="clip-path"><rect class="cls-1" x="205.13" y="406.28" width="56.39" height="40.8" transform="translate(-132.53 106.3) rotate(-20.12)"/></clipPath><clipPath id="clip-path-2"><path class="cls-1" d="M203.13,424.57a22,22,0,0,0,1.53,5.74v0a23,23,0,0,0,7.21,9.5,20.8,20.8,0,0,0,8.52,3.95,1.51,1.51,0,0,0,.28.22c1.05.53,14.14,2.53,18.74.84,4.35-1.6,13.29-10.84,13.71-13l0-.18a20.91,20.91,0,0,0,3.8-8.34,22.81,22.81,0,0,0-.66-11.9v0a22.13,22.13,0,0,0-2.54-5.36,5.14,5.14,0,0,0-3.18-2.28,2.66,2.66,0,0,0-1.31.14,3.51,3.51,0,0,0-1.62,1.33l0,0-1.7,3.39a1.94,1.94,0,0,0-1.3-.61c-4.32-.09-15.78-.23-18.21.66-2.81,1-14.74,10.65-16.12,12.62l-3-1.27h0a3.42,3.42,0,0,0-2.1,0,2.64,2.64,0,0,0-1.09.75,5.05,5.05,0,0,0-1,3.78m53.09-1.69a20.07,20.07,0,0,1-3.08,7.21c-.41-4.9-3.86-15.76-6.13-20q-.22-.41-.48-.78l1.7-3.4a.24.24,0,0,1,.06-.08,2.92,2.92,0,0,1,1.31-1.07,2.16,2.16,0,0,1,1-.11,4.26,4.26,0,0,1,2.59,1.88,20.44,20.44,0,0,1,2.36,5v0a21.8,21.8,0,0,1,.62,11.3M205.3,430a20.45,20.45,0,0,1-1.42-5.34,4.14,4.14,0,0,1,.77-3.1,2,2,0,0,1,.86-.59,2.86,2.86,0,0,1,1.69,0l.1,0,3,1.28c1,3.63,6.44,16.2,9.21,20.41a20.14,20.14,0,0,1-7.36-3.6,21.67,21.67,0,0,1-6.84-9v0"/></clipPath><clipPath id="clip-path-3"><rect class="cls-1" x="76.05" y="468.66" width="41.15" height="68.59" transform="translate(-396.07 363.13) rotate(-63.28)"/></clipPath><clipPath id="clip-path-5"><rect class="cls-1" x="89.34" y="487.78" width="0.34" height="58.62" transform="translate(-412.61 364.56) rotate(-63.28)"/></clipPath><linearGradient id="linear-gradient-2" x1="-4972.79" y1="-1758.68" x2="-4971.47" y2="-1758.68" gradientTransform="matrix(0.31, 0, 0, -53.56, 1242.91, -93682.86)" gradientUnits="userSpaceOnUse"><stop offset="0" stop-color="#b3b3b3"/><stop offset="0.03" stop-color="#fbfbfb"/><stop offset="0.35" stop-color="#f3f3f3"/><stop offset="0.73" stop-color="#f2f2f2"/><stop offset="0.97" stop-color="#fff"/><stop offset="1" stop-color="#b3b3b3"/></linearGradient><clipPath id="clip-path-6"><path class="cls-1" d="M115.61,530.41s-1.62.11-8.22-3.2L70.87,508.85s-6.05-2.94-7.61-4.79Z"/></clipPath><linearGradient id="linear-gradient-3" x1="-6101.43" y1="-1758.68" x2="-6100.95" y2="-1758.68" gradientTransform="matrix(0.87, 0, 0, -53.56, 5012.41, -93682.28)" gradientUnits="userSpaceOnUse"><stop offset="0" stop-color="#4d4d4d"/><stop offset="0.01" stop-color="#525252"/><stop offset="0.09" stop-color="#757575"/><stop offset="0.18" stop-color="#939393"/><stop offset="0.28" stop-color="#acacac"/><stop offset="0.39" stop-color="#bebebe"/><stop offset="0.51" stop-color="#ccc"/><stop offset="0.68" stop-color="#d3d3d3"/><stop offset="1" stop-color="#d6d6d6"/></linearGradient><clipPath id="clip-path-7"><path class="cls-1" d="M94.56,519.43l-.09.19a.28.28,0,0,1-.36.12h0L84.63,515a.26.26,0,0,1-.12-.36h0l.09-.18Z"/></clipPath><linearGradient id="linear-gradient-4" x1="-5460.95" y1="-2312.49" x2="-5459.99" y2="-2312.49" gradientTransform="matrix(0.43, 0, 0, -10.19, 2050.68, -23056.39)" xlink:href="#linear-gradient-2"/><clipPath id="clip-path-9"><rect class="cls-1" x="292.41" y="537.01" width="49.34" height="50.8"/></clipPath></defs><g id="Layer_2" data-name="Layer 2"><g id="Layer_1-2" data-name="Layer 1"><rect class="cls-2" width="423.4" height="915.97"/><rect class="cls-1" y="0.39" width="423.4" height="915.58"/><g id="Group_74" data-name="Group 74"><g id="Group_75" data-name="Group 75"><g id="Group_72" data-name="Group 72"><path class="cls-3" d="M98.08,791.43A58.81,58.81,0,0,1,89,823.59c-.69,1.12-1.43,2.21-2.2,3.29-.29.41-.59.81-.9,1.22A63.72,63.72,0,0,1,63,846.93l-1.35.64c-.87.4-1.74.77-2.61,1.13a63.94,63.94,0,0,1-7.91,2.66h0a62.16,62.16,0,0,1-27.94,1h0c-1.88-.37-3.73-.82-5.55-1.37h0A57.8,57.8,0,0,1,0,842.36V751a64.41,64.41,0,0,1,12.26-7.81,65.33,65.33,0,0,1,11.35-4.3q2.49-.67,5-1.14A61.46,61.46,0,0,1,56.93,739h0A58.45,58.45,0,0,1,67.5,743a55.44,55.44,0,0,1,25,25.18,54.46,54.46,0,0,1,3.73,10,50.22,50.22,0,0,1,1.19,5.65A54.68,54.68,0,0,1,98.08,791.43Z"/><path id="Path_450" data-name="Path 450" class="cls-3" d="M24.09,848.74l-5.63-1.13L10.65,877.8l5.63,1.13Z"/><path id="Path_451" data-name="Path 451" class="cls-3" d="M74.39,724.67l-10.83-3.38-11,29.37L63.38,754Z"/><path id="Path_453" data-name="Path 453" class="cls-3" d="M82.08,819.64l-2.94,4.6,34.07,19.42,3-4.6Z"/><path id="Path_455" data-name="Path 455" class="cls-3" d="M76.19,783.23l1.26,5.64L120,778.27l-1.26-5.64Z"/><path id="Path_456" data-name="Path 456" class="cls-3" d="M21.42,705.47l-5,1.25,10.12,45.34,5-1.25Z"/><path id="Path_457" data-name="Path 457" class="cls-3" d="M58.36,838.14l-10.52,3.79,10,28.82L68.34,867Z"/><ellipse id="Ellipse_198" data-name="Ellipse 198" class="cls-3" cx="13.72" cy="877.42" rx="5.62" ry="5.32" transform="translate(-384 95.19) rotate(-26.05)"/><ellipse id="Ellipse_199" data-name="Ellipse 199" class="cls-3" cx="64.78" cy="873.76" rx="9.16" ry="8.66" transform="translate(-377.2 117.25) rotate(-26.05)"/><ellipse id="Ellipse_200" data-name="Ellipse 200" class="cls-3" cx="117.85" cy="843.16" rx="5.62" ry="5.32" transform="translate(-358.37 137.45) rotate(-26.05)"/><ellipse id="Ellipse_201" data-name="Ellipse 201" class="cls-3" cx="121.49" cy="775.07" rx="5.62" ry="5.32" transform="translate(-328.09 132.13) rotate(-26.05)"/><ellipse id="Ellipse_202" data-name="Ellipse 202" class="cls-3" cx="72.79" cy="716.62" rx="13.5" ry="12.76" transform="translate(-307.36 104.8) rotate(-26.05)"/></g></g><g id="Group_65" data-name="Group 65"><ellipse id="Ellipse_160" data-name="Ellipse 160" class="cls-3" cx="120.52" cy="724.22" rx="8.64" ry="8.17" transform="translate(-305.85 126.54) rotate(-26.05)"/><g id="Group_64" data-name="Group 64"><path class="cls-3" d="M242.1,848.64c-.09-.7-.19-1.41-.3-2.12a83.15,83.15,0,0,0-1.84-8.7,84.1,84.1,0,0,0-5.75-15.39,85.08,85.08,0,0,0-38.42-38.69,89.28,89.28,0,0,0-16.24-6.31A95,95,0,0,0,136,775.57c-2.58.48-5.14,1.08-7.7,1.78-.77.21-1.55.44-2.33.68h0c-2.14.64-4.28,1.36-6.4,2.17h0q-4.39,1.65-8.69,3.75a99.83,99.83,0,0,0-12.81,7.48A96.6,96.6,0,0,0,75.5,813.08c-1.57,2.08-3,4.2-4.4,6.38l0,0-.25.41-.33.53a93.24,93.24,0,0,0-8.28,17.25h0c-.72,2-1.36,4-1.94,6h0c-.46,1.65-.89,3.33-1.26,5a87.57,87.57,0,0,0-2.09,19.5h0c0,.48,0,1,0,1.46v0a80.38,80.38,0,0,0,.8,9.9h0a83.95,83.95,0,0,0,6,21.33c.56,1.33,1.17,2.66,1.81,4A86.3,86.3,0,0,0,72,916h151c.39-.51.77-1,1.15-1.51,1.7-2.26,3.28-4.56,4.76-6.93A89.74,89.74,0,0,0,242.1,848.64Z"/><path id="Path_419" data-name="Path 419" class="cls-3" d="M206.39,755.5l-16.66-5.2L172.8,795.44l16.65,5.2Z"/><path id="Path_420" data-name="Path 420" class="cls-3" d="M41.21,793.53,36.43,801l41.4,23.59,4.78-7.47Z"/><polygon class="cls-3" points="243.67 915.97 226.73 915.97 224.09 914.46 213.68 908.53 218.2 901.45 228.85 907.53 243.67 915.97"/><path id="Path_422" data-name="Path 422" class="cls-3" d="M71.33,898.19l-3.7-10.67-46.58,16.8L24.74,915Z"/><path id="Path_423" data-name="Path 423" class="cls-3" d="M209.14,845.49l1.94,8.67,65.44-16.28-1.94-8.68Z"/><path id="Path_424" data-name="Path 424" class="cls-3" d="M125,726l-7.67,1.91,15.56,69.68,7.67-1.9Z"/><ellipse id="Ellipse_165" data-name="Ellipse 165" class="cls-3" cx="278.78" cy="832.96" rx="8.64" ry="8.17" transform="translate(-337.53 207.1) rotate(-26.05)"/><ellipse id="Ellipse_166" data-name="Ellipse 166" class="cls-3" cx="203.93" cy="743.11" rx="20.75" ry="19.61" transform="translate(-305.68 165.09) rotate(-26.05)"/><ellipse id="Ellipse_167" data-name="Ellipse 167" class="cls-3" cx="37.96" cy="797.16" rx="8.64" ry="8.17" transform="translate(-346.28 97.68) rotate(-26.05)"/><path class="cls-3" d="M32.69,912.12A13.76,13.76,0,0,1,31.5,916H5c-2.55-6.59.63-14.3,7.46-17.64a14.37,14.37,0,0,1,17,2.95,12.51,12.51,0,0,1,2,3A13,13,0,0,1,32.69,912.12Z"/></g></g><g id="Group_69" data-name="Group 69"><ellipse id="Ellipse_178" data-name="Ellipse 178" class="cls-4" cx="365.08" cy="841.01" rx="6.31" ry="6.68" transform="translate(-526.65 627.93) rotate(-53.1)"/><g id="Group_68" data-name="Group 68"><path class="cls-4" d="M350.56,913.72c0,.76,0,1.49,0,2.25H208.93a66.38,66.38,0,0,1,12.45-49.35c.69-.9,1.38-1.78,2.11-2.64a61.81,61.81,0,0,1,6-6.3h0a65.17,65.17,0,0,1,12.59-9,66.29,66.29,0,0,1,12.32-5.26h0a72.08,72.08,0,0,1,8.1-2h.08a70.77,70.77,0,0,1,11.65-1.17h0a68.36,68.36,0,0,1,7,.21q.38,0,.75.06h0c2,.18,4,.44,6.05.8,1.22.2,2.44.45,3.66.73h0a75.64,75.64,0,0,1,28.81,13.39,3.15,3.15,0,0,1,.29.22h0a75.75,75.75,0,0,1,10.37,9.46q2.08,2.26,3.93,4.67a69.54,69.54,0,0,1,4.53,6.55,73.09,73.09,0,0,1,9.49,24.06A69.44,69.44,0,0,1,350.56,913.72Z"/><path id="Path_435" data-name="Path 435" class="cls-4" d="M373.72,911.09l-2.28-13.29-37,4.21,2.28,13.29Z"/><path id="Path_436" data-name="Path 436" class="cls-4" d="M289.51,810.77l-6.82-.67L281,846.88l6.82.67Z"/><path id="Path_438" data-name="Path 438" class="cls-4" d="M228.06,868.26l6-6.28-27.93-26.16-6,6.29Z"/><path id="Path_440" data-name="Path 440" class="cls-4" d="M365.42,844.68l-4-4.6-42.49,35.18,4,4.61Z"/><path class="cls-4" d="M394.19,914.67a13.73,13.73,0,0,1-1.1,1.3H370.87a16,16,0,0,1-3.25-4.19,15.34,15.34,0,0,1-.75-13.46,14.42,14.42,0,0,1,1.69-2.9c5-6.69,14.83-7.8,21.91-2.49S399.22,908,394.19,914.67Z"/><ellipse id="Ellipse_185" data-name="Ellipse 185" class="cls-4" cx="285.87" cy="809.8" rx="6.31" ry="6.68" transform="translate(-533.34 552.13) rotate(-53.1)"/><ellipse id="Ellipse_186" data-name="Ellipse 186" class="cls-4" cx="200.92" cy="836.28" rx="10.6" ry="11.21" transform="translate(-588.45 494.78) rotate(-53.1)"/></g></g><g id="Group_71" data-name="Group 71"><ellipse id="Ellipse_187" data-name="Ellipse 187" class="cls-4" cx="81.52" cy="770.71" rx="7.68" ry="8.12" transform="translate(-692.3 813.6) rotate(-87.13)"/><g id="Group_70" data-name="Group 70"><path class="cls-4" d="M130.42,903.09A77.84,77.84,0,0,1,128.71,916H0v-90.7c1.36-.69,2.72-1.36,4.13-2a91.77,91.77,0,0,1,42.35-7.91,92.81,92.81,0,0,1,17.34,2.51c1.44.34,2.85.72,4.25,1.14h.05c.91.25,1.82.53,2.71.84a.5.5,0,0,1,.13,0c2.7.89,5.35,1.9,7.91,3a9.1,9.1,0,0,1,.85.37q3.65,1.62,7.09,3.55a89.74,89.74,0,0,1,14.1,9.76h0l0,0c1.72,1.46,3.38,3,5,4.56a85.51,85.51,0,0,1,10.49,12.57A79.92,79.92,0,0,1,130.42,903.09Z"/><path id="Path_443" data-name="Path 443" class="cls-4" d="M137.91,835.44,126.58,823.6,92.14,853l11.34,11.85Z"/><polygon class="cls-4" points="8.14 829.87 0.82 833.84 0 832.5 0 816.53 4.13 823.3 8.14 829.87"/><polygon class="cls-4" points="119.06 915.97 97.74 915.97 99.29 910.69 119.06 915.97"/><path id="Path_448" data-name="Path 448" class="cls-4" d="M84.37,774.19l-7.17-1.92L58.33,836.64l7.17,1.91Z"/><ellipse id="Ellipse_193" data-name="Ellipse 193" class="cls-4" cx="141.52" cy="824.14" rx="18.42" ry="19.49" transform="translate(-688.66 924.28) rotate(-87.13)"/></g></g><g id="Group_73" data-name="Group 73"><g id="Group_72-2" data-name="Group 72-2"><path class="cls-3" d="M423.4,865.93v50H324.71a58.81,58.81,0,0,1,8.83-31.31h0a57.21,57.21,0,0,1,3.24-4.77q1.38-1.86,2.92-3.61a63.85,63.85,0,0,1,20.1-15.35,65.58,65.58,0,0,1,11.35-4.29c1.67-.46,3.33-.84,5-1.15a61.78,61.78,0,0,1,28.32,1.2,58.48,58.48,0,0,1,10.56,4.1,56.63,56.63,0,0,1,8.34,5.14Z"/><path id="Path_451-2" data-name="Path 451-2" class="cls-3" d="M421.94,842.41,411.11,839l-11,29.37,10.84,3.38Z"/><path id="Path_452-2" data-name="Path 452-2" class="cls-3" d="M314.47,867.16,311.36,872l26.94,15.35,3.11-4.86Z"/><path id="Path_456-2" data-name="Path 456-2" class="cls-3" d="M369,823.21l-5,1.25L374.1,869.8l5-1.25Z"/><path class="cls-3" d="M423.4,821.67v25.1h0a13,13,0,0,1-3.26.48h0a12.88,12.88,0,0,1-10.37-4.6,11.19,11.19,0,0,1-1.53-2.37c-3.1-6.33-.18-14.12,6.52-17.39a14,14,0,0,1,8.65-1.22Z"/><ellipse id="Ellipse_203-2" data-name="Ellipse 203-2" class="cls-3" cx="312.36" cy="869.52" rx="5.62" ry="5.32" transform="translate(-350.18 225.56) rotate(-26.05)"/></g></g></g><g id="Group_82" data-name="Group 82"><path id="Path_458" data-name="Path 458" class="cls-5" d="M203.13,424.57a22,22,0,0,0,1.53,5.74v0a23,23,0,0,0,7.2,9.5,20.84,20.84,0,0,0,8.53,3.95,1.51,1.51,0,0,0,.28.22c1.05.53,14.14,2.53,18.73.84,4.35-1.6,13.3-10.84,13.72-13a1.1,1.1,0,0,0,0-.18,20.93,20.93,0,0,0,3.81-8.34,22.81,22.81,0,0,0-.66-11.9v0a21.8,21.8,0,0,0-2.55-5.36,5,5,0,0,0-3.17-2.27,2.55,2.55,0,0,0-1.31.13,3.54,3.54,0,0,0-1.63,1.33v0l-1.7,3.38a2,2,0,0,0-1.3-.61c-4.32-.08-15.78-.23-18.21.66-2.81,1-14.74,10.65-16.13,12.63l-3-1.28h0a3.42,3.42,0,0,0-2.1,0,2.58,2.58,0,0,0-1.09.75,5.06,5.06,0,0,0-1,3.78m53.09-1.69a20.37,20.37,0,0,1-3.08,7.22c-.41-4.91-3.86-15.77-6.14-20a7.68,7.68,0,0,0-.47-.78l1.7-3.39a.36.36,0,0,1,.05-.09,3,3,0,0,1,1.32-1.07,2.16,2.16,0,0,1,1-.11,4.21,4.21,0,0,1,2.58,1.88,20.11,20.11,0,0,1,2.37,5v0a21.8,21.8,0,0,1,.62,11.3M205.3,430a20.49,20.49,0,0,1-1.42-5.33,4.2,4.2,0,0,1,.76-3.11,2.11,2.11,0,0,1,.86-.59,2.9,2.9,0,0,1,1.7,0l.1,0,3,1.28c1,3.63,6.44,16.2,9.21,20.41a20.14,20.14,0,0,1-7.36-3.6,21.67,21.67,0,0,1-6.84-9v0"/><path id="Path_459" data-name="Path 459" class="cls-6" d="M214.42,425.43a52,52,0,0,1,15.38-8.86,50.19,50.19,0,0,1,16.11-2.69A156.92,156.92,0,0,0,230.24,418c-5.13,1.88-15.82,7.44-15.82,7.44"/><path id="Path_460" data-name="Path 460" class="cls-6" d="M217.13,431.1q6.92-2.25,14.06-4.87,8.77-3.23,16.94-6.69c8.16-3.46-9.68,5.33-15,7.11s-16,4.46-16,4.46"/><path id="Path_461" data-name="Path 461" class="cls-6" d="M220.2,437.41a32.41,32.41,0,0,0,16.83-1.7,32.85,32.85,0,0,0,13.29-9.83,25.25,25.25,0,0,1-12.75,10.54,35.64,35.64,0,0,1-17.37,1"/><path id="Path_462" data-name="Path 462" class="cls-7" d="M242.68,409.47c-4.52-.14-11.25.25-15.06,1.65-4.36,1.59-10.65,6.6-14.21,10"/><g id="Group_81" data-name="Group 81"><g id="Group_80" data-name="Group 80"><g class="cls-8"><g id="Group_79" data-name="Group 79"><g id="Group_78" data-name="Group 78"><g class="cls-9"><g id="Group_77" data-name="Group 77"><path id="Path_463" data-name="Path 463" class="cls-10" d="M226.13,407.57l4.54,8.66-.13,1.68,3.17,7.34-.31,1.32,4,9-1,1.32,3.5,9.13,21.12-15.48L258.73,418l-3.56-13.67-6.67-2.92L243,402.58l-7.65,2.81Z"/></g></g></g></g></g></g></g></g><g id="Laptop_front_view_-_white_mockup_isolated._Vector_illustration" data-name="Laptop front view - white mockup isolated. Vector illustration"><g id="Group_94" data-name="Group 94"><g class="cls-11"><g id="Group_93" data-name="Group 93"><g id="Group_84" data-name="Group 84"><g class="cls-11"><g id="Group_83" data-name="Group 83"><path id="Path_465" data-name="Path 465" class="cls-12" d="M69,507l41,20.64a.9.9,0,0,0,1.22-.4l13.58-27a1.78,1.78,0,0,0-.78-2.39h0L84.38,477.93a1.74,1.74,0,0,0-2.33.77L68.5,505.62A1,1,0,0,0,69,507h0"/><path id="Path_466" data-name="Path 466" class="cls-13" d="M69.08,507.06l40.71,20.49a.91.91,0,0,0,1.21-.4h0l13.62-27.07A1.52,1.52,0,0,0,124,498h0l-39.68-20a1.53,1.53,0,0,0-2.06.68h0l-13.57,27a1,1,0,0,0,.45,1.37h0"/><path id="Path_467" data-name="Path 467" class="cls-14" d="M69.07,507.06l40.71,20.49a.89.89,0,0,0,1.21-.4h0l.34-.67L68.91,505.12l-.29.58a1,1,0,0,0,.45,1.36h0"/><rect id="Rectangle_20" data-name="Rectangle 20" class="cls-5" x="83.09" y="480.37" width="27.61" height="44.11" transform="translate(-395.45 363.09) rotate(-63.28)"/><rect id="Rectangle_21" data-name="Rectangle 21" class="cls-15" x="83.09" y="480.37" width="27.61" height="44.11" transform="translate(-395.45 363.09) rotate(-63.28)"/><path id="Path_468" data-name="Path 468" class="cls-16" d="M103.52,489.05a.16.16,0,0,0,.07.22.16.16,0,0,0,.22-.07.16.16,0,0,0-.07-.22h0a.16.16,0,0,0-.22.07"/><path id="Path_469" data-name="Path 469" class="cls-17" d="M103.59,489.09a.09.09,0,0,0,0,.12.09.09,0,0,0,.12,0,.08.08,0,0,0,0-.12h0a.08.08,0,0,0-.11,0"/></g></g></g><g id="Group_86" data-name="Group 86"><g class="cls-18"><g id="Group_85" data-name="Group 85"><rect id="Rectangle_23" data-name="Rectangle 23" class="cls-19" x="89.34" y="487.78" width="0.34" height="58.62" transform="translate(-412.61 364.56) rotate(-63.28)"/></g></g></g><g id="Group_88" data-name="Group 88"><g class="cls-20"><g id="Group_87" data-name="Group 87"><rect id="Rectangle_25" data-name="Rectangle 25" class="cls-21" x="88.74" y="488.36" width="0.96" height="58.62" transform="translate(-413.28 364.62) rotate(-63.28)"/></g></g></g><g id="Group_90" data-name="Group 90"><g class="cls-22"><g id="Group_89" data-name="Group 89"><rect id="Rectangle_26" data-name="Rectangle 26" class="cls-23" x="89.24" y="511.56" width="0.47" height="11.16" transform="translate(-412.68 364.56) rotate(-63.28)"/></g></g></g><g id="Group_92" data-name="Group 92"><g class="cls-11"><g id="Group_91" data-name="Group 91"><rect id="Rectangle_27" data-name="Rectangle 27" class="cls-24" x="95.58" y="520.75" width="0.19" height="0.4" transform="translate(-412.67 372.19) rotate(-63.28)"/><rect id="Rectangle_28" data-name="Rectangle 28" class="cls-24" x="82.72" y="514.28" width="0.19" height="0.4" transform="translate(-413.97 357.14) rotate(-63.28)"/></g></g></g></g></g></g></g><g id="Group_97" data-name="Group 97"><path id="Path_480" data-name="Path 480" class="cls-25" d="M56.82,643v.68c0,2.93,1.93,5.84,5.77,8.07,7.72,4.49,20.29,4.49,28.07,0,3.91-2.25,5.86-5.22,5.85-8.18v-.68c0,3-1.94,5.92-5.86,8.18-7.77,4.49-20.34,4.49-28.06,0-3.84-2.23-5.76-5.14-5.77-8.07Z"/><path id="Path_481" data-name="Path 481" class="cls-5" d="M62.68,634.85c-7.78,4.48-7.82,11.76-.09,16.25s20.29,4.49,28.07,0,7.81-11.77.09-16.25-20.29-4.49-28.07,0Z"/><path id="Path_482" data-name="Path 482" class="cls-26" d="M66.49,647.34A23.59,23.59,0,0,0,82.17,646c4.18-2.16,3.93-5.07-.56-6.49a23.72,23.72,0,0,0-15.68,1.35c-4.17,2.17-3.92,5.07.56,6.49Z"/><path id="Path_483" data-name="Path 483" class="cls-5" d="M65.1,634.27l1.49-.87.92-1-1.5.87Z"/><path id="Path_484" data-name="Path 484" class="cls-5" d="M61.18,625.38a4.32,4.32,0,0,0,.86,2.4l4,5.52,1.49-.87-4-5.51a4.38,4.38,0,0,1-.86-2.41,1.41,1.41,0,0,1,.6-1.3l-1.5.87A1.43,1.43,0,0,0,61.18,625.38Z"/><path id="Path_485" data-name="Path 485" class="cls-5" d="M65.58,625.58l1.49-.87v-1.82l-1.49.86Z"/><path id="Path_486" data-name="Path 486" class="cls-5" d="M60.65,622.14a2.53,2.53,0,0,1,2.57.25l2.37,1.36,1.49-.86-2.37-1.37a2.55,2.55,0,0,0-2.57-.25l-1.49.87Z"/><path id="Path_487" data-name="Path 487" class="cls-25" d="M63.22,622.39c-2-1.15-3.63-.23-3.63,2.07a7.66,7.66,0,0,0,1.53,4.29l4,5.52.91-1-4-5.52a4.25,4.25,0,0,1-.86-2.4c0-1.29.92-1.81,2-1.16l2.37,1.36v-1.83l-2.37-1.36Z"/><path id="Path_488" data-name="Path 488" class="cls-25" d="M90.58,628.38c0,7.68-3.61,18.7-13.91,18.7s-13.91-11-13.91-18.7Z"/><path id="Path_489" data-name="Path 489" class="cls-5" d="M66.83,634.29c5.43,3.14,14.24,3.14,19.67,0s5.44-8.22,0-11.36-14.23-3.13-19.67,0-5.43,8.22,0,11.36Z"/><path id="Path_490" data-name="Path 490" class="cls-25" d="M64.53,630.27l.06.14a7.56,7.56,0,0,0,3.26,3.29,19.51,19.51,0,0,0,17.64,0,11.1,11.1,0,0,0,1.16-.77,6.69,6.69,0,0,0,2.1-2.53l.06-.13c1-2.35-.15-4.92-3.32-6.75a19.51,19.51,0,0,0-17.64,0c-3.17,1.83-4.28,4.4-3.32,6.75Z"/><path id="Path_491" data-name="Path 491" class="cls-27" d="M64.53,630.27l.06.14a7.56,7.56,0,0,0,3.26,3.29,19.51,19.51,0,0,0,17.64,0,11.1,11.1,0,0,0,1.16-.77,6.69,6.69,0,0,0,2.1-2.53l.06-.13a7.45,7.45,0,0,0-3.33-3.44c-3.69-2.13-9.13-2.65-13.66-1.54a15,15,0,0,0-4,1.54,7.48,7.48,0,0,0-3.32,3.44Z"/><path id="Path_492" data-name="Path 492" class="cls-28" d="M78.94,626.51a.91.91,0,0,0,.85,0,.25.25,0,0,0,.16-.33.23.23,0,0,0-.16-.16.91.91,0,0,0-.85,0,.25.25,0,0,0-.16.33A.22.22,0,0,0,78.94,626.51Z"/><path id="Path_493" data-name="Path 493" class="cls-28" d="M79.07,628.28a2.29,2.29,0,0,0,2,0,.62.62,0,0,0,.38-.79.64.64,0,0,0-.38-.39,2.29,2.29,0,0,0-2,0,.63.63,0,0,0-.38.79A.64.64,0,0,0,79.07,628.28Z"/><path id="Path_494" data-name="Path 494" class="cls-28" d="M82.14,626.8a.3.3,0,0,0,.29,0,.08.08,0,0,0,0-.11.06.06,0,0,0,0-.06.37.37,0,0,0-.29,0,.09.09,0,0,0,0,.12S82.11,626.79,82.14,626.8Z"/><path id="Path_495" data-name="Path 495" class="cls-28" d="M82.3,628.67a.42.42,0,0,0,.38,0,.12.12,0,0,0,.07-.15.12.12,0,0,0-.07-.07.42.42,0,0,0-.38,0,.12.12,0,0,0-.08.15A.14.14,0,0,0,82.3,628.67Z"/><path id="Path_496" data-name="Path 496" class="cls-28" d="M83.42,627.89a1.36,1.36,0,0,0,1.18,0,.37.37,0,0,0,.23-.46.36.36,0,0,0-.23-.22,1.29,1.29,0,0,0-1.18,0,.35.35,0,0,0-.22.45A.36.36,0,0,0,83.42,627.89Z"/><path id="Path_497" data-name="Path 497" class="cls-28" d="M84.54,628.91a.3.3,0,0,0,.26,0,.08.08,0,0,0,.06-.1.1.1,0,0,0-.06,0,.3.3,0,0,0-.26,0,.08.08,0,0,0,0,.15Z"/><path id="Path_498" data-name="Path 498" class="cls-28" d="M84.57,630.93a1.8,1.8,0,0,0,1.63,0,.5.5,0,0,0,0-.95,1.8,1.8,0,0,0-1.63,0,.5.5,0,0,0,0,.95Z"/><path id="Path_499" data-name="Path 499" class="cls-28" d="M82.59,629.75a.7.7,0,0,0,.63,0,.21.21,0,0,0,.12-.25.2.2,0,0,0-.12-.12.7.7,0,0,0-.63,0,.2.2,0,0,0-.12.25A.2.2,0,0,0,82.59,629.75Z"/><path id="Path_500" data-name="Path 500" class="cls-28" d="M79.63,629.21a.15.15,0,0,0,.16,0,0,0,0,0,0,0-.06,0,0,0,0,0,0,0,.15.15,0,0,0-.16,0,0,0,0,0,0,0,.06A0,0,0,0,0,79.63,629.21Z"/><path id="Path_501" data-name="Path 501" class="cls-28" d="M76.33,625.93a.26.26,0,0,0,.27,0,.07.07,0,0,0,.05-.1.08.08,0,0,0-.05-.05.26.26,0,0,0-.27,0,.08.08,0,0,0-.06.1A.06.06,0,0,0,76.33,625.93Z"/><path id="Path_502" data-name="Path 502" class="cls-28" d="M86.23,629a.8.8,0,0,0,.71,0,.22.22,0,0,0,.12-.29.2.2,0,0,0-.12-.12.75.75,0,0,0-.71,0,.22.22,0,0,0-.13.28A.27.27,0,0,0,86.23,629Z"/><path id="Path_503" data-name="Path 503" class="cls-28" d="M87.63,630.54a.24.24,0,0,0,.26,0,.08.08,0,0,0,0-.1.12.12,0,0,0,0-.05.3.3,0,0,0-.26,0,.08.08,0,0,0-.06.1A.06.06,0,0,0,87.63,630.54Z"/><path id="Path_504" data-name="Path 504" class="cls-28" d="M86.25,631.78a.53.53,0,0,0,.49,0,.14.14,0,0,0,.09-.19.14.14,0,0,0-.09-.09.53.53,0,0,0-.49,0,.15.15,0,0,0-.1.18A.17.17,0,0,0,86.25,631.78Z"/><path id="Path_505" data-name="Path 505" class="cls-29" d="M64.53,630.27l.06.14a7.56,7.56,0,0,0,3.26,3.29,19.51,19.51,0,0,0,17.64,0,9.8,9.8,0,0,0,1.16-.78q-.59-.17-1.17-.39c-.67-.31-.9-.87-1.41-1.27a4.8,4.8,0,0,0-2.51-.9c-.58,0-1.17,0-1.73-.1-2-.34-2.1-2.08-2.61-3a4,4,0,0,0-2.44-1.68l-.23-.07h0a7.6,7.6,0,0,0-2.73-.2,15.31,15.31,0,0,0-4,1.55,7.29,7.29,0,0,0-3.32,3.44Z"/></g><g id="Group_106" data-name="Group 106"><g id="Group_103" data-name="Group 103"><g class="cls-30"><g id="Group_102" data-name="Group 102"><path id="Path_522" data-name="Path 522" class="cls-31" d="M335.69,580.1H318.05V542.65a1.84,1.84,0,0,1,1.85-1.83h0a1.84,1.84,0,0,1,1.82,1.83V555h.73V540.61a1.84,1.84,0,0,1,1.83-1.85h0a1.87,1.87,0,0,1,1.85,1.85V555h.72V538.84a1.82,1.82,0,0,1,1.82-1.83h0a1.82,1.82,0,0,1,1.83,1.82h0V555h.72V541.87a1.86,1.86,0,0,1,1.85-1.85h0a1.85,1.85,0,0,1,1.83,1.85v16.18c1.09-1.18,2.16-2.37,3.25-3.54,2.22-2.24,4.81.24,2.95,2.79-5.62,8.06-5.94,13.31-5.43,22.8Z"/></g></g></g><path id="Path_523" data-name="Path 523" class="cls-32" d="M335.69,580.1H318.05v-2.77c13.63,2.77,12.63-2.26,20.26-15.44h0c-2.92,5.76-3,10.65-2.62,18.21Z"/><path id="Path_524" data-name="Path 524" class="cls-31" d="M335.71,582H318a1,1,0,0,1-.94-1h0a.94.94,0,0,1,.92-.95h17.7a1,1,0,0,1,.93.95h0A1,1,0,0,1,335.71,582Z"/><path id="Path_525" data-name="Path 525" class="cls-33" d="M320.07,564.13h0a.59.59,0,0,0-.58.58v10.42a.58.58,0,0,0,.58.57h0a.58.58,0,0,0,.57-.57V564.71A.58.58,0,0,0,320.07,564.13Z"/><g id="Group_105" data-name="Group 105"><g class="cls-30"><g id="Group_104" data-name="Group 104"><path id="Path_526" data-name="Path 526" class="cls-33" d="M320.07,563h0a.58.58,0,0,1-.58-.56v-1.43a.59.59,0,0,1,.58-.58h0a.58.58,0,0,1,.57.58v1.43A.57.57,0,0,1,320.07,563Z"/><path id="Path_527" data-name="Path 527" class="cls-31" d="M298.48,585.9h17.64V548.46a1.84,1.84,0,0,0-1.85-1.83h0a1.84,1.84,0,0,0-1.83,1.83V560.8h-.72V546.41a1.83,1.83,0,0,0-1.83-1.83h0a1.85,1.85,0,0,0-1.85,1.83V560.8h-.72V544.66a1.85,1.85,0,0,0-1.83-1.85h0a1.84,1.84,0,0,0-1.83,1.85V560.8h-.72V547.68a1.84,1.84,0,0,0-1.85-1.83h0a1.82,1.82,0,0,0-1.83,1.82h0v16.18c-1.1-1.17-2.16-2.36-3.25-3.55-2.22-2.23-4.81.24-3,2.81,5.63,8,5.94,13.32,5.43,22.78Z"/></g></g></g><path id="Path_528" data-name="Path 528" class="cls-32" d="M298.48,585.9h17.64v-2.75c-13.63,2.75-12.64-2.28-20.27-15.46h0c2.92,5.77,3,10.65,2.63,18.21Z"/><path id="Path_529" data-name="Path 529" class="cls-31" d="M298.46,587.81h17.68a1,1,0,0,0,.95-1h0a1,1,0,0,0-.95-1H298.46a1,1,0,0,0-.94,1h0A1,1,0,0,0,298.46,587.81Z"/><path id="Path_530" data-name="Path 530" class="cls-33" d="M314.09,570h0a.59.59,0,0,1,.59.57v10.42a.58.58,0,0,1-.59.58h0a.57.57,0,0,1-.56-.57h0V570.52A.57.57,0,0,1,314.09,570Z"/><path id="Path_531" data-name="Path 531" class="cls-33" d="M314.09,568.86h0a.6.6,0,0,0,.59-.58v-1.43a.59.59,0,0,0-.59-.56h0a.56.56,0,0,0-.56.56v1.43A.58.58,0,0,0,314.09,568.86Z"/></g><ellipse class="cls-3" cx="365.57" cy="820.97" rx="5.97" ry="6.31" transform="translate(-323.45 244.01) rotate(-26.06)"/><ellipse class="cls-3" cx="18.78" cy="705.42" rx="5.97" ry="6.31" transform="translate(-307.94 79.94) rotate(-26.06)"/><path class="cls-34" d="M300.14,828.49,297,837.64l9.29,4.34,5.49-8.94Z"/><path class="cls-34" d="M244.88,787.86l-9.47-2-3.15,9.76,9.18,4.88Q243.17,794.18,244.88,787.86Z"/><path class="cls-34" d="M276.4,716,254,728.89a8.7,8.7,0,0,0-6.24,1,7.32,7.32,0,0,0-3,3.39,7,7,0,0,0,0,5.22,7.26,7.26,0,0,0,4.59,4,8.32,8.32,0,0,0,6.73-.86,8.23,8.23,0,0,0,3.59-5.33l21.62-9.83Q278.83,721.18,276.4,716Z"/><path class="cls-34" d="M338.73,720.16c.8,1.79,3.58,7.43,9.48,9.31a13.21,13.21,0,0,0,3,.57,5.85,5.85,0,0,0,1.44-1.75,7.39,7.39,0,0,1-2.38-1.78c-.16-.18-3.12-3.66-1.48-7.33a6.36,6.36,0,0,1,4.79-3.64c3.53-.53,6.35,2.39,7.49,4.59.91,1.76.9,3.35.87,5.46a20.79,20.79,0,0,1-2.11,8.51c-.07.16-.11.25-.18.39-2,4-5.46,5.76-7.46,6.77a21.27,21.27,0,0,1-4.83,1.74A38.43,38.43,0,0,1,326,728.73Z"/><path class="cls-3" d="M317.48,759.73l9.71,38.86c-2.15,5.78-4.62,11.84-7.44,18.11-3.41,7.58-6.94,14.57-10.46,21L299,831.42l10.13-34.25c-1.8-1.61-3.65-3.39-5.51-5.38A87,87,0,0,1,293.73,779a178,178,0,0,1-7.91,16.81c-2.19,4.1-4.43,7.89-6.65,11.38a95.05,95.05,0,0,1-41.36-7.68l3.63-12.4,24,3.53,1.44-33.13Z"/><path class="cls-34" d="M328.9,662.74a26.72,26.72,0,0,0,1.72,3.16h0c.41.58,1.23,1.64,2.29,3.16.78,1.11.95,1.4.86,1.72-.28,1.08-3.14,1.14-3.73,1.15l1.2,3.51a1.55,1.55,0,0,1-.34,1.08,1.57,1.57,0,0,1-1.14.57,2.14,2.14,0,0,1,1.43,1.15,1.52,1.52,0,0,1,0,.86c-1,4-1.56,6-2.57,6.91-1.38,1.26-4.85.75-11.8-.26-2.75-.41-4.86-.84-6.95-2.39a15.18,15.18,0,0,1-2.38-2.38,21.55,21.55,0,0,1-4.64-10.48c-.51-3-1.61-9.5,2.14-14.64,5.64-7.72,19.1-8.09,21.9-4C328.57,654.29,327.92,660.58,328.9,662.74Z"/><path class="cls-35" d="M299.69,678c0-.91,0-6.49-4.3-10-5.72-4.76-13.58-1.34-14.64-.86a17.22,17.22,0,0,0-8.89,10.33l-8.61,26.69a37.34,37.34,0,0,0-.78,11.14c.33,4.08.68,9.12,3.5,12.59,4.1,5.05,12.8,6.12,21.67,3.53l1.72-8a87.34,87.34,0,0,0,15.3,1.93,58,58,0,0,0,14.83-1.06,21.75,21.75,0,0,0,4.45-1.27,18.34,18.34,0,0,0,10-12.32c2.43-11.73-10.66-21.15-11.88-22-9.86-6.88-20.87-5.1-23.53-4.59Z"/><path class="cls-5" d="M297.27,688.74q-3.37,14.41-6.76,28.82a75.13,75.13,0,0,0,8.62,1.52c6.63.76,10.25,1.19,14.24-.42,1.48-.59,6.63-2.67,8.46-7.63,2.67-7.25-4-14.6-4.75-15.48C309.93,687.62,298.84,688.58,297.27,688.74Z"/><path class="cls-36" d="M340.73,720.42l-14.79,10-9.89-12.87a22.61,22.61,0,0,1-4.3,1.72c-4.55,1.28-8.38.77-13.78,0a81.62,81.62,0,0,1-8.61-1.72l7.75-29a36.86,36.86,0,0,1,10.62,1.15c10.66,2.77,17.2,9.68,21.71,14.45A66.32,66.32,0,0,1,340.73,720.42Z"/><path class="cls-34" d="M304.28,676.23,298.55,684a32.2,32.2,0,0,1,19.51,2.3l.29-.29a32.29,32.29,0,0,1-14.07-9.76Z"/><path class="cls-36" d="M318.41,724.32q.9,18.75,1.79,37.48c-.43.07-1.11.18-1.95.29-7.43,1-13.43.51-28.89-1.78-8.27-1.22-11.31-1.78-16.93-2-3.21-.13-5.86-.09-7.6,0q1.86-6.94,3.84-14,1.79-6.35,3.61-12.56a28.61,28.61,0,0,0,9.33.8,28.24,28.24,0,0,0,6-1.15l1.72-8A79.33,79.33,0,0,0,301.41,725,80.19,80.19,0,0,0,318.41,724.32Z"/><path class="cls-29" d="M334.42,640.36a31.37,31.37,0,0,0,4.8-.88c.06,7.14-2.16,12.61-4.72,14.28a11.16,11.16,0,0,1-3.3,1.41,9.1,9.1,0,0,1-4,.05,36.17,36.17,0,0,0-3.55-1A10.24,10.24,0,0,0,322,654c-1.16,0-6.48,0-8.6,3.67-1.66,2.93-.29,6.35,0,7l-2,2.06a20,20,0,0,0-1.14-2.62c-1.29-2.5-2.16-4.18-3.66-4.37a3.51,3.51,0,0,0-3.24,2,4.7,4.7,0,0,0,.27,4c.72,1.81,1.42,1.54,2,3,.63,1.7.22,3.4-.41,6-.23.94-.47,1.7-.65,2.22-1-1-2.28-2.37-3.7-4.1a44,44,0,0,1-4.09-5.68,21.79,21.79,0,0,1-2.68-5.63,11.61,11.61,0,0,1-.53-6c.22-1,.92-4.26,3.75-5.53a6.24,6.24,0,0,1,4.09-.28,12.78,12.78,0,0,1,2.68-6.49c3.37-4.12,8.52-4.61,10.23-4.77,2.27-.21,1.59.29,11,1.45A37,37,0,0,0,334.42,640.36Z"/><path class="cls-29" d="M317.76,857l-2.88-1.37-15.13-7-8.92-4.12,0,0,0,0h0l.27-.51a28.15,28.15,0,0,1,6.32-7.92,10.58,10.58,0,0,0,4.35,3.11,10.69,10.69,0,0,0,6.27.39,24.64,24.64,0,0,1,5.71,3.62c2.16,1.84,4,3.38,4.81,6A10.92,10.92,0,0,1,317.76,857Z"/><path class="cls-37" d="M293.73,779l3.46-8q.38,7,.76,14.08c-.75-1-1.52-2-2.28-3.14S294.34,780,293.73,779Z"/><path class="cls-37" d="M299.69,678a11.65,11.65,0,0,0-2-5.74,11.27,11.27,0,0,0-3.73-3.44,12,12,0,0,0-7.17-1.15,16.2,16.2,0,0,0-9.76,4.31,17.15,17.15,0,0,0-4,6.31c-1,2.29-1.47,3.43-1.15,4.59.88,3.18,6.9,5.61,11.19,3.45a9,9,0,0,0,4.3-5.74,7.65,7.65,0,0,1-2,5.45,7.75,7.75,0,0,1-3.73,2,11,11,0,0,1-6.6-.29c-1.24-.45-4.84-1.75-5.45-4.59-.27-1.24.21-2.36,1.15-4.59a22.36,22.36,0,0,1,2.87-4.88,21.44,21.44,0,0,1,4-4.59,17.18,17.18,0,0,1,8.32-3.45,12.55,12.55,0,0,1,5.74.29,11.68,11.68,0,0,1,5.45,3.73A12.15,12.15,0,0,1,299.69,678Z"/><path class="cls-5" d="M323.32,664.21a8.79,8.79,0,0,0,.92.45l.25.09.12,0,.22.08.11,0,.13,0,.13,0,.25.06h.06l.13,0a6.1,6.1,0,0,0,.81.12h.12a7.87,7.87,0,0,0,1.3,0h0l.16,0V665c0-.12,0-.25,0-.39h0c0-.1,0-.2,0-.3a.78.78,0,0,1,0-.14,7.1,7.1,0,0,0-.52-1.68c-.09-.19-.17-.36-.26-.52l0-.06-.16-.27-.06-.1q-.11-.16-.21-.3l-.1-.14-.05-.06a5.91,5.91,0,0,0-1.77,1.15A6.33,6.33,0,0,0,323.32,664.21Z"/><path class="cls-38" d="M326.22,663.77a2.69,2.69,0,0,0,.39.58c.2.23.74.83,1.26.84h0l.16,0V665c0-.12,0-.25,0-.39h0a1.68,1.68,0,0,1-1.65-1h0a1.47,1.47,0,0,1-.06-.14s0,0,0-.06h0l0-.13a1.67,1.67,0,0,1,.56-1.63l.14-.11q-.11-.16-.21-.3l-.1-.14c-.13,0-.2.16-.32.39a2.84,2.84,0,0,0-.2.65,2.68,2.68,0,0,0-.06.51,3.13,3.13,0,0,0,0,.55A2.46,2.46,0,0,0,326.22,663.77Z"/><path class="cls-39" d="M326.26,663.5s0,.06,0,.08h0a2,2,0,0,0,.16.33,2.33,2.33,0,0,0,.54.6,2,2,0,0,0,.45.31,1.36,1.36,0,0,0,.58.16c0-.12,0-.25,0-.39h0c0-.1,0-.2,0-.3a.78.78,0,0,1,0-.14,1.28,1.28,0,0,1-.72-.25,1.33,1.33,0,0,1-.44-.6,1.59,1.59,0,0,1-.06-.3,1.39,1.39,0,0,1,.09-.57h0a1.38,1.38,0,0,1,.23-.36l.12-.12,0-.06-.16-.27-.06-.1q-.11-.16-.21-.3l0,0c-.26.17-.35.48-.44.92a4.24,4.24,0,0,0-.06.81,2,2,0,0,0,0,.25s0,.11.05.17h0A.56.56,0,0,1,326.26,663.5Z"/><path class="cls-40" d="M326.66,663.35a1.87,1.87,0,0,0,1.29,1.23h0c0-.1,0-.2,0-.3a.78.78,0,0,1,0-.14,7.1,7.1,0,0,0-.52-1.68c-.09-.19-.17-.36-.26-.52l0-.06-.16-.27a1.86,1.86,0,0,0-.35,1.54h0Z"/><path d="M326.87,663.29a1.84,1.84,0,0,0,.34.6,1,1,0,0,0,.74.39.78.78,0,0,1,0-.14,7.1,7.1,0,0,0-.52-1.68c-.09-.19-.17-.36-.26-.52l0-.06a.94.94,0,0,0-.31.54h0A1.66,1.66,0,0,0,326.87,663.29Z"/><path class="cls-29" d="M328.32,659.59l-.1-1.35c-.25,0-.59,0-1,0a6.51,6.51,0,0,0-1.76.27,5.23,5.23,0,0,0-2.53,2,6.86,6.86,0,0,0-.74,1.27,9.11,9.11,0,0,1,2.64-1.49,14.12,14.12,0,0,1,2.48-.59C327.72,659.66,328.07,659.62,328.32,659.59Z"/><path class="cls-41" d="M303,650.81a12.63,12.63,0,0,1,4.09-5.75c4-3.11,9.11-2.69,11.29-2.51,2.91.25,3.15.9,7.07,1.19a19.87,19.87,0,0,0,6.71-.26,15.63,15.63,0,0,0,7-4,26.07,26.07,0,0,1-6.3.92c-3.28.06-4.91-.55-9.78-1.23-4.31-.6-6.46-.9-8.2-.74-1.91.17-7.61.69-11.07,5.21a12.71,12.71,0,0,0-2.43,6.18,3.61,3.61,0,0,1,1,.46A3.92,3.92,0,0,1,303,650.81Z"/><path class="cls-42" d="M304,651.81a14.17,14.17,0,0,1,5.12-4.73,15.15,15.15,0,0,1,9.08-1.54c1.26.22,2.29.61,4.94,1a26.06,26.06,0,0,0,3.28.34,15.39,15.39,0,0,0,6.59-1.08,13,13,0,0,0,6.19-6.3,14.43,14.43,0,0,1-5.82,3.64c-3.84,1.22-7.73.5-9.94.09a44.74,44.74,0,0,0-6.17-1,20,20,0,0,0-2.84-.09,14.12,14.12,0,0,0-8.78,4.26,13.1,13.1,0,0,0-2.63,4.4c.17.15.35.31.53.5A6.54,6.54,0,0,1,304,651.81Z"/><path class="cls-29" d="M304.88,652.82a14.52,14.52,0,0,1,5.17-3.65,16.05,16.05,0,0,1,7.86-1c1.7.16,1.89.44,5,.84a25.71,25.71,0,0,0,4.5.36,13.6,13.6,0,0,0,6.29-1.73c4.13-2.45,5.26-7,5.51-8.16a12.27,12.27,0,0,1-5.28,5.85c-3.72,2-7.93,1.37-9.45,1.15s-3-.67-6.18-1a24.81,24.81,0,0,0-3-.19,14.33,14.33,0,0,0-11.29,6.5l.46.52Z"/><path class="cls-41" d="M305.8,654.17a21.88,21.88,0,0,1,6.14-3,21.62,21.62,0,0,1,5.61-1,17.74,17.74,0,0,1,5.78.65c2.32.69,2.83,1.43,4.83,1.55a8.6,8.6,0,0,0,3.54-.51,9.63,9.63,0,0,0,4.4-3.93,18.38,18.38,0,0,0,3.12-8.46c-.27,1.18-1.41,5.67-5.51,8.16a13.12,13.12,0,0,1-7.35,1.73c-1.95-.14-2.73-.69-6.34-1.08a26.29,26.29,0,0,0-3.74-.23,16.13,16.13,0,0,0-8,2,14.22,14.22,0,0,0-3.4,2.77,4.32,4.32,0,0,1,.53.65A5.12,5.12,0,0,1,305.8,654.17Z"/><path class="cls-42" d="M306.75,657.3a18.41,18.41,0,0,1,5.68-2.75,20.56,20.56,0,0,1,5.37-.72,17.9,17.9,0,0,1,4.55.32,42.36,42.36,0,0,0,5,1.16,10.49,10.49,0,0,0,1.8.11,10.3,10.3,0,0,0,3.62-.77,10,10,0,0,0,2.43-1.37c1.94-1.53,2.54-3.75,3.2-6.38a27.08,27.08,0,0,0,.82-7.42,17,17,0,0,1-1.9,6.42,11.17,11.17,0,0,1-3.11,4.07,10.18,10.18,0,0,1-6.44,2c-2.08-.09-2.15-.8-5.51-1.39a22.07,22.07,0,0,0-4.71-.37,21.71,21.71,0,0,0-11.75,4,8.32,8.32,0,0,1,.68,1.68A8.75,8.75,0,0,1,306.75,657.3Z"/><path class="cls-29" d="M218.49,808.6l1.06-3L225,789.84l3.19-9.3a0,0,0,0,0,0,0l0,0h0l.54.21a28.25,28.25,0,0,1,8.51,5.49,10.6,10.6,0,0,0-2.65,4.64,10.74,10.74,0,0,0,.24,6.28,24.88,24.88,0,0,1-3,6.05c-1.61,2.33-3,4.29-5.48,5.38A10.87,10.87,0,0,1,218.49,808.6Z"/><path class="cls-43" d="M331.11,675.26a.93.93,0,0,0-.68-.15,2.06,2.06,0,0,0-.92.41c-.67.43-.69.5-1.12.76s-.74.39-1,.54l-.8.34c.58.34,1.22.68,1.91,1a23.2,23.2,0,0,0,2.69,1.1,1.61,1.61,0,0,0-.46-1.8,2.11,2.11,0,0,0-.59-.43l.51-.18a6.06,6.06,0,0,0,.81-.42,1.44,1.44,0,0,0-.06-.8A.72.72,0,0,0,331.11,675.26Z"/><path class="cls-44" d="M326.55,677.16a12.94,12.94,0,0,0,2,1.21,12.65,12.65,0,0,0,2.57.9,1.58,1.58,0,0,0,.07-1.13,1.41,1.41,0,0,0-.3-.51,2.08,2.08,0,0,0-.82-.59l-1.13,0Z"/><path class="cls-42" d="M303.4,651.14a8.5,8.5,0,0,0-7.45,2.4,10.15,10.15,0,0,0-2.56,4,10.29,10.29,0,0,1,.35-2.75,7.23,7.23,0,0,1,2.46-4.08,5.66,5.66,0,0,1,3.62-1.15,6.44,6.44,0,0,1,1.62.22,4.75,4.75,0,0,1,1.2.62A5.37,5.37,0,0,1,303.4,651.14Z"/><path class="cls-41" d="M304.57,652.44a9.08,9.08,0,0,0-10,10.59,14.59,14.59,0,0,1-1.16-4.7c0-.26,0-.5,0-.75a9.84,9.84,0,0,1,1-2,10,10,0,0,1,2.31-2.63,8.5,8.5,0,0,1,6.74-1.77l.62.67Z"/><path class="cls-29" d="M305.91,654.39a8.39,8.39,0,0,0-5.55.92,7.71,7.71,0,0,0-3.22,3.42,7.88,7.88,0,0,0-.67,3.42,15.68,15.68,0,0,0,1.18,6.47,32.8,32.8,0,0,1-2-3.38c-.39-.76-.74-1.5-1-2.21a9.22,9.22,0,0,1,.65-5.25,9.06,9.06,0,0,1,4-4.27,9.33,9.33,0,0,1,5.31-1.07,6.57,6.57,0,0,1,.68.81A6.7,6.7,0,0,1,305.91,654.39Z"/><path class="cls-41" d="M306.75,657.3a6,6,0,0,0-5.13,0,5.55,5.55,0,0,0-2.41,2.91c-.29.72-.82,2.34.38,7.15a42.61,42.61,0,0,0,2.34,6.81,49,49,0,0,1-3.12-3.89c-.41-.57-.8-1.12-1.16-1.67a11.77,11.77,0,0,1-1.19-5.81,9.15,9.15,0,0,1,1.51-4.94,8.08,8.08,0,0,1,2.54-2.37,8.33,8.33,0,0,1,2.15-.82,10.06,10.06,0,0,1,3.25-.29,8.4,8.4,0,0,1,.57,1.46A8.75,8.75,0,0,1,306.75,657.3Z"/><path class="cls-42" d="M306.75,657.3a6,6,0,0,0-3.25-.57,5.17,5.17,0,0,0-2.17.72A5.71,5.71,0,0,0,299,661c-.33,1.25-.17,2.31.17,4.38a33.49,33.49,0,0,0,1.9,6.69c.35.91.66,1.65.88,2.15.39.45.8.9,1.23,1.36s1,1,1.44,1.51c.12-.37.25-.75.36-1.15.18-.6.32-1.17.44-1.71-.49-.79-1.18-1.92-2-3.29a21.83,21.83,0,0,1-1.67-3.09,7.73,7.73,0,0,1-.34-5.12,4.16,4.16,0,0,1,1.22-2.07c1.69-1.48,4.23-.76,4.56-.67-.06-.43-.12-.87-.19-1.33S306.83,657.73,306.75,657.3Z"/><path d="M326.53,661a6.53,6.53,0,0,0-2.77,2.37,6.09,6.09,0,0,0-.44.83c.23.13.47.25.73.37a8.06,8.06,0,0,0,4,.59,7.56,7.56,0,0,1-3.94-.34,7.05,7.05,0,0,1-1.1-.53,7.67,7.67,0,0,1,.48-.87A6.85,6.85,0,0,1,326.53,661Z"/><path class="cls-37" d="M316.66,762.29l8.68,36.41c-2.27,6.17-4.84,12.62-7.77,19.3s-6,13.21-9.1,19.17l.82.5c3.23-5.88,6.49-12.29,9.66-19.2s5.89-13.58,8.24-19.88q-4.56-18.23-9.11-36.47l-.59.07Z"/><path class="cls-45" d="M318.41,724.32l-.65.1c.14,4.65.23,9.41.24,14.27,0,8.11-.17,16-.51,23.5l1.72-.23,1-.16q-.6-12.22-1.18-24.46Q318.71,730.83,318.41,724.32Z"/><path class="cls-45" d="M297.11,688.57l-7.75,29,1.39.34c.62.15,1.23.29,1.83.41q3-14.88,6-29.76h-.73Z"/><path class="cls-45" d="M289.36,723.29l-1.72,8c.53-.15,1.08-.32,1.65-.53.38-.14.75-.28,1.09-.43l1-6.65Z"/><path class="cls-46" d="M326.85,729.82l.85-.57a45.15,45.15,0,0,0,19.65,12.58A22.53,22.53,0,0,0,357.1,738a22.28,22.28,0,0,1-4.53,3.11,22.72,22.72,0,0,1-5.19,1.92,38.32,38.32,0,0,1-20.53-13.18Z"/><path class="cls-46" d="M259.62,736.26l1.75-1,7.89-4.68,1.42.69Z"/><path class="cls-46" d="M304.08,676.51a50.17,50.17,0,0,0-2.35,4.7c-.36.83-.68,1.64-1,2.42l-2.21.35Z"/><path class="cls-46" d="M324.85,686.73c-1.1-.13-2.29-.32-3.54-.57s-2.42-.54-3.5-.84l-.66.56.93.37.29-.28,1.26.18c1.24.18,2,.28,2.88.38C323.08,686.59,323.88,686.67,324.85,686.73Z"/></g></g></svg>